<svg xmlns="http://www.w3.org/2000/svg" xmlns:xlink="http://www.w3.org/1999/xlink" width="500" zoomAndPan="magnify" viewBox="0 0 375 374.999991" height="500" preserveAspectRatio="xMidYMid meet" version="1.0"><defs><clipPath id="fee5508a01"><path d="M 0 133.359375 L 375 133.359375 L 375 241.359375 L 0 241.359375 Z M 0 133.359375 " clip-rule="nonzero"/></clipPath></defs><g clip-path="url(#fee5508a01)"><path fill="#eeeeee" d="M 3.015625 217.566406 L 3.015625 176.070312 L 54.960938 176.070312 L 54.960938 173.644531 L 3.015625 173.644531 L 3.015625 135.785156 L 58.246094 135.785156 L 58.246094 133.359375 L 0.582031 133.359375 L 0.582031 219.992188 L 58.730469 219.992188 L 58.730469 217.566406 Z M 105.570312 157.625 L 84.039062 185.898438 L 62.992188 157.625 L 59.828125 157.625 L 82.578125 187.71875 L 57.636719 219.992188 L 60.558594 219.992188 L 84.039062 189.539062 L 107.636719 219.992188 L 110.675781 219.992188 L 85.617188 187.71875 L 108.492188 157.625 Z M 117.976562 241.355469 L 117.976562 202.523438 L 118.21875 202.523438 C 119.679688 208.179688 122.5625 212.734375 126.855469 216.171875 C 131.15625 219.609375 136.632812 221.328125 143.285156 221.328125 C 147.578125 221.328125 151.386719 220.460938 154.71875 218.71875 C 158.039062 216.980469 160.820312 214.613281 163.050781 211.625 C 165.28125 208.632812 166.984375 205.152344 168.160156 201.1875 C 169.335938 197.222656 169.917969 193.058594 169.917969 188.691406 C 169.917969 184 169.3125 179.671875 168.101562 175.707031 C 166.882812 171.742188 165.113281 168.304688 162.808594 165.394531 C 160.492188 162.480469 157.695312 160.214844 154.410156 158.597656 C 151.125 156.980469 147.417969 156.171875 143.285156 156.171875 C 140.113281 156.171875 137.179688 156.636719 134.464844 157.566406 C 131.746094 158.496094 129.332031 159.8125 127.21875 161.511719 C 125.117188 163.210938 123.292969 165.210938 121.75 167.515625 C 120.210938 169.824219 119.027344 172.351562 118.21875 175.101562 L 117.976562 175.101562 L 117.976562 157.628906 L 115.546875 157.628906 L 115.546875 241.355469 Z M 143.285156 219.023438 C 135.660156 219.023438 129.535156 216.417969 124.914062 211.195312 C 120.292969 205.980469 117.976562 198.476562 117.976562 188.691406 C 117.976562 184.644531 118.546875 180.804688 119.679688 177.164062 C 120.816406 173.523438 122.460938 170.328125 124.605469 167.578125 C 126.753906 164.828125 129.410156 162.644531 132.574219 161.027344 C 135.742188 159.40625 139.304688 158.597656 143.285156 158.597656 C 147.335938 158.597656 150.882812 159.40625 153.921875 161.027344 C 156.964844 162.644531 159.476562 164.847656 161.464844 167.636719 C 163.457031 170.429688 164.953125 173.625 165.96875 177.222656 C 166.984375 180.824219 167.488281 184.644531 167.488281 188.691406 C 167.488281 192.332031 167.019531 195.949219 166.09375 199.550781 C 165.160156 203.148438 163.71875 206.382812 161.769531 209.257812 C 159.828125 212.128906 157.332031 214.472656 154.285156 216.292969 C 151.25 218.113281 147.578125 219.023438 143.285156 219.023438 Z M 183.304688 219.992188 L 183.304688 184.6875 C 183.304688 181.289062 183.792969 177.972656 184.761719 174.738281 C 185.734375 171.5 187.238281 168.648438 189.269531 166.183594 C 191.292969 163.714844 193.867188 161.773438 196.992188 160.359375 C 200.109375 158.941406 203.820312 158.355469 208.121094 158.597656 L 208.121094 156.171875 C 204.390625 156.089844 201.125 156.496094 198.328125 157.386719 C 195.535156 158.273438 193.117188 159.488281 191.09375 161.027344 C 189.0625 162.5625 187.441406 164.363281 186.222656 166.425781 C 185.003906 168.488281 184.113281 170.691406 183.550781 173.039062 L 183.304688 173.039062 L 183.304688 157.628906 L 180.871094 157.628906 L 180.871094 219.992188 Z M 211.164062 189.296875 L 263.472656 189.296875 C 263.632812 185.007812 263.210938 180.882812 262.195312 176.921875 C 261.179688 172.957031 259.558594 169.4375 257.332031 166.363281 C 255.097656 163.289062 252.222656 160.824219 248.695312 158.960938 C 245.160156 157.101562 240.96875 156.171875 236.101562 156.171875 C 232.617188 156.171875 229.207031 156.898438 225.886719 158.355469 C 222.554688 159.8125 219.636719 161.933594 217.125 164.726562 C 214.613281 167.515625 212.582031 170.933594 211.042969 174.980469 C 209.5 179.023438 208.726562 183.632812 208.726562 188.8125 C 208.726562 193.421875 209.261719 197.730469 210.3125 201.734375 C 211.363281 205.738281 212.992188 209.214844 215.175781 212.164062 C 217.363281 215.121094 220.183594 217.410156 223.628906 219.023438 C 227.074219 220.640625 231.238281 221.414062 236.101562 221.328125 C 243.242188 221.328125 249.242188 219.324219 254.105469 215.324219 C 258.96875 211.320312 261.851562 205.675781 262.742188 198.398438 L 260.3125 198.398438 C 259.253906 205.273438 256.558594 210.433594 252.222656 213.871094 C 247.886719 217.304688 242.429688 219.023438 235.859375 219.023438 C 231.398438 219.023438 227.625 218.253906 224.542969 216.714844 C 221.460938 215.179688 218.949219 213.074219 217 210.410156 C 215.058594 207.738281 213.617188 204.605469 212.683594 201.003906 C 211.75 197.40625 211.246094 193.503906 211.164062 189.296875 Z M 261.042969 186.871094 L 211.164062 186.871094 C 211.40625 182.5 212.21875 178.578125 213.597656 175.101562 C 214.976562 171.621094 216.78125 168.648438 219.007812 166.183594 C 221.242188 163.714844 223.832031 161.835938 226.796875 160.539062 C 229.753906 159.246094 232.9375 158.597656 236.339844 158.597656 C 240.402344 158.597656 243.972656 159.347656 247.050781 160.84375 C 250.132812 162.339844 252.703125 164.382812 254.777344 166.972656 C 256.84375 169.558594 258.40625 172.574219 259.457031 176.011719 C 260.515625 179.449219 261.042969 183.070312 261.042969 186.871094 Z M 313.957031 176.070312 L 316.394531 176.070312 C 316.394531 169.113281 314.363281 164.058594 310.3125 160.902344 C 306.253906 157.75 300.742188 156.171875 293.769531 156.171875 C 289.867188 156.171875 286.589844 156.65625 283.910156 157.628906 C 281.230469 158.597656 279.046875 159.851562 277.339844 161.390625 C 275.636719 162.925781 274.417969 164.625 273.6875 166.484375 C 272.964844 168.347656 272.601562 170.125 272.601562 171.824219 C 272.601562 175.222656 273.207031 177.929688 274.417969 179.953125 C 275.636719 181.976562 277.542969 183.554688 280.144531 184.6875 C 281.925781 185.496094 283.953125 186.222656 286.226562 186.871094 C 288.496094 187.515625 291.132812 188.203125 294.132812 188.933594 C 296.804688 189.578125 299.441406 190.226562 302.039062 190.875 C 304.632812 191.519531 306.925781 192.390625 308.910156 193.484375 C 310.898438 194.574219 312.519531 195.96875 313.773438 197.667969 C 315.035156 199.367188 315.664062 201.59375 315.664062 204.34375 C 315.664062 207.007812 315.035156 209.273438 313.773438 211.136719 C 312.519531 212.996094 310.917969 214.515625 308.96875 215.691406 C 307.027344 216.863281 304.859375 217.707031 302.464844 218.238281 C 300.070312 218.761719 297.738281 219.023438 295.46875 219.023438 C 288.085938 219.023438 282.429688 217.386719 278.5 214.109375 C 274.566406 210.832031 272.601562 205.675781 272.601562 198.640625 L 270.160156 198.640625 C 270.160156 206.484375 272.292969 212.230469 276.550781 215.871094 C 280.808594 219.507812 287.117188 221.328125 295.46875 221.328125 C 298.140625 221.328125 300.84375 221.027344 303.558594 220.417969 C 306.273438 219.8125 308.707031 218.820312 310.859375 217.445312 C 313.007812 216.070312 314.753906 214.292969 316.089844 212.105469 C 317.425781 209.921875 318.097656 207.257812 318.097656 204.101562 C 318.097656 201.105469 317.503906 198.679688 316.328125 196.820312 C 315.152344 194.960938 313.613281 193.421875 311.707031 192.207031 C 309.800781 190.996094 307.65625 190.046875 305.261719 189.359375 C 302.867188 188.667969 300.457031 188.003906 298.023438 187.355469 C 294.613281 186.464844 291.636719 185.695312 289.078125 185.050781 C 286.523438 184.402344 284.152344 183.632812 281.960938 182.746094 C 279.859375 181.855469 278.171875 180.582031 276.914062 178.921875 C 275.660156 177.265625 275.03125 174.898438 275.03125 171.824219 C 275.03125 171.257812 275.191406 170.246094 275.515625 168.792969 C 275.84375 167.335938 276.609375 165.859375 277.828125 164.363281 C 279.046875 162.867188 280.910156 161.53125 283.421875 160.359375 C 285.941406 159.183594 289.386719 158.597656 293.769531 158.597656 C 296.769531 158.597656 299.5 158.921875 301.972656 159.570312 C 304.449219 160.214844 306.582031 161.246094 308.363281 162.664062 C 310.144531 164.078125 311.523438 165.878906 312.496094 168.0625 C 313.472656 170.246094 313.957031 172.917969 313.957031 176.070312 Z M 370.289062 176.070312 L 372.71875 176.070312 C 372.71875 169.113281 370.6875 164.058594 366.636719 160.902344 C 362.578125 157.75 357.0625 156.171875 350.089844 156.171875 C 346.199219 156.171875 342.914062 156.65625 340.234375 157.628906 C 337.5625 158.597656 335.371094 159.851562 333.664062 161.390625 C 331.960938 162.925781 330.75 164.625 330.019531 166.484375 C 329.289062 168.347656 328.925781 170.125 328.925781 171.824219 C 328.925781 175.222656 329.53125 177.929688 330.75 179.953125 C 331.960938 181.976562 333.867188 183.554688 336.464844 184.6875 C 338.25 185.496094 340.277344 186.222656 342.550781 186.871094 C 344.820312 187.515625 347.457031 188.203125 350.457031 188.933594 C 353.128906 189.578125 355.765625 190.226562 358.363281 190.875 C 360.957031 191.519531 363.25 192.390625 365.234375 193.484375 C 367.21875 194.574219 368.839844 195.96875 370.105469 197.667969 C 371.359375 199.367188 371.988281 201.59375 371.988281 204.34375 C 371.988281 207.007812 371.359375 209.273438 370.105469 211.136719 C 368.839844 212.996094 367.242188 214.515625 365.292969 215.691406 C 363.351562 216.863281 361.183594 217.707031 358.789062 218.238281 C 356.390625 218.761719 354.0625 219.023438 351.792969 219.023438 C 344.410156 219.023438 338.753906 217.386719 334.824219 214.109375 C 330.886719 210.832031 328.925781 205.675781 328.925781 198.640625 L 326.484375 198.640625 C 326.484375 206.484375 328.617188 212.230469 332.875 215.871094 C 337.132812 219.507812 343.441406 221.328125 351.792969 221.328125 C 354.472656 221.328125 357.167969 221.027344 359.882812 220.417969 C 362.597656 219.8125 365.03125 218.820312 367.183594 217.445312 C 369.332031 216.070312 371.074219 214.292969 372.410156 212.105469 C 373.75 209.921875 374.421875 207.257812 374.421875 204.101562 C 374.421875 201.105469 373.828125 198.679688 372.652344 196.820312 C 371.476562 194.960938 369.9375 193.421875 368.03125 192.207031 C 366.125 190.996094 363.980469 190.046875 361.582031 189.359375 C 359.195312 188.667969 356.78125 188.003906 354.347656 187.355469 C 350.9375 186.464844 347.960938 185.695312 345.402344 185.050781 C 342.847656 184.402344 340.484375 183.632812 338.292969 182.746094 C 336.183594 181.855469 334.496094 180.582031 333.238281 178.921875 C 331.984375 177.265625 331.355469 174.898438 331.355469 171.824219 C 331.355469 171.257812 331.515625 170.246094 331.84375 168.792969 C 332.167969 167.335938 332.941406 165.859375 334.152344 164.363281 C 335.371094 162.867188 337.234375 161.53125 339.753906 160.359375 C 342.265625 159.183594 345.710938 158.597656 350.089844 158.597656 C 353.09375 158.597656 355.832031 158.921875 358.296875 159.570312 C 360.773438 160.214844 362.90625 161.246094 364.6875 162.664062 C 366.46875 164.078125 367.847656 165.878906 368.828125 168.0625 C 369.796875 170.246094 370.289062 172.917969 370.289062 176.070312 Z M 370.289062 176.070312 " fill-opacity="1" fill-rule="nonzero"/></g></svg>