<svg xmlns="http://www.w3.org/2000/svg" xmlns:xlink="http://www.w3.org/1999/xlink" width="500" zoomAndPan="magnify" viewBox="0 0 375 374.999991" height="500" preserveAspectRatio="xMidYMid meet" version="1.0"><defs><clipPath id="7959797eef"><path d="M 23.4375 1 L 351.9375 1 L 351.9375 374 L 23.4375 374 Z M 23.4375 1 " clip-rule="nonzero"/></clipPath></defs><g clip-path="url(#7959797eef)"><path fill="#e44d26" d="M 53.257812 336.460938 L 23.34375 1.339844 L 352.03125 1.339844 L 322.09375 336.414062 L 187.476562 373.671875 Z M 53.257812 336.460938 " fill-opacity="1" fill-rule="nonzero"/></g><path fill="#f16529" d="M 296.453125 315.074219 L 322.046875 28.742188 L 187.6875 28.742188 L 187.6875 345.199219 Z M 296.453125 315.074219 " fill-opacity="1" fill-rule="nonzero"/><path fill="#ebebeb" d="M 187.546875 69.839844 L 84.5 69.839844 L 95.601562 194.132812 L 187.6875 194.132812 L 187.6875 153.035156 L 133.242188 153.035156 L 129.476562 110.949219 L 187.6875 110.949219 L 187.6875 69.839844 Z M 187.6875 259.640625 L 187.511719 259.6875 L 141.6875 247.332031 L 138.773438 214.554688 L 97.441406 214.554688 L 103.210938 279.085938 L 187.5 302.355469 L 187.6875 302.296875 Z M 187.6875 259.640625 " fill-opacity="1" fill-rule="nonzero"/><path fill="#ffffff" d="M 187.546875 194.132812 L 238.21875 194.132812 L 233.5625 247.421875 L 187.664062 259.792969 L 187.664062 302.554688 L 272.027344 279.199219 L 283.324219 153.011719 L 187.6875 153.011719 Z M 289.640625 80.871094 L 290.617188 69.839844 L 187.523438 69.839844 L 187.523438 110.9375 L 286.914062 110.9375 L 287.730469 101.699219 Z M 289.640625 80.871094 " fill-opacity="1" fill-rule="nonzero"/></svg>