<svg xmlns="http://www.w3.org/2000/svg" xmlns:xlink="http://www.w3.org/1999/xlink" width="500" zoomAndPan="magnify" viewBox="0 0 375 374.999991" height="500" preserveAspectRatio="xMidYMid meet" version="1.0"><rect x="-37.5" width="450" fill="#ffffff" y="-37.499999" height="449.999989" fill-opacity="1"/><rect x="-37.5" width="450" fill="#ffffff" y="-37.499999" height="449.999989" fill-opacity="1"/><path fill="#0868ac" d="M 82.03125 60.777344 C 60.609375 92.121094 63.277344 132.902344 79.597656 166.167969 L 80.800781 168.539062 L 81.609375 170.039062 C 81.761719 170.332031 81.933594 170.621094 82.089844 170.902344 C 82.375 171.429688 82.65625 171.9375 82.898438 172.457031 L 84.460938 175.183594 L 85.355469 176.683594 L 87.167969 179.570312 L 87.976562 180.785156 C 88.789062 182.082031 89.703125 183.371094 90.605469 184.644531 C 90.625 184.679688 90.652344 184.714844 90.679688 184.746094 C 90.820312 184.949219 90.976562 185.152344 91.082031 185.355469 C 91.863281 186.449219 92.707031 187.527344 93.515625 188.597656 L 94.417969 189.765625 L 96.625 192.53125 L 97.46875 193.558594 C 98.476562 194.773438 99.503906 195.96875 100.550781 197.144531 L 100.617188 197.207031 C 100.65625 197.261719 100.699219 197.289062 100.738281 197.339844 C 101.753906 198.488281 102.796875 199.609375 103.867188 200.707031 L 104.875 201.734375 L 107.375 204.234375 L 108.398438 205.222656 C 109.523438 206.296875 110.664062 207.355469 111.824219 208.394531 L 112.472656 208.964844 L 115.582031 211.636719 L 116.875 212.683594 L 119.46875 214.710938 L 120.855469 215.785156 L 124.820312 218.683594 C 124.921875 218.753906 125.011719 218.824219 125.113281 218.894531 C 126.046875 219.542969 126.992188 220.171875 127.9375 220.800781 L 129.164062 221.628906 L 133.59375 224.386719 L 134.816406 225.089844 L 138.140625 226.984375 C 138.75 227.316406 139.371094 227.632812 139.980469 227.949219 L 142.355469 229.167969 L 142.902344 229.433594 L 143.875 229.910156 L 147.648438 231.6875 L 148.445312 232.09375 C 149.898438 232.738281 151.363281 233.359375 152.839844 233.953125 L 153.910156 234.382812 L 158.058594 235.949219 L 158.578125 236.132812 C 160.109375 236.675781 161.652344 237.1875 163.203125 237.675781 L 164.316406 238.015625 C 165.9375 238.5 167.460938 239.082031 169.089844 239.394531 C 272.6875 258.671875 302.789062 176.050781 302.789062 176.050781 C 277.511719 209.574219 232.652344 218.410156 190.148438 208.574219 C 188.539062 208.167969 186.976562 207.695312 185.402344 207.21875 L 184.21875 206.816406 C 182.6875 206.335938 181.160156 205.828125 179.652344 205.300781 L 179.023438 205.070312 C 177.675781 204.585938 176.332031 204.078125 174.996094 203.550781 L 173.863281 203.097656 C 172.402344 202.511719 170.953125 201.898438 169.515625 201.257812 L 168.648438 200.867188 L 164.980469 199.125 L 163.925781 198.605469 C 162.976562 198.128906 162.027344 197.636719 161.089844 197.132812 L 159.195312 196.121094 C 158.050781 195.496094 156.917969 194.847656 155.796875 194.179688 L 154.648438 193.53125 C 153.15625 192.640625 151.679688 191.707031 150.222656 190.773438 C 149.816406 190.511719 149.425781 190.230469 149.027344 189.964844 L 145.875 187.832031 L 144.859375 187.101562 L 141.878906 184.914062 L 140.558594 183.898438 L 137.871094 181.757812 L 136.667969 180.785156 L 133.324219 177.949219 C 133.210938 177.847656 133.082031 177.746094 132.917969 177.636719 C 131.726562 176.570312 130.554688 175.476562 129.398438 174.378906 L 128.410156 173.40625 L 125.878906 170.882812 L 124.890625 169.871094 C 123.835938 168.777344 122.800781 167.660156 121.789062 166.53125 C 121.738281 166.472656 121.683594 166.421875 121.632812 166.367188 C 120.5625 165.171875 119.511719 163.957031 118.488281 162.71875 L 117.664062 161.722656 L 115.394531 158.871094 L 114.5625 157.820312 L 111.945312 154.273438 C 88.347656 121.5 79.910156 76.300781 98.726562 39.179688 M 148.535156 34.363281 C 133.042969 57.0625 133.882812 87.441406 145.96875 111.445312 C 147.992188 115.480469 150.277344 119.363281 152.820312 123.089844 C 155.140625 126.476562 157.714844 130.511719 160.796875 133.226562 C 161.914062 134.441406 163.082031 135.65625 164.273438 136.898438 C 164.574219 137.210938 164.878906 137.507812 165.1875 137.820312 C 166.347656 138.96875 167.53125 140.085938 168.742188 141.179688 C 168.789062 141.21875 168.835938 141.269531 168.886719 141.308594 C 170.25 142.519531 171.644531 143.695312 173.066406 144.835938 L 174.007812 145.582031 C 175.425781 146.695312 176.871094 147.769531 178.347656 148.808594 C 178.386719 148.839844 178.425781 148.871094 178.46875 148.902344 C 179.117188 149.359375 179.785156 149.792969 180.449219 150.230469 C 180.765625 150.441406 181.0625 150.664062 181.378906 150.863281 C 182.4375 151.554688 183.511719 152.222656 184.597656 152.871094 L 185.050781 153.136719 L 187.890625 154.757812 C 188.222656 154.949219 188.5625 155.113281 188.902344 155.292969 L 190.929688 156.339844 C 191.03125 156.390625 191.132812 156.433594 191.230469 156.480469 C 192.597656 157.171875 193.972656 157.820312 195.378906 158.445312 C 195.679688 158.582031 195.988281 158.703125 196.292969 158.832031 C 197.417969 159.320312 198.554688 159.789062 199.699219 160.238281 L 201.160156 160.78125 C 202.195312 161.167969 203.238281 161.535156 204.285156 161.890625 L 205.695312 162.347656 C 207.183594 162.820312 208.65625 163.414062 210.207031 163.675781 C 290.191406 177.167969 308.664062 114.464844 308.664062 114.464844 C 292.019531 138.867188 259.785156 150.519531 225.382812 141.429688 C 223.859375 141.027344 222.347656 140.582031 220.851562 140.09375 C 220.394531 139.949219 219.945312 139.800781 219.488281 139.6875 C 218.425781 139.335938 217.371094 138.964844 216.324219 138.578125 L 214.890625 138.035156 C 213.742188 137.628906 212.609375 137.121094 211.484375 136.636719 C 211.175781 136.5 210.867188 136.378906 210.566406 136.238281 C 209.152344 135.621094 207.761719 134.960938 206.386719 134.261719 C 205.683594 133.910156 204.988281 133.542969 204.296875 133.175781 L 203.085938 132.542969 C 202.195312 132.054688 201.3125 131.546875 200.4375 131.023438 L 199.804688 130.621094 C 198.726562 129.972656 197.660156 129.308594 196.601562 128.625 C 196.277344 128.414062 195.960938 128.21875 195.636719 127.96875 L 193.5625 126.570312 C 192.09375 125.53125 190.652344 124.457031 189.238281 123.351562 L 188.265625 122.574219 C 173.210938 110.46875 161.273438 93.929688 155.597656 75.175781 C 149.648438 55.71875 150.933594 33.886719 161.277344 16.171875 M 204.453125 14.628906 C 195.320312 28.316406 194.425781 45.308594 200.804688 60.417969 C 207.488281 76.460938 221.179688 89.046875 237.160156 95.007812 C 237.816406 95.261719 238.480469 95.484375 239.1875 95.710938 L 240.066406 95.992188 C 241.003906 96.292969 241.941406 96.640625 242.910156 96.828125 C 287.078125 105.515625 299.058594 73.753906 302.246094 69.082031 C 291.75 84.464844 274.113281 88.15625 252.476562 82.8125 C 250.773438 82.386719 248.886719 81.757812 247.207031 81.164062 C 245.085938 80.398438 243.015625 79.523438 240.988281 78.535156 C 237.128906 76.640625 233.496094 74.382812 230.089844 71.761719 C 210.6875 56.804688 198.65625 28.273438 211.289062 5.039062 " fill-opacity="1" fill-rule="nonzero"/><path fill="#131b28" d="M 106.914062 305.125 L 103.921875 315.730469 L 106.914062 305.128906 Z M 122.308594 328.144531 L 119.011719 328.121094 Z M 121.496094 343.976562 L 101.738281 344.050781 Z M 125.632812 328.167969 L 122.332031 328.148438 Z M 123.273438 342.628906 L 126.71875 329.507812 Z M 195.980469 282.203125 L 189.570312 312.332031 Z M 179.496094 282.203125 L 174.628906 304.714844 Z M 179.496094 282.203125 " fill-opacity="1" fill-rule="nonzero"/><path fill="#131b28" d="M 194.84375 280.84375 L 181.136719 280.84375 C 180.375 280.84375 179.621094 281.453125 179.457031 282.199219 L 169.726562 327.222656 C 169.5625 327.964844 168.808594 328.574219 168.050781 328.574219 L 158.347656 328.574219 C 148.746094 328.574219 149.855469 321.9375 151.859375 312.84375 L 151.921875 312.570312 L 153.085938 306.367188 L 153.585938 303.8125 L 158.015625 282.199219 C 158.167969 281.453125 157.671875 280.839844 156.910156 280.839844 L 142.835938 280.839844 C 142.4375 280.855469 142.085938 280.988281 141.773438 281.238281 C 141.464844 281.488281 141.261719 281.808594 141.167969 282.195312 L 134.828125 312.25 C 131.339844 328.15625 132.265625 343.324219 151.210938 343.796875 L 151.757812 343.808594 L 181.488281 343.808594 C 182.253906 343.808594 183.003906 343.203125 183.164062 342.457031 L 195.988281 282.195312 C 196.148438 281.449219 195.648438 280.839844 194.890625 280.839844 Z M 249.535156 328.730469 C 250.296875 328.730469 250.75 329.339844 250.640625 330.085938 L 249.308594 336.589844 M 247.980469 343.101562 L 249.308594 336.589844 Z M 246.308594 344.46875 L 221.046875 344.59375 Z M 246.308594 344.46875 " fill-opacity="1" fill-rule="nonzero"/><path fill="#131b28" d="M 212.863281 320.355469 C 212.851562 319.640625 213.664062 318.417969 214.425781 318.417969 L 212.714844 318.390625 C 211.902344 326.148438 212.863281 320.355469 212.863281 320.355469 Z M 222.296875 344.589844 L 222.03125 344.589844 Z M 249.535156 328.730469 C 250.296875 328.730469 250.75 329.339844 250.640625 330.085938 L 249.089844 337.648438 M 228.785156 344.609375 L 228.726562 344.609375 Z M 225.417969 344.585938 L 225.222656 344.585938 Z M 224.390625 344.589844 L 224.066406 344.589844 Z M 223.390625 344.589844 L 223.105469 344.589844 Z M 225.265625 344.585938 L 224.433594 344.585938 Z M 225.265625 344.585938 " fill-opacity="1" fill-rule="nonzero"/><path fill="#131b28" d="M 228.730469 344.609375 L 225.421875 344.621094 Z M 246.316406 344.507812 L 228.78125 344.613281 Z M 247.941406 343.101562 L 249.054688 337.652344 L 247.941406 343.105469 Z M 224.03125 344.589844 L 223.390625 344.589844 L 224.113281 344.589844 Z M 222.023438 344.589844 L 221.050781 344.589844 Z M 223.066406 344.589844 L 222.253906 344.589844 Z M 22.503906 320.519531 L 24.632812 311.082031 L 22.199219 321.863281 L 21.917969 323.21875 L 22.507812 320.511719 Z M 47.996094 280.691406 L 32.9375 280.691406 C 32.539062 280.707031 32.183594 280.839844 31.871094 281.089844 C 31.558594 281.339844 31.351562 281.65625 31.246094 282.042969 L 28.394531 294.605469 C 28.34375 294.773438 28.335938 294.9375 28.371094 295.109375 C 28.402344 295.277344 28.472656 295.429688 28.582031 295.5625 C 28.6875 295.699219 28.820312 295.800781 28.976562 295.871094 C 29.136719 295.9375 29.300781 295.96875 29.472656 295.957031 L 44.644531 295.957031 C 45.40625 295.957031 46.160156 295.347656 46.324219 294.605469 L 49.082031 282.011719 C 49.242188 281.269531 48.757812 280.664062 47.988281 280.664062 Z M 44.71875 301.640625 L 40.257812 322.0625 Z M 0.980469 369.316406 L 13.398438 369.414062 C 9.730469 369.414062 3.675781 369.34375 0.976562 369.3125 Z M 0.980469 369.316406 " fill-opacity="1" fill-rule="nonzero"/><path fill="#131b28" d="M 26.722656 301.640625 L 24.589844 311.078125 Z M 43.632812 300.289062 L 28.453125 300.289062 C 28.054688 300.304688 27.699219 300.4375 27.386719 300.6875 C 27.074219 300.9375 26.867188 301.253906 26.761719 301.640625 L 22.503906 320.515625 L 21.914062 323.222656 L 17.859375 342.488281 C 17.65625 343.386719 17.414062 344.277344 17.128906 345.152344 C 17.128906 345.152344 14.289062 353.582031 9.527344 353.488281 L 4.804688 353.402344 C 4.40625 353.410156 4.050781 353.539062 3.738281 353.78125 C 3.421875 354.027344 3.210938 354.339844 3.101562 354.722656 L -0.0429688 367.949219 C -0.0898438 368.113281 -0.101562 368.28125 -0.0703125 368.449219 C -0.0390625 368.617188 0.0273438 368.769531 0.132812 368.90625 C 0.238281 369.039062 0.371094 369.144531 0.527344 369.214844 C 0.683594 369.289062 0.847656 369.320312 1.015625 369.3125 L 13.4375 369.414062 C 25.34375 369.414062 31.617188 362.816406 35.644531 343.847656 L 44.765625 301.6875 C 44.929688 300.945312 44.433594 300.339844 43.671875 300.339844 Z M 259.203125 343.816406 C 258.441406 343.816406 257.988281 343.210938 258.109375 342.464844 L 269.523438 289.011719 M 275.066406 342.460938 L 279.691406 319.644531 Z M 275.066406 342.460938 " fill-opacity="1" fill-rule="nonzero"/><path fill="#131b28" d="M 258.277344 343.140625 C 258.183594 342.769531 258.234375 341.855469 258.398438 341.113281 L 263.816406 315.738281 L 258.105469 342.464844 C 257.941406 343.210938 258.4375 343.816406 259.199219 343.816406 L 260.585938 343.816406 C 259.824219 343.816406 258.363281 343.515625 258.277344 343.140625 Z M 274.171875 343.515625 C 273.757812 343.675781 272.792969 343.816406 272.03125 343.816406 L 273.417969 343.816406 C 273.816406 343.800781 274.167969 343.667969 274.476562 343.417969 C 274.785156 343.164062 274.984375 342.847656 275.078125 342.460938 L 275.355469 341.105469 C 275.207031 341.851562 274.542969 343.347656 274.140625 343.515625 Z M 277.375 331.054688 L 279.414062 320.984375 Z M 322.417969 292.59375 L 323.046875 295.1875 C 323.222656 295.929688 322.738281 296.53125 321.980469 296.535156 " fill-opacity="1" fill-rule="nonzero"/><path fill="#131b28" d="M 275.34375 341.105469 L 277.371094 331.054688 Z M 321.796875 289.886719 L 322.417969 292.542969 Z M 279.414062 320.984375 L 279.972656 318.292969 L 282.152344 308.097656 L 279.6875 319.640625 L 279.414062 320.980469 Z M 269.710938 288.132812 L 269.238281 290.363281 L 263.820312 315.738281 L 269.527344 289.011719 L 269.710938 288.136719 Z M 269.710938 288.132812 " fill-opacity="1" fill-rule="nonzero"/><path fill="#131b28" d="M 323.050781 295.1875 L 322.421875 292.59375 L 321.488281 288.539062 C 320.257812 283.757812 316.640625 280.988281 308.78125 280.988281 L 272.609375 280.964844 C 272.210938 280.976562 271.859375 281.109375 271.546875 281.359375 C 271.238281 281.609375 271.035156 281.929688 270.941406 282.316406 L 270.378906 284.964844 L 269.570312 288.964844 L 258.441406 341.066406 C 258.28125 341.8125 258.226562 342.6875 258.320312 343.09375 C 258.414062 343.496094 259.875 343.769531 260.632812 343.769531 L 272.066406 343.769531 C 272.828125 343.769531 273.789062 343.632812 274.207031 343.464844 C 274.625 343.300781 275.238281 341.84375 275.425781 341.058594 L 279.761719 319.597656 L 284.40625 297.855469 C 284.570312 297.113281 285.320312 296.507812 286.078125 296.503906 L 322.058594 296.488281 C 322.816406 296.488281 323.296875 295.878906 323.125 295.136719 Z M 369.371094 271.703125 L 366.601562 271.714844 L 355.085938 271.714844 C 354.191406 271.769531 353.46875 272.152344 352.921875 272.859375 L 327.453125 310.152344 C 327.023438 310.78125 326.535156 310.6875 326.359375 309.949219 L 324.484375 301.734375 C 324.382812 301.347656 324.175781 301.03125 323.863281 300.78125 C 323.550781 300.53125 323.195312 300.398438 322.796875 300.382812 L 306.425781 300.382812 C 305.664062 300.382812 305.207031 300.980469 305.417969 301.714844 L 312.71875 327.40625 C 312.929688 328.132812 312.941406 329.339844 312.757812 330.082031 L 309.515625 342.511719 C 309.457031 342.675781 309.445312 342.839844 309.472656 343.007812 C 309.5 343.179688 309.566406 343.332031 309.671875 343.464844 C 309.777344 343.601562 309.910156 343.703125 310.066406 343.773438 C 310.222656 343.839844 310.386719 343.867188 310.558594 343.855469 L 326.777344 343.855469 C 327.539062 343.855469 328.316406 343.246094 328.503906 342.515625 L 331.75 330.085938 C 332.003906 329.203125 332.398438 328.386719 332.925781 327.636719 L 374.308594 272.777344 C 374.769531 272.171875 374.519531 271.675781 373.757812 271.683594 L 369.421875 271.710938 Z M 239.300781 303.878906 C 239.207031 304.6875 238.441406 305.296875 237.679688 305.296875 L 216.917969 305.296875 C 216.199219 305.296875 215.835938 304.808594 215.945312 304.203125 L 215.960938 304.09375 L 216.054688 303.738281 C 218.082031 298.46875 222.078125 295.011719 229.664062 295.011719 C 238.207031 295.011719 239.875 299.1875 239.292969 303.878906 Z M 233.210938 279.929688 C 206.570312 279.929688 200.257812 296.09375 196.714844 312.410156 C 193.171875 329.042969 193.480469 344.597656 221.046875 344.597656 L 225.417969 344.597656 L 228.785156 344.585938 L 246.324219 344.480469 C 246.722656 344.460938 247.070312 344.324219 247.375 344.074219 C 247.683594 343.824219 247.882812 343.503906 247.976562 343.121094 L 250.640625 330.101562 C 250.792969 329.355469 250.296875 328.746094 249.535156 328.746094 L 224.75 328.746094 C 214.894531 328.746094 211.964844 326.128906 213.042969 318.429688 L 252.660156 318.429688 C 253.308594 318.417969 253.894531 318.023438 254.128906 317.410156 C 254.167969 317.300781 254.207031 317.183594 254.226562 317.0625 C 260.105469 294.890625 258.417969 279.945312 233.21875 279.945312 Z M 107.289062 303.789062 L 106.914062 305.113281 C 106.914062 305.117188 103.921875 315.71875 103.921875 315.71875 L 100.929688 326.316406 C 100.800781 326.695312 100.578125 327.007812 100.253906 327.253906 C 99.933594 327.496094 99.570312 327.625 99.167969 327.644531 L 83.332031 327.644531 C 71.320312 327.644531 68.394531 318.253906 71.320312 304.402344 C 74.238281 290.234375 79.976562 281.425781 91.796875 280.535156 C 107.953125 279.316406 111.179688 290.675781 107.289062 303.785156 Z M 118.148438 326.832031 C 118.148438 326.832031 125.609375 308.714844 127.3125 298.242188 C 129.621094 284.230469 122.605469 263.910156 95.5 263.910156 C 68.546875 263.910156 56.84375 283.308594 52.378906 304.445312 C 47.917969 325.6875 53.765625 344.316406 80.558594 344.171875 L 121.460938 344.019531 C 121.859375 344 122.222656 343.867188 122.539062 343.621094 C 122.855469 343.375 123.074219 343.058594 123.191406 342.675781 L 126.636719 329.550781 C 126.695312 329.386719 126.710938 329.222656 126.683594 329.054688 C 126.65625 328.882812 126.589844 328.730469 126.484375 328.597656 C 126.378906 328.460938 126.25 328.359375 126.09375 328.289062 C 125.9375 328.21875 125.773438 328.191406 125.605469 328.203125 L 119.007812 328.164062 C 118.355469 328.160156 117.992188 327.742188 118.066406 327.191406 C 118.082031 327.089844 118.105469 326.988281 118.148438 326.882812 Z M 118.148438 326.832031 " fill-opacity="1" fill-rule="nonzero"/><path fill="#131b28" d="M 251.574219 314.710938 C 251.574219 315.210938 251.167969 315.617188 250.664062 315.617188 C 250.160156 315.617188 249.757812 315.210938 249.757812 314.710938 C 249.757812 314.207031 250.160156 313.800781 250.664062 313.800781 C 251.167969 313.800781 251.574219 314.207031 251.574219 314.710938 Z M 251.574219 314.710938 " fill-opacity="1" fill-rule="nonzero"/></svg>