<svg xmlns="http://www.w3.org/2000/svg" xmlns:xlink="http://www.w3.org/1999/xlink" width="500" zoomAndPan="magnify" viewBox="0 0 375 374.999991" height="500" preserveAspectRatio="xMidYMid meet" version="1.0"><path fill="#00d8ff" d="M 308.179688 128.832031 C 304.300781 127.496094 300.277344 126.230469 296.121094 125.035156 C 296.808594 122.253906 297.4375 119.507812 297.996094 116.8125 C 307.109375 72.519531 301.15625 36.835938 280.773438 25.089844 C 261.226562 13.824219 229.273438 25.570312 196.996094 53.648438 C 193.894531 56.347656 190.777344 59.207031 187.675781 62.203125 C 185.597656 60.222656 183.535156 58.304688 181.472656 56.472656 C 147.644531 26.449219 113.738281 13.796875 93.382812 25.578125 C 73.859375 36.875 68.078125 70.421875 76.296875 112.398438 C 77.089844 116.453125 78.015625 120.59375 79.0625 124.804688 C 74.265625 126.164062 69.632812 127.617188 65.203125 129.160156 C 25.546875 142.980469 0.222656 164.644531 0.222656 187.117188 C 0.222656 210.316406 27.410156 233.601562 68.710938 247.71875 C 71.972656 248.828125 75.355469 249.882812 78.839844 250.875 C 77.707031 255.425781 76.722656 259.886719 75.898438 264.246094 C 68.0625 305.496094 74.183594 338.246094 93.652344 349.464844 C 113.761719 361.0625 147.511719 349.140625 180.375 320.429688 C 182.980469 318.160156 185.582031 315.75 188.1875 313.234375 C 191.582031 316.480469 194.960938 319.566406 198.3125 322.460938 C 230.148438 349.84375 261.59375 360.902344 281.035156 349.652344 C 301.125 338.027344 307.664062 302.832031 299.179688 260.035156 C 298.535156 256.757812 297.773438 253.421875 296.941406 250.027344 C 299.3125 249.328125 301.636719 248.59375 303.90625 247.847656 C 346.847656 233.617188 374.777344 210.636719 374.777344 187.117188 C 374.777344 164.5625 348.632812 142.753906 308.179688 128.832031 Z M 298.871094 232.664062 C 296.824219 233.339844 294.71875 233.996094 292.582031 234.625 C 287.839844 219.632812 281.445312 203.675781 273.605469 187.191406 C 281.082031 171.101562 287.226562 155.351562 291.835938 140.445312 C 295.667969 141.554688 299.382812 142.722656 302.96875 143.957031 C 337.628906 155.886719 358.773438 173.527344 358.773438 187.117188 C 358.773438 201.582031 335.949219 220.378906 298.871094 232.664062 Z M 283.480469 263.132812 C 287.242188 282.0625 287.765625 299.175781 285.28125 312.558594 C 283.054688 324.582031 278.5625 332.597656 273.019531 335.800781 C 261.210938 342.632812 235.972656 333.753906 208.757812 310.335938 C 205.628906 307.644531 202.480469 304.777344 199.335938 301.75 C 209.886719 290.210938 220.433594 276.796875 230.734375 261.890625 C 248.832031 260.296875 265.9375 257.664062 281.460938 254.078125 C 282.222656 257.167969 282.894531 260.179688 283.480469 263.132812 Z M 127.921875 334.617188 C 116.390625 338.699219 107.203125 338.816406 101.652344 335.613281 C 89.835938 328.796875 84.925781 302.496094 91.625 267.230469 C 92.394531 263.191406 93.304688 259.039062 94.359375 254.796875 C 109.703125 258.191406 126.683594 260.632812 144.835938 262.097656 C 155.199219 276.679688 166.054688 290.078125 176.984375 301.808594 C 174.601562 304.121094 172.214844 306.3125 169.847656 308.375 C 155.316406 321.085938 140.757812 330.097656 127.921875 334.617188 Z M 73.894531 232.578125 C 55.628906 226.332031 40.546875 218.230469 30.207031 209.363281 C 20.917969 201.421875 16.226562 193.523438 16.226562 187.117188 C 16.226562 173.484375 36.558594 156.085938 70.472656 144.265625 C 74.589844 142.832031 78.898438 141.480469 83.367188 140.210938 C 88.054688 155.453125 94.203125 171.390625 101.621094 187.496094 C 94.105469 203.851562 87.871094 220.042969 83.136719 235.472656 C 79.949219 234.554688 76.863281 233.585938 73.894531 232.578125 Z M 92.003906 109.328125 C 84.964844 73.359375 89.640625 46.230469 101.40625 39.421875 C 113.933594 32.171875 141.644531 42.511719 170.839844 68.4375 C 172.714844 70.09375 174.585938 71.828125 176.472656 73.621094 C 165.589844 85.304688 154.835938 98.601562 144.558594 113.097656 C 126.945312 114.730469 110.082031 117.351562 94.578125 120.863281 C 93.605469 116.941406 92.742188 113.089844 92.003906 109.328125 Z M 253.5625 149.210938 C 249.859375 142.8125 246.054688 136.5625 242.179688 130.484375 C 254.132812 131.992188 265.574219 134 276.328125 136.453125 C 273.109375 146.796875 269.085938 157.609375 264.34375 168.699219 C 260.949219 162.246094 257.351562 155.746094 253.5625 149.210938 Z M 187.675781 85.054688 C 195.066406 93.046875 202.453125 101.972656 209.726562 111.65625 C 202.394531 111.308594 194.976562 111.128906 187.5 111.128906 C 180.097656 111.128906 172.738281 111.304688 165.453125 111.644531 C 172.722656 102.050781 180.1875 93.140625 187.675781 85.054688 Z M 121.371094 149.320312 C 117.667969 155.738281 114.140625 162.207031 110.796875 168.6875 C 106.140625 157.636719 102.152344 146.773438 98.898438 136.28125 C 109.582031 133.894531 120.980469 131.9375 132.855469 130.457031 C 128.917969 136.589844 125.082031 142.882812 121.371094 149.320312 Z M 133.195312 244.910156 C 120.925781 243.546875 109.359375 241.691406 98.675781 239.363281 C 101.984375 228.6875 106.058594 217.601562 110.816406 206.308594 C 114.167969 212.789062 117.710938 219.253906 121.433594 225.6875 L 121.4375 225.6875 C 125.230469 232.242188 129.160156 238.648438 133.195312 244.910156 Z M 188.117188 290.296875 C 180.535156 282.121094 172.972656 273.066406 165.582031 263.339844 C 172.753906 263.617188 180.070312 263.761719 187.5 263.761719 C 195.140625 263.761719 202.6875 263.585938 210.105469 263.265625 C 202.820312 273.167969 195.445312 282.238281 188.117188 290.296875 Z M 264.492188 205.738281 C 269.496094 217.144531 273.722656 228.175781 277.074219 238.675781 C 266.21875 241.148438 254.484375 243.140625 242.132812 244.632812 C 246.027344 238.472656 249.859375 232.109375 253.632812 225.570312 C 257.453125 218.960938 261.066406 212.335938 264.492188 205.738281 Z M 239.765625 217.585938 C 233.910156 227.738281 227.898438 237.417969 221.796875 246.5625 C 210.691406 247.351562 199.207031 247.761719 187.5 247.761719 C 175.839844 247.761719 164.5 247.410156 153.585938 246.691406 C 147.238281 237.433594 141.097656 227.722656 135.28125 217.671875 C 129.480469 207.652344 124.140625 197.546875 119.300781 187.496094 C 124.136719 177.433594 129.464844 167.3125 135.234375 157.3125 C 141.015625 147.285156 147.105469 137.617188 153.394531 128.40625 C 164.53125 127.566406 175.957031 127.125 187.5 127.125 C 199.105469 127.125 210.53125 127.570312 221.664062 128.417969 C 227.867188 137.558594 233.910156 147.195312 239.71875 157.226562 C 245.585938 167.371094 250.984375 177.417969 255.859375 187.277344 C 251 197.296875 245.617188 207.449219 239.765625 217.585938 Z M 272.773438 38.941406 C 285.324219 46.175781 290.199219 75.335938 282.3125 113.578125 C 281.8125 116.019531 281.242188 118.503906 280.628906 121.023438 C 265.089844 117.4375 248.222656 114.773438 230.5625 113.113281 C 220.261719 98.460938 209.59375 85.140625 198.882812 73.609375 C 201.765625 70.84375 204.648438 68.203125 207.503906 65.710938 C 235.15625 41.652344 261.007812 32.15625 272.773438 38.941406 Z M 187.5 153.671875 C 205.964844 153.671875 220.949219 168.636719 220.949219 187.113281 C 220.949219 205.570312 205.964844 220.550781 187.5 220.550781 C 169.035156 220.550781 154.054688 205.570312 154.054688 187.113281 C 154.054688 168.636719 169.035156 153.671875 187.5 153.671875 Z M 187.5 153.671875 " fill-opacity="1" fill-rule="nonzero"/></svg>