<svg xmlns="http://www.w3.org/2000/svg" xmlns:xlink="http://www.w3.org/1999/xlink" width="500" zoomAndPan="magnify" viewBox="0 0 375 225" height="300" preserveAspectRatio="xMidYMid meet" version="1.0"><defs><g/><clipPath id="e4cb77074e"><path d="M 63 19.828125 L 312 19.828125 L 312 125.578125 L 63 125.578125 Z M 63 19.828125 " clip-rule="nonzero"/></clipPath></defs><rect x="-37.5" width="450" fill="#ffffff" y="-22.5" height="270" fill-opacity="1"/><rect x="-37.5" width="450" fill="#ffffff" y="-22.5" height="270" fill-opacity="1"/><rect x="-37.5" width="450" fill="#ffffff" y="-22.5" height="270" fill-opacity="1"/><g clip-path="url(#e4cb77074e)"><path fill="#004aad" d="M 121.457031 81.03125 L 63.683594 125.578125 L 122.921875 66.289062 L 138.453125 74.363281 L 163.546875 41.746094 L 174.003906 41.503906 L 193.867188 19.828125 L 216.808594 54.121094 L 226.1875 43.417969 L 243.367188 66.050781 L 252.027344 66.53125 L 311.59375 125.578125 L 272.074219 97.234375 L 256.539062 96.757812 L 239.003906 79.625 L 220.78125 92.480469 L 233.417969 73.195312 L 223.679688 59.144531 L 169.671875 104.382812 L 194.585938 71.761719 L 180.15625 64.136719 L 190.253906 57.710938 L 192.253906 34.121094 L 115.15625 111.289062 L 130.867188 87.25 Z M 121.457031 81.03125 " fill-opacity="1" fill-rule="evenodd"/></g><g fill="#000000" fill-opacity="1"><g transform="translate(80.570311, 164.008568)"><g><path d="M 10.390625 -24.574219 C 10.863281 -24.574219 11.292969 -24.621094 11.765625 -24.621094 C 12.191406 -24.621094 12.621094 -24.527344 13.09375 -24.527344 C 13.519531 -24.527344 13.949219 -24.574219 14.421875 -24.574219 C 14.847656 -24.574219 15.324219 -24.527344 15.75 -24.527344 C 16.179688 -24.527344 16.652344 -24.527344 17.078125 -24.527344 C 17.507812 -24.527344 17.980469 -24.621094 18.40625 -24.621094 C 18.835938 -24.621094 19.308594 -24.621094 19.734375 -24.621094 C 20.304688 -24.621094 20.78125 -24.574219 21.160156 -24.671875 C 21.679688 -24.765625 21.964844 -24.953125 22.203125 -25.429688 C 22.394531 -25.761719 22.535156 -26.1875 22.582031 -26.804688 C 22.582031 -27.28125 22.628906 -27.753906 22.628906 -28.132812 C 22.628906 -28.65625 22.582031 -29.082031 22.296875 -29.414062 C 22.011719 -29.605469 21.679688 -29.890625 21.066406 -29.984375 C 20.683594 -30.03125 20.210938 -29.9375 19.6875 -29.9375 C 19.261719 -29.9375 18.835938 -29.984375 18.457031 -29.9375 C 18.027344 -29.9375 17.601562 -30.078125 17.222656 -30.03125 C 16.792969 -30.03125 16.367188 -29.9375 15.941406 -29.9375 C 15.5625 -29.890625 15.132812 -29.839844 14.707031 -29.792969 C 14.328125 -29.792969 13.902344 -29.839844 13.472656 -29.839844 C 13.046875 -29.792969 12.570312 -29.699219 12.144531 -29.699219 C 11.671875 -29.699219 11.195312 -29.699219 10.769531 -29.746094 C 10.296875 -29.746094 9.867188 -29.839844 9.394531 -29.890625 C 8.964844 -29.9375 8.492188 -29.9375 8.066406 -29.984375 C 7.589844 -29.984375 7.117188 -29.984375 6.6875 -29.984375 C 6.214844 -29.984375 5.789062 -30.125 5.3125 -30.125 C 4.839844 -30.125 4.460938 -29.984375 3.984375 -29.9375 C 3.984375 -29.558594 3.9375 -29.175781 3.9375 -28.75 C 3.9375 -28.324219 3.84375 -27.894531 3.796875 -27.46875 C 3.796875 -27.042969 3.890625 -26.617188 3.890625 -26.234375 C 3.890625 -25.808594 3.84375 -25.382812 3.84375 -24.953125 C 3.796875 -24.527344 3.796875 -24.101562 3.796875 -23.671875 C 3.796875 -23.246094 3.84375 -22.820312 3.84375 -22.441406 C 3.84375 -22.011719 3.84375 -21.585938 3.84375 -21.160156 C 3.84375 -20.730469 3.699219 -20.304688 3.699219 -19.878906 C 3.699219 -19.5 3.796875 -19.070312 3.796875 -18.644531 C 3.796875 -18.21875 3.746094 -17.789062 3.746094 -17.363281 C 3.746094 -16.984375 3.84375 -16.558594 3.796875 -16.128906 C 3.796875 -15.703125 3.652344 -15.277344 3.605469 -14.847656 C 3.605469 -14.46875 3.746094 -14.042969 3.699219 -13.617188 C 3.699219 -13.1875 3.652344 -12.761719 3.605469 -12.382812 C 3.605469 -11.957031 3.652344 -11.527344 3.652344 -11.101562 C 3.652344 -10.675781 3.652344 -10.246094 3.652344 -9.867188 C 3.652344 -9.441406 3.652344 -9.015625 3.652344 -8.585938 C 3.652344 -8.207031 3.605469 -7.78125 3.605469 -7.355469 C 3.558594 -6.925781 3.746094 -6.5 3.746094 -6.074219 C 3.746094 -5.691406 3.605469 -5.265625 3.605469 -4.839844 C 3.605469 -4.414062 3.699219 -3.984375 3.699219 -3.605469 C 3.699219 -3.179688 3.605469 -2.75 3.605469 -2.324219 C 3.605469 -1.992188 3.9375 -1.472656 4.363281 -1.042969 C 4.792969 -0.617188 5.3125 -0.332031 5.691406 -0.285156 C 6.074219 -0.285156 6.5 -0.238281 6.925781 -0.238281 C 7.304688 -0.191406 7.734375 -0.238281 8.160156 -0.191406 C 8.539062 -0.191406 8.964844 -0.046875 9.394531 0 C 9.773438 0 10.199219 -0.140625 10.628906 -0.140625 C 11.054688 -0.140625 11.433594 -0.09375 11.859375 -0.09375 C 12.289062 -0.09375 12.714844 0.046875 13.09375 0.09375 C 13.519531 0.09375 13.949219 -0.046875 14.328125 -0.046875 C 14.753906 0 15.179688 0.046875 15.609375 0.046875 C 15.988281 0.046875 16.414062 0.09375 16.84375 0.09375 C 17.222656 0.09375 17.648438 0.046875 18.074219 0.046875 C 18.503906 0.046875 18.882812 -0.046875 19.308594 -0.046875 C 19.734375 -0.046875 20.117188 0.046875 20.542969 0.046875 C 21.015625 0.046875 21.398438 -0.09375 21.632812 -0.332031 C 21.964844 -0.570312 22.0625 -0.902344 22.15625 -1.328125 C 22.203125 -1.660156 22.15625 -2.039062 22.011719 -2.417969 C 21.917969 -2.800781 21.824219 -3.179688 21.632812 -3.511719 C 21.398438 -3.890625 21.113281 -4.222656 20.875 -4.507812 C 20.589844 -4.792969 20.257812 -4.980469 19.734375 -5.027344 C 19.308594 -5.078125 18.835938 -5.027344 18.359375 -5.027344 C 17.886719 -5.027344 17.410156 -5.125 16.9375 -5.125 C 16.460938 -5.125 15.988281 -5.171875 15.515625 -5.171875 C 15.039062 -5.171875 14.613281 -5.078125 14.136719 -5.078125 C 13.664062 -5.078125 13.1875 -4.980469 12.714844 -5.027344 C 12.238281 -5.027344 11.8125 -5.027344 11.339844 -5.027344 C 10.863281 -5.027344 10.390625 -4.980469 9.964844 -4.980469 C 9.15625 -4.980469 9.203125 -4.695312 8.683594 -5.125 C 8.207031 -5.457031 8.492188 -5.503906 8.445312 -6.214844 C 8.445312 -6.546875 8.492188 -6.972656 8.492188 -7.402344 C 8.492188 -7.734375 8.445312 -8.160156 8.445312 -8.539062 C 8.445312 -8.917969 8.445312 -9.347656 8.492188 -9.679688 C 8.492188 -10.105469 8.445312 -10.53125 8.492188 -10.960938 C 8.539062 -11.339844 8.585938 -11.71875 8.730469 -12.191406 C 9.109375 -12.191406 9.535156 -12.144531 9.964844 -12.144531 C 10.390625 -12.097656 10.816406 -12.144531 11.195312 -12.144531 C 11.625 -12.144531 12.050781 -12.097656 12.476562 -12.097656 C 12.90625 -12.097656 13.285156 -12.097656 13.710938 -12.097656 C 14.136719 -12.097656 14.515625 -12.144531 14.945312 -12.191406 C 15.371094 -12.191406 15.75 -12.144531 16.179688 -12.144531 C 16.652344 -12.144531 17.03125 -12.289062 17.363281 -12.289062 C 17.839844 -12.335938 18.265625 -12.289062 18.550781 -12.429688 C 18.976562 -12.570312 19.261719 -12.855469 19.402344 -13.285156 C 19.5 -13.570312 19.355469 -13.996094 19.308594 -14.46875 C 19.308594 -14.800781 19.355469 -15.230469 19.261719 -15.65625 C 19.214844 -16.035156 19.121094 -16.460938 19.023438 -16.890625 C 18.597656 -16.9375 18.074219 -16.84375 17.648438 -16.84375 C 17.175781 -16.890625 16.746094 -16.984375 16.273438 -16.984375 C 15.796875 -16.984375 15.371094 -17.078125 14.898438 -17.078125 C 14.421875 -17.125 13.996094 -16.984375 13.519531 -17.03125 C 13.046875 -17.078125 12.621094 -17.269531 12.144531 -17.316406 C 11.8125 -17.316406 11.386719 -17.222656 11.007812 -17.222656 C 10.628906 -17.222656 10.246094 -17.269531 9.867188 -17.269531 C 9.203125 -17.269531 9.0625 -16.792969 8.683594 -17.222656 C 8.253906 -17.695312 8.730469 -17.839844 8.683594 -18.550781 C 8.683594 -18.929688 8.585938 -19.402344 8.585938 -19.832031 C 8.585938 -20.257812 8.683594 -20.730469 8.683594 -21.113281 C 8.683594 -21.492188 8.730469 -21.824219 8.777344 -22.25 C 8.824219 -22.582031 8.777344 -22.960938 8.824219 -23.390625 C 8.871094 -23.769531 9.015625 -24.101562 9.0625 -24.527344 C 9.535156 -24.527344 9.964844 -24.574219 10.390625 -24.574219 Z M 10.390625 -24.574219 "/></g></g></g><g fill="#000000" fill-opacity="1"><g transform="translate(111.974151, 164.008568)"><g><path d="M 3.746094 -23.152344 C 3.746094 -22.726562 3.796875 -22.296875 3.746094 -21.824219 C 3.746094 -21.398438 3.84375 -20.96875 3.84375 -20.496094 C 3.84375 -20.117188 3.746094 -19.640625 3.746094 -19.214844 C 3.746094 -18.789062 3.84375 -18.359375 3.84375 -17.886719 C 3.84375 -17.457031 3.796875 -17.03125 3.796875 -16.605469 C 3.796875 -16.128906 3.652344 -15.703125 3.652344 -15.277344 C 3.652344 -14.847656 3.699219 -14.375 3.699219 -13.949219 C 3.699219 -13.519531 3.699219 -13.09375 3.699219 -12.667969 C 3.699219 -12.238281 3.652344 -11.765625 3.652344 -11.339844 C 3.605469 -10.910156 3.746094 -10.484375 3.746094 -10.058594 C 3.746094 -9.582031 3.796875 -9.15625 3.796875 -8.777344 C 3.796875 -8.300781 3.746094 -7.875 3.746094 -7.449219 C 3.746094 -6.972656 3.746094 -6.546875 3.746094 -6.167969 C 3.796875 -5.644531 3.699219 -5.21875 3.699219 -4.839844 C 3.746094 -4.460938 3.796875 -3.984375 3.796875 -3.511719 C 3.796875 -3.035156 3.699219 -2.5625 3.699219 -2.136719 C 3.699219 -1.613281 3.699219 -1.136719 3.699219 -0.757812 C 3.652344 -0.332031 4.03125 0.046875 4.507812 0.046875 C 4.886719 0.046875 5.359375 0 5.835938 0 C 6.308594 0 6.738281 0 7.210938 0 C 7.6875 0 8.160156 -0.046875 8.585938 -0.046875 C 9.015625 0 9.441406 0 9.867188 0.046875 C 10.296875 0.046875 10.769531 0 11.195312 0 C 11.625 0 12.050781 0.09375 12.476562 0.09375 C 12.953125 0.09375 13.378906 0 13.804688 0 C 14.234375 0 14.660156 0 15.132812 0 C 15.5625 -0.046875 15.988281 0.046875 16.414062 0 C 16.84375 0 17.316406 -0.09375 17.742188 -0.140625 C 18.21875 -0.140625 18.691406 -0.046875 19.121094 -0.046875 C 19.59375 -0.09375 20.066406 -0.046875 20.496094 -0.140625 C 20.921875 -0.191406 21.347656 -0.378906 21.824219 -0.570312 C 22.109375 -0.664062 22.34375 -0.996094 22.394531 -1.421875 C 22.488281 -1.753906 22.441406 -2.183594 22.441406 -2.515625 C 22.441406 -2.800781 22.394531 -3.320312 22.394531 -3.746094 C 22.394531 -4.269531 22.296875 -4.746094 21.964844 -4.886719 C 21.585938 -5.078125 21.113281 -5.21875 20.589844 -5.265625 C 20.117188 -5.3125 19.640625 -5.359375 19.167969 -5.359375 C 18.738281 -5.359375 18.359375 -5.21875 17.980469 -5.21875 C 17.601562 -5.21875 17.222656 -5.3125 16.792969 -5.3125 C 16.414062 -5.265625 16.035156 -5.171875 15.65625 -5.171875 C 15.277344 -5.171875 14.898438 -5.125 14.46875 -5.125 C 14.089844 -5.125 13.710938 -5.21875 13.332031 -5.21875 C 12.953125 -5.21875 12.523438 -5.21875 12.144531 -5.21875 C 11.765625 -5.21875 11.339844 -5.265625 10.960938 -5.265625 C 10.53125 -5.265625 10.152344 -5.171875 9.820312 -5.21875 C 9.109375 -5.21875 9.0625 -4.792969 8.730469 -5.265625 C 8.300781 -5.882812 8.632812 -5.835938 8.632812 -6.6875 C 8.683594 -7.117188 8.777344 -7.636719 8.824219 -8.160156 C 8.824219 -8.632812 8.824219 -9.15625 8.824219 -9.628906 C 8.824219 -10.058594 8.871094 -10.484375 8.917969 -10.960938 C 8.917969 -11.386719 8.824219 -11.8125 8.824219 -12.238281 C 8.824219 -12.714844 8.871094 -13.140625 8.917969 -13.570312 C 8.917969 -13.996094 8.871094 -14.46875 8.871094 -14.898438 C 8.871094 -15.324219 9.015625 -15.75 9.0625 -16.226562 C 9.0625 -16.652344 8.871094 -17.078125 8.917969 -17.507812 C 8.917969 -17.980469 9.015625 -18.40625 9.015625 -18.835938 C 9.015625 -19.261719 9.0625 -19.734375 9.0625 -20.164062 C 9.0625 -20.589844 9.015625 -21.015625 9.015625 -21.492188 C 9.015625 -21.917969 9.0625 -22.34375 9.0625 -22.773438 C 9.0625 -23.246094 9.109375 -23.671875 9.109375 -24.101562 C 9.109375 -24.527344 9.0625 -25.003906 9.0625 -25.429688 C 9.0625 -25.808594 9.15625 -26.1875 9.15625 -26.566406 C 9.15625 -26.949219 9.15625 -27.328125 9.15625 -27.707031 C 9.203125 -28.085938 9.0625 -28.464844 9.0625 -28.84375 C 9.015625 -29.273438 8.777344 -29.460938 8.398438 -29.605469 C 8.066406 -29.746094 7.6875 -29.9375 7.304688 -29.9375 C 6.878906 -29.984375 6.453125 -29.890625 6.214844 -29.839844 C 5.835938 -29.792969 5.21875 -29.890625 4.695312 -29.699219 C 4.269531 -29.605469 3.9375 -29.367188 3.890625 -28.703125 C 3.84375 -28.277344 3.796875 -27.800781 3.84375 -27.28125 C 3.84375 -26.804688 3.84375 -26.332031 3.84375 -25.855469 C 3.84375 -25.382812 3.796875 -24.859375 3.796875 -24.433594 C 3.796875 -24.101562 3.796875 -23.671875 3.746094 -23.152344 Z M 3.746094 -23.152344 "/></g></g></g><g fill="#000000" fill-opacity="1"><g transform="translate(142.192134, 164.008568)"><g><path d="M 10.390625 -24.574219 C 10.863281 -24.574219 11.292969 -24.621094 11.765625 -24.621094 C 12.191406 -24.621094 12.621094 -24.527344 13.09375 -24.527344 C 13.519531 -24.527344 13.949219 -24.574219 14.421875 -24.574219 C 14.847656 -24.574219 15.324219 -24.527344 15.75 -24.527344 C 16.179688 -24.527344 16.652344 -24.527344 17.078125 -24.527344 C 17.507812 -24.527344 17.980469 -24.621094 18.40625 -24.621094 C 18.835938 -24.621094 19.308594 -24.621094 19.734375 -24.621094 C 20.304688 -24.621094 20.78125 -24.574219 21.160156 -24.671875 C 21.679688 -24.765625 21.964844 -24.953125 22.203125 -25.429688 C 22.394531 -25.761719 22.535156 -26.1875 22.582031 -26.804688 C 22.582031 -27.28125 22.628906 -27.753906 22.628906 -28.132812 C 22.628906 -28.65625 22.582031 -29.082031 22.296875 -29.414062 C 22.011719 -29.605469 21.679688 -29.890625 21.066406 -29.984375 C 20.683594 -30.03125 20.210938 -29.9375 19.6875 -29.9375 C 19.261719 -29.9375 18.835938 -29.984375 18.457031 -29.9375 C 18.027344 -29.9375 17.601562 -30.078125 17.222656 -30.03125 C 16.792969 -30.03125 16.367188 -29.9375 15.941406 -29.9375 C 15.5625 -29.890625 15.132812 -29.839844 14.707031 -29.792969 C 14.328125 -29.792969 13.902344 -29.839844 13.472656 -29.839844 C 13.046875 -29.792969 12.570312 -29.699219 12.144531 -29.699219 C 11.671875 -29.699219 11.195312 -29.699219 10.769531 -29.746094 C 10.296875 -29.746094 9.867188 -29.839844 9.394531 -29.890625 C 8.964844 -29.9375 8.492188 -29.9375 8.066406 -29.984375 C 7.589844 -29.984375 7.117188 -29.984375 6.6875 -29.984375 C 6.214844 -29.984375 5.789062 -30.125 5.3125 -30.125 C 4.839844 -30.125 4.460938 -29.984375 3.984375 -29.9375 C 3.984375 -29.558594 3.9375 -29.175781 3.9375 -28.75 C 3.9375 -28.324219 3.84375 -27.894531 3.796875 -27.46875 C 3.796875 -27.042969 3.890625 -26.617188 3.890625 -26.234375 C 3.890625 -25.808594 3.84375 -25.382812 3.84375 -24.953125 C 3.796875 -24.527344 3.796875 -24.101562 3.796875 -23.671875 C 3.796875 -23.246094 3.84375 -22.820312 3.84375 -22.441406 C 3.84375 -22.011719 3.84375 -21.585938 3.84375 -21.160156 C 3.84375 -20.730469 3.699219 -20.304688 3.699219 -19.878906 C 3.699219 -19.5 3.796875 -19.070312 3.796875 -18.644531 C 3.796875 -18.21875 3.746094 -17.789062 3.746094 -17.363281 C 3.746094 -16.984375 3.84375 -16.558594 3.796875 -16.128906 C 3.796875 -15.703125 3.652344 -15.277344 3.605469 -14.847656 C 3.605469 -14.46875 3.746094 -14.042969 3.699219 -13.617188 C 3.699219 -13.1875 3.652344 -12.761719 3.605469 -12.382812 C 3.605469 -11.957031 3.652344 -11.527344 3.652344 -11.101562 C 3.652344 -10.675781 3.652344 -10.246094 3.652344 -9.867188 C 3.652344 -9.441406 3.652344 -9.015625 3.652344 -8.585938 C 3.652344 -8.207031 3.605469 -7.78125 3.605469 -7.355469 C 3.558594 -6.925781 3.746094 -6.5 3.746094 -6.074219 C 3.746094 -5.691406 3.605469 -5.265625 3.605469 -4.839844 C 3.605469 -4.414062 3.699219 -3.984375 3.699219 -3.605469 C 3.699219 -3.179688 3.605469 -2.75 3.605469 -2.324219 C 3.605469 -1.992188 3.9375 -1.472656 4.363281 -1.042969 C 4.792969 -0.617188 5.3125 -0.332031 5.691406 -0.285156 C 6.074219 -0.285156 6.5 -0.238281 6.925781 -0.238281 C 7.304688 -0.191406 7.734375 -0.238281 8.160156 -0.191406 C 8.539062 -0.191406 8.964844 -0.046875 9.394531 0 C 9.773438 0 10.199219 -0.140625 10.628906 -0.140625 C 11.054688 -0.140625 11.433594 -0.09375 11.859375 -0.09375 C 12.289062 -0.09375 12.714844 0.046875 13.09375 0.09375 C 13.519531 0.09375 13.949219 -0.046875 14.328125 -0.046875 C 14.753906 0 15.179688 0.046875 15.609375 0.046875 C 15.988281 0.046875 16.414062 0.09375 16.84375 0.09375 C 17.222656 0.09375 17.648438 0.046875 18.074219 0.046875 C 18.503906 0.046875 18.882812 -0.046875 19.308594 -0.046875 C 19.734375 -0.046875 20.117188 0.046875 20.542969 0.046875 C 21.015625 0.046875 21.398438 -0.09375 21.632812 -0.332031 C 21.964844 -0.570312 22.0625 -0.902344 22.15625 -1.328125 C 22.203125 -1.660156 22.15625 -2.039062 22.011719 -2.417969 C 21.917969 -2.800781 21.824219 -3.179688 21.632812 -3.511719 C 21.398438 -3.890625 21.113281 -4.222656 20.875 -4.507812 C 20.589844 -4.792969 20.257812 -4.980469 19.734375 -5.027344 C 19.308594 -5.078125 18.835938 -5.027344 18.359375 -5.027344 C 17.886719 -5.027344 17.410156 -5.125 16.9375 -5.125 C 16.460938 -5.125 15.988281 -5.171875 15.515625 -5.171875 C 15.039062 -5.171875 14.613281 -5.078125 14.136719 -5.078125 C 13.664062 -5.078125 13.1875 -4.980469 12.714844 -5.027344 C 12.238281 -5.027344 11.8125 -5.027344 11.339844 -5.027344 C 10.863281 -5.027344 10.390625 -4.980469 9.964844 -4.980469 C 9.15625 -4.980469 9.203125 -4.695312 8.683594 -5.125 C 8.207031 -5.457031 8.492188 -5.503906 8.445312 -6.214844 C 8.445312 -6.546875 8.492188 -6.972656 8.492188 -7.402344 C 8.492188 -7.734375 8.445312 -8.160156 8.445312 -8.539062 C 8.445312 -8.917969 8.445312 -9.347656 8.492188 -9.679688 C 8.492188 -10.105469 8.445312 -10.53125 8.492188 -10.960938 C 8.539062 -11.339844 8.585938 -11.71875 8.730469 -12.191406 C 9.109375 -12.191406 9.535156 -12.144531 9.964844 -12.144531 C 10.390625 -12.097656 10.816406 -12.144531 11.195312 -12.144531 C 11.625 -12.144531 12.050781 -12.097656 12.476562 -12.097656 C 12.90625 -12.097656 13.285156 -12.097656 13.710938 -12.097656 C 14.136719 -12.097656 14.515625 -12.144531 14.945312 -12.191406 C 15.371094 -12.191406 15.75 -12.144531 16.179688 -12.144531 C 16.652344 -12.144531 17.03125 -12.289062 17.363281 -12.289062 C 17.839844 -12.335938 18.265625 -12.289062 18.550781 -12.429688 C 18.976562 -12.570312 19.261719 -12.855469 19.402344 -13.285156 C 19.5 -13.570312 19.355469 -13.996094 19.308594 -14.46875 C 19.308594 -14.800781 19.355469 -15.230469 19.261719 -15.65625 C 19.214844 -16.035156 19.121094 -16.460938 19.023438 -16.890625 C 18.597656 -16.9375 18.074219 -16.84375 17.648438 -16.84375 C 17.175781 -16.890625 16.746094 -16.984375 16.273438 -16.984375 C 15.796875 -16.984375 15.371094 -17.078125 14.898438 -17.078125 C 14.421875 -17.125 13.996094 -16.984375 13.519531 -17.03125 C 13.046875 -17.078125 12.621094 -17.269531 12.144531 -17.316406 C 11.8125 -17.316406 11.386719 -17.222656 11.007812 -17.222656 C 10.628906 -17.222656 10.246094 -17.269531 9.867188 -17.269531 C 9.203125 -17.269531 9.0625 -16.792969 8.683594 -17.222656 C 8.253906 -17.695312 8.730469 -17.839844 8.683594 -18.550781 C 8.683594 -18.929688 8.585938 -19.402344 8.585938 -19.832031 C 8.585938 -20.257812 8.683594 -20.730469 8.683594 -21.113281 C 8.683594 -21.492188 8.730469 -21.824219 8.777344 -22.25 C 8.824219 -22.582031 8.777344 -22.960938 8.824219 -23.390625 C 8.871094 -23.769531 9.015625 -24.101562 9.0625 -24.527344 C 9.535156 -24.527344 9.964844 -24.574219 10.390625 -24.574219 Z M 10.390625 -24.574219 "/></g></g></g><g fill="#000000" fill-opacity="1"><g transform="translate(173.595973, 164.008568)"><g><path d="M 12.714844 -10.296875 C 12.570312 -10.628906 12.476562 -11.101562 12.335938 -11.527344 C 12.191406 -11.90625 12.003906 -12.335938 11.859375 -12.761719 C 11.71875 -13.1875 11.527344 -13.570312 11.386719 -13.996094 C 11.242188 -14.421875 11.195312 -14.898438 11.054688 -15.277344 C 10.910156 -15.75 10.816406 -16.179688 10.675781 -16.558594 C 10.53125 -17.03125 10.34375 -17.410156 10.199219 -17.742188 C 10.105469 -18.121094 9.964844 -18.550781 9.867188 -18.929688 C 9.726562 -19.308594 9.679688 -19.734375 9.535156 -20.164062 C 9.394531 -20.542969 9.25 -20.921875 9.109375 -21.300781 C 9.015625 -21.730469 8.824219 -22.109375 8.683594 -22.488281 C 8.539062 -22.867188 8.351562 -23.246094 8.253906 -23.625 C 8.113281 -24.054688 8.019531 -24.433594 7.921875 -24.859375 C 7.78125 -25.238281 7.636719 -25.617188 7.496094 -26 C 7.355469 -26.425781 7.257812 -26.804688 7.117188 -27.183594 C 6.972656 -27.613281 6.785156 -27.945312 6.640625 -28.324219 C 6.5 -28.75 6.40625 -29.128906 6.261719 -29.507812 C 6.074219 -29.9375 5.644531 -29.9375 5.078125 -29.9375 C 4.601562 -29.9375 4.078125 -30.03125 3.699219 -30.078125 C 3.035156 -30.125 2.46875 -30.125 2.085938 -29.9375 C 1.613281 -29.746094 1.28125 -29.320312 1.328125 -28.609375 C 1.328125 -28.417969 1.375 -27.992188 1.519531 -27.515625 C 1.613281 -27.136719 1.851562 -26.804688 1.945312 -26.425781 C 2.136719 -25.949219 2.277344 -25.523438 2.324219 -25.335938 C 2.46875 -24.953125 2.65625 -24.574219 2.800781 -24.195312 C 2.941406 -23.769531 3.035156 -23.390625 3.179688 -22.960938 C 3.320312 -22.582031 3.464844 -22.203125 3.605469 -21.777344 C 3.746094 -21.398438 3.746094 -20.96875 3.890625 -20.589844 C 4.03125 -20.164062 4.222656 -19.785156 4.363281 -19.402344 C 4.507812 -19.023438 4.554688 -18.597656 4.695312 -18.171875 C 4.839844 -17.789062 5.125 -17.457031 5.265625 -17.03125 C 5.410156 -16.652344 5.550781 -16.273438 5.691406 -15.847656 C 5.835938 -15.464844 5.835938 -15.039062 5.976562 -14.660156 C 6.121094 -14.234375 6.355469 -13.902344 6.5 -13.472656 C 6.59375 -13.09375 6.785156 -12.714844 6.925781 -12.289062 C 7.070312 -11.90625 7.164062 -11.480469 7.304688 -11.101562 C 7.449219 -10.722656 7.542969 -10.296875 7.6875 -9.914062 C 7.828125 -9.535156 8.066406 -9.15625 8.207031 -8.730469 C 8.351562 -8.351562 8.351562 -7.921875 8.492188 -7.542969 C 8.632812 -7.117188 8.824219 -6.738281 8.964844 -6.355469 C 9.109375 -5.976562 9.203125 -5.550781 9.347656 -5.171875 C 9.488281 -4.746094 9.628906 -4.363281 9.773438 -3.984375 C 9.914062 -3.605469 10.152344 -3.226562 10.296875 -2.800781 C 10.4375 -2.417969 10.53125 -2.039062 10.675781 -1.613281 C 10.863281 -1.136719 11.054688 -0.757812 11.339844 -0.523438 C 11.625 -0.238281 12.050781 -0.191406 12.570312 -0.140625 C 12.953125 -0.09375 13.332031 0 13.902344 0 C 14.421875 0 14.800781 -0.046875 15.132812 -0.140625 C 15.65625 -0.238281 15.988281 -0.378906 16.273438 -0.710938 C 16.460938 -0.996094 16.652344 -1.421875 16.792969 -1.898438 C 16.9375 -2.277344 17.078125 -2.703125 17.222656 -3.082031 C 17.316406 -3.511719 17.410156 -3.890625 17.554688 -4.316406 C 17.695312 -4.695312 17.886719 -5.078125 18.027344 -5.503906 C 18.171875 -5.882812 18.121094 -6.355469 18.265625 -6.738281 C 18.40625 -7.164062 18.597656 -7.542969 18.691406 -7.96875 C 18.835938 -8.351562 18.929688 -8.777344 19.070312 -9.15625 C 19.214844 -9.582031 19.402344 -9.964844 19.546875 -10.390625 C 19.6875 -10.769531 19.734375 -11.195312 19.878906 -11.574219 C 20.019531 -12.003906 20.164062 -12.429688 20.257812 -12.808594 C 20.398438 -13.238281 20.589844 -13.617188 20.730469 -13.996094 C 20.875 -14.421875 20.96875 -14.847656 21.066406 -15.230469 C 21.207031 -15.65625 21.347656 -16.035156 21.492188 -16.460938 C 21.632812 -16.84375 21.824219 -17.222656 21.964844 -17.648438 C 22.109375 -18.027344 22.15625 -18.457031 22.296875 -18.835938 C 22.441406 -19.261719 22.488281 -19.6875 22.628906 -20.066406 C 22.773438 -20.496094 22.960938 -20.875 23.058594 -21.253906 C 23.199219 -21.632812 23.339844 -22.0625 23.484375 -22.441406 C 23.625 -22.867188 23.722656 -23.246094 23.816406 -23.671875 C 23.957031 -24.054688 24.007812 -24.480469 24.148438 -24.90625 C 24.289062 -25.285156 24.480469 -25.667969 24.574219 -26.09375 C 24.71875 -26.472656 24.90625 -26.851562 25.050781 -27.28125 C 25.238281 -27.894531 25.335938 -28.371094 25.382812 -28.75 C 25.523438 -29.558594 25.285156 -29.890625 24.90625 -30.03125 C 24.527344 -30.125 24.007812 -29.9375 23.4375 -29.9375 C 22.867188 -29.9375 22.441406 -30.03125 22.0625 -29.984375 C 21.632812 -29.890625 21.300781 -29.699219 20.96875 -29.320312 C 20.730469 -29.082031 20.449219 -28.75 20.210938 -28.226562 C 20.066406 -27.894531 19.925781 -27.46875 19.734375 -26.949219 C 19.6875 -26.757812 19.5 -26.234375 19.355469 -25.761719 C 19.167969 -25.238281 18.976562 -24.765625 18.929688 -24.527344 C 18.789062 -24.148438 18.644531 -23.722656 18.550781 -23.339844 C 18.40625 -22.914062 18.359375 -22.488281 18.21875 -22.0625 C 18.074219 -21.679688 17.980469 -21.253906 17.839844 -20.875 C 17.695312 -20.449219 17.554688 -20.066406 17.410156 -19.640625 C 17.269531 -19.261719 17.078125 -18.882812 16.9375 -18.457031 C 16.792969 -18.074219 16.652344 -17.648438 16.511719 -17.269531 C 16.367188 -16.84375 16.226562 -16.460938 16.082031 -16.082031 C 15.941406 -15.65625 15.894531 -15.230469 15.75 -14.847656 C 15.65625 -14.566406 15.417969 -14.183594 15.277344 -13.710938 C 15.132812 -13.332031 14.992188 -12.953125 14.847656 -12.523438 C 14.753906 -12.144531 14.613281 -11.71875 14.46875 -11.339844 C 14.328125 -10.910156 14.28125 -10.484375 14.136719 -10.152344 C 13.902344 -9.535156 13.570312 -9.109375 13.425781 -9.109375 C 13.285156 -9.15625 13 -9.628906 12.714844 -10.296875 Z M 12.714844 -10.296875 "/></g></g></g><g fill="#000000" fill-opacity="1"><g transform="translate(207.039515, 164.008568)"><g><path d="M 9.535156 -5.359375 C 9.964844 -5.3125 10.390625 -5.21875 10.816406 -5.21875 C 11.292969 -5.21875 11.71875 -5.21875 12.144531 -5.21875 C 12.570312 -5.21875 13 -5.265625 13.425781 -5.265625 C 13.851562 -5.265625 14.28125 -5.265625 14.707031 -5.265625 C 15.132812 -5.3125 15.609375 -5.410156 16.082031 -5.410156 C 16.605469 -5.359375 17.078125 -5.3125 17.507812 -5.3125 C 18.3125 -5.265625 18.3125 -5.550781 18.929688 -5.265625 C 19.453125 -5.027344 19.121094 -4.792969 19.5 -4.222656 C 19.6875 -3.9375 19.972656 -3.652344 20.164062 -3.273438 C 20.351562 -2.941406 20.496094 -2.609375 20.636719 -2.230469 C 20.828125 -1.898438 21.015625 -1.519531 21.066406 -1.1875 C 21.207031 -0.664062 21.445312 -0.425781 21.679688 -0.238281 C 21.964844 -0.046875 22.296875 -0.046875 22.773438 -0.046875 C 23.105469 -0.046875 23.53125 0 23.957031 0 C 24.433594 0 24.8125 -0.09375 25.144531 -0.140625 C 25.667969 -0.238281 26 -0.378906 26.140625 -0.664062 C 26.28125 -0.949219 26.234375 -1.328125 26.046875 -1.851562 C 25.902344 -2.183594 25.761719 -2.609375 25.570312 -3.035156 C 25.429688 -3.414062 25.382812 -3.890625 25.191406 -4.269531 C 25.050781 -4.695312 24.765625 -5.027344 24.621094 -5.457031 C 24.433594 -5.882812 24.289062 -6.261719 24.101562 -6.6875 C 23.957031 -7.070312 23.910156 -7.542969 23.769531 -7.921875 C 23.578125 -8.351562 23.339844 -8.730469 23.199219 -9.109375 C 23.058594 -9.535156 22.820312 -9.914062 22.675781 -10.296875 C 22.535156 -10.675781 22.441406 -11.101562 22.296875 -11.480469 C 22.15625 -11.859375 21.917969 -12.238281 21.777344 -12.621094 C 21.632812 -13.046875 21.445312 -13.425781 21.300781 -13.804688 C 21.160156 -14.183594 21.066406 -14.613281 20.921875 -14.992188 C 20.78125 -15.417969 20.636719 -15.796875 20.496094 -16.179688 C 20.304688 -16.558594 20.164062 -16.9375 19.972656 -17.363281 C 19.832031 -17.742188 19.785156 -18.171875 19.640625 -18.550781 C 19.5 -18.976562 19.214844 -19.308594 19.070312 -19.6875 C 18.929688 -20.066406 18.835938 -20.496094 18.691406 -20.875 C 18.503906 -21.300781 18.457031 -21.679688 18.3125 -22.109375 C 18.171875 -22.488281 17.933594 -22.867188 17.742188 -23.246094 C 17.601562 -23.625 17.507812 -24.054688 17.363281 -24.433594 C 17.175781 -24.8125 17.03125 -25.191406 16.890625 -25.617188 C 16.746094 -26 16.511719 -26.378906 16.367188 -26.757812 C 16.226562 -27.136719 16.035156 -27.515625 15.894531 -27.894531 C 15.65625 -28.511719 15.609375 -28.988281 15.417969 -29.273438 C 15.039062 -29.839844 14.660156 -29.9375 14.183594 -29.984375 C 13.804688 -30.03125 13.378906 -30.03125 12.761719 -29.984375 C 12.335938 -29.984375 12.097656 -29.9375 11.71875 -29.652344 C 11.527344 -29.460938 11.195312 -29.273438 10.910156 -28.84375 C 10.769531 -28.558594 10.722656 -28.179688 10.53125 -27.753906 C 10.390625 -27.421875 10.199219 -27.089844 10.058594 -26.710938 C 9.914062 -26.332031 9.820312 -25.902344 9.679688 -25.476562 C 9.535156 -25.097656 9.394531 -24.71875 9.25 -24.289062 C 9.109375 -23.910156 8.964844 -23.484375 8.824219 -23.105469 C 8.683594 -22.675781 8.492188 -22.296875 8.351562 -21.871094 C 8.207031 -21.492188 8.207031 -21.015625 8.066406 -20.636719 C 7.921875 -20.210938 7.6875 -19.878906 7.542969 -19.453125 C 7.402344 -19.070312 7.355469 -18.644531 7.210938 -18.21875 C 7.070312 -17.789062 6.832031 -17.457031 6.6875 -17.03125 C 6.59375 -16.652344 6.453125 -16.226562 6.308594 -15.796875 C 6.167969 -15.417969 6.074219 -14.992188 5.929688 -14.613281 C 5.789062 -14.183594 5.644531 -13.804688 5.503906 -13.378906 C 5.359375 -13 5.265625 -12.570312 5.125 -12.144531 C 4.980469 -11.765625 4.695312 -11.386719 4.554688 -11.007812 C 4.414062 -10.628906 4.460938 -10.152344 4.316406 -9.726562 C 4.175781 -9.347656 4.03125 -8.964844 3.890625 -8.539062 C 3.746094 -8.160156 3.464844 -7.78125 3.320312 -7.402344 C 3.179688 -6.972656 3.179688 -6.546875 3.035156 -6.167969 C 2.894531 -5.742188 2.703125 -5.359375 2.5625 -4.980469 C 2.46875 -4.746094 2.277344 -4.222656 2.039062 -3.652344 C 1.898438 -3.226562 1.753906 -2.75 1.566406 -2.324219 C 1.375 -1.707031 1.28125 -1.1875 1.28125 -0.949219 C 1.1875 -0.140625 1.472656 0.046875 2.085938 0.046875 C 2.515625 0.09375 3.035156 0 3.652344 0.046875 C 4.078125 0.09375 4.648438 0.09375 5.171875 0 C 5.691406 -0.09375 6.074219 -0.285156 6.355469 -0.757812 C 6.546875 -1.136719 6.785156 -1.472656 6.925781 -1.851562 C 7.070312 -2.230469 7.210938 -2.609375 7.355469 -2.988281 C 7.496094 -3.367188 7.589844 -3.746094 7.78125 -4.128906 C 7.921875 -4.507812 8.019531 -4.933594 8.207031 -5.3125 C 8.632812 -5.3125 9.109375 -5.359375 9.535156 -5.359375 Z M 10.152344 -11.671875 C 10.296875 -12.097656 10.4375 -12.476562 10.578125 -12.855469 C 10.722656 -13.285156 10.863281 -13.664062 11.007812 -14.089844 C 11.148438 -14.46875 11.292969 -14.847656 11.480469 -15.230469 C 11.625 -15.65625 11.71875 -16.035156 11.90625 -16.414062 C 12.050781 -16.84375 12.335938 -17.175781 12.476562 -17.554688 C 12.621094 -17.933594 12.621094 -18.40625 12.761719 -18.835938 C 12.90625 -19.214844 13.140625 -19.640625 13.285156 -20.066406 C 13.519531 -19.640625 13.664062 -19.167969 13.851562 -18.835938 C 14.089844 -18.40625 14.375 -18.074219 14.566406 -17.695312 C 14.800781 -17.316406 14.945312 -16.890625 15.085938 -16.511719 C 15.277344 -16.128906 15.417969 -15.703125 15.5625 -15.324219 C 15.75 -14.898438 15.941406 -14.515625 16.082031 -14.089844 C 16.273438 -13.710938 16.511719 -13.332031 16.652344 -12.953125 C 16.84375 -12.523438 16.890625 -12.097656 17.03125 -11.671875 C 17.222656 -11.292969 17.410156 -10.910156 17.601562 -10.484375 C 17.125 -10.484375 16.746094 -10.4375 16.320312 -10.4375 C 15.847656 -10.4375 15.417969 -10.4375 14.992188 -10.4375 C 14.515625 -10.4375 14.089844 -10.53125 13.664062 -10.53125 C 13.238281 -10.53125 12.808594 -10.484375 12.335938 -10.484375 C 11.90625 -10.484375 11.480469 -10.484375 11.007812 -10.484375 C 10.578125 -10.484375 10.105469 -10.4375 9.628906 -10.4375 C 9.773438 -10.863281 10.011719 -11.292969 10.152344 -11.671875 Z M 10.152344 -11.671875 "/></g></g></g><g fill="#000000" fill-opacity="1"><g transform="translate(241.194572, 164.008568)"><g><path d="M 14.515625 -24.71875 C 14.992188 -24.71875 15.464844 -24.671875 15.847656 -24.671875 C 16.320312 -24.671875 16.746094 -24.671875 17.175781 -24.671875 C 17.648438 -24.671875 18.074219 -24.671875 18.503906 -24.671875 C 19.070312 -24.671875 19.5 -24.8125 19.832031 -25.003906 C 20.210938 -25.238281 20.496094 -25.570312 20.589844 -26.09375 C 20.683594 -26.472656 20.730469 -26.949219 20.730469 -27.46875 C 20.730469 -27.945312 20.636719 -28.371094 20.542969 -28.703125 C 20.449219 -29.128906 20.210938 -29.507812 19.832031 -29.652344 C 19.546875 -29.792969 19.121094 -29.839844 18.597656 -29.839844 C 18.171875 -29.839844 17.742188 -29.839844 17.316406 -29.890625 C 16.890625 -29.890625 16.414062 -29.839844 15.988281 -29.839844 C 15.5625 -29.839844 15.132812 -29.890625 14.707031 -29.890625 C 14.28125 -29.890625 13.851562 -29.839844 13.425781 -29.839844 C 13 -29.839844 12.570312 -29.9375 12.097656 -29.9375 C 11.671875 -29.9375 11.242188 -29.839844 10.816406 -29.839844 C 10.390625 -29.839844 9.964844 -29.890625 9.535156 -29.890625 C 9.109375 -29.890625 8.683594 -29.890625 8.207031 -29.890625 C 7.78125 -29.9375 7.355469 -29.984375 6.925781 -30.03125 C 6.5 -30.03125 6.074219 -29.984375 5.644531 -29.984375 C 5.21875 -29.984375 4.792969 -30.03125 4.316406 -30.03125 C 3.890625 -30.03125 3.464844 -30.03125 3.035156 -30.03125 C 2.609375 -30.078125 2.085938 -30.03125 1.804688 -29.792969 C 1.519531 -29.507812 1.28125 -29.175781 1.1875 -28.84375 C 1.042969 -28.417969 1.136719 -27.992188 1.136719 -27.660156 C 1.1875 -27.230469 0.996094 -26.757812 1.042969 -26.332031 C 1.089844 -25.902344 1.28125 -25.523438 1.707031 -25.191406 C 1.992188 -24.953125 2.371094 -24.765625 2.847656 -24.765625 C 3.226562 -24.71875 3.699219 -24.765625 4.078125 -24.71875 C 4.554688 -24.71875 5.027344 -24.71875 5.457031 -24.671875 C 5.929688 -24.621094 6.40625 -24.621094 6.785156 -24.574219 C 7.636719 -24.527344 7.734375 -24.953125 8.160156 -24.433594 C 8.585938 -23.910156 8.160156 -23.863281 8.160156 -23.007812 C 8.160156 -22.582031 8.113281 -22.109375 8.160156 -21.585938 C 8.160156 -21.113281 8.253906 -20.636719 8.253906 -20.164062 C 8.253906 -19.785156 8.113281 -19.355469 8.113281 -18.882812 C 8.113281 -18.457031 8.160156 -18.027344 8.160156 -17.601562 C 8.160156 -17.175781 8.113281 -16.746094 8.113281 -16.320312 C 8.113281 -15.894531 8.066406 -15.464844 8.066406 -15.039062 C 8.066406 -14.613281 8.113281 -14.136719 8.113281 -13.710938 C 8.113281 -13.285156 8.113281 -12.855469 8.113281 -12.429688 C 8.113281 -12.003906 8.160156 -11.574219 8.160156 -11.148438 C 8.160156 -10.722656 8.207031 -10.246094 8.207031 -9.820312 C 8.207031 -9.394531 8.113281 -8.964844 8.160156 -8.539062 C 8.160156 -8.113281 8.207031 -7.6875 8.207031 -7.257812 C 8.207031 -6.832031 8.253906 -6.40625 8.253906 -5.976562 C 8.253906 -5.550781 8.160156 -5.125 8.160156 -4.695312 C 8.160156 -4.269531 8.160156 -3.84375 8.207031 -3.414062 C 8.207031 -2.988281 8.253906 -2.5625 8.253906 -2.136719 C 8.253906 -1.472656 8.300781 -1.042969 8.445312 -0.710938 C 8.632812 -0.140625 8.964844 0.09375 9.488281 0.140625 C 9.914062 0.140625 10.390625 0.09375 10.960938 0.09375 C 11.574219 0.046875 12.003906 -0.046875 12.335938 -0.140625 C 12.953125 -0.238281 13.140625 -0.472656 13.285156 -0.902344 C 13.425781 -1.234375 13.472656 -1.660156 13.472656 -2.230469 C 13.472656 -2.65625 13.425781 -3.132812 13.425781 -3.605469 C 13.425781 -4.03125 13.472656 -4.507812 13.425781 -4.980469 C 13.425781 -5.410156 13.378906 -5.882812 13.378906 -6.355469 C 13.378906 -6.785156 13.425781 -7.257812 13.425781 -7.6875 C 13.425781 -8.160156 13.332031 -8.632812 13.332031 -9.0625 C 13.332031 -9.535156 13.519531 -9.964844 13.519531 -10.4375 C 13.519531 -10.863281 13.519531 -11.339844 13.472656 -11.765625 C 13.472656 -12.238281 13.425781 -12.714844 13.425781 -13.140625 C 13.425781 -13.570312 13.472656 -13.996094 13.472656 -14.421875 C 13.472656 -14.847656 13.332031 -15.277344 13.332031 -15.703125 C 13.332031 -16.128906 13.285156 -16.558594 13.285156 -16.984375 C 13.285156 -17.410156 13.238281 -17.839844 13.238281 -18.265625 C 13.238281 -18.691406 13.238281 -19.121094 13.238281 -19.546875 C 13.238281 -19.972656 13.1875 -20.398438 13.1875 -20.828125 C 13.1875 -21.253906 13.285156 -21.679688 13.285156 -22.15625 C 13.285156 -22.535156 13.238281 -22.960938 13.238281 -23.4375 C 13.1875 -23.863281 13.285156 -24.195312 13.238281 -24.671875 C 13.710938 -24.671875 14.089844 -24.71875 14.515625 -24.71875 Z M 14.515625 -24.71875 "/></g></g></g><g fill="#000000" fill-opacity="1"><g transform="translate(269.657469, 164.008568)"><g><path d="M 10.390625 -24.574219 C 10.863281 -24.574219 11.292969 -24.621094 11.765625 -24.621094 C 12.191406 -24.621094 12.621094 -24.527344 13.09375 -24.527344 C 13.519531 -24.527344 13.949219 -24.574219 14.421875 -24.574219 C 14.847656 -24.574219 15.324219 -24.527344 15.75 -24.527344 C 16.179688 -24.527344 16.652344 -24.527344 17.078125 -24.527344 C 17.507812 -24.527344 17.980469 -24.621094 18.40625 -24.621094 C 18.835938 -24.621094 19.308594 -24.621094 19.734375 -24.621094 C 20.304688 -24.621094 20.78125 -24.574219 21.160156 -24.671875 C 21.679688 -24.765625 21.964844 -24.953125 22.203125 -25.429688 C 22.394531 -25.761719 22.535156 -26.1875 22.582031 -26.804688 C 22.582031 -27.28125 22.628906 -27.753906 22.628906 -28.132812 C 22.628906 -28.65625 22.582031 -29.082031 22.296875 -29.414062 C 22.011719 -29.605469 21.679688 -29.890625 21.066406 -29.984375 C 20.683594 -30.03125 20.210938 -29.9375 19.6875 -29.9375 C 19.261719 -29.9375 18.835938 -29.984375 18.457031 -29.9375 C 18.027344 -29.9375 17.601562 -30.078125 17.222656 -30.03125 C 16.792969 -30.03125 16.367188 -29.9375 15.941406 -29.9375 C 15.5625 -29.890625 15.132812 -29.839844 14.707031 -29.792969 C 14.328125 -29.792969 13.902344 -29.839844 13.472656 -29.839844 C 13.046875 -29.792969 12.570312 -29.699219 12.144531 -29.699219 C 11.671875 -29.699219 11.195312 -29.699219 10.769531 -29.746094 C 10.296875 -29.746094 9.867188 -29.839844 9.394531 -29.890625 C 8.964844 -29.9375 8.492188 -29.9375 8.066406 -29.984375 C 7.589844 -29.984375 7.117188 -29.984375 6.6875 -29.984375 C 6.214844 -29.984375 5.789062 -30.125 5.3125 -30.125 C 4.839844 -30.125 4.460938 -29.984375 3.984375 -29.9375 C 3.984375 -29.558594 3.9375 -29.175781 3.9375 -28.75 C 3.9375 -28.324219 3.84375 -27.894531 3.796875 -27.46875 C 3.796875 -27.042969 3.890625 -26.617188 3.890625 -26.234375 C 3.890625 -25.808594 3.84375 -25.382812 3.84375 -24.953125 C 3.796875 -24.527344 3.796875 -24.101562 3.796875 -23.671875 C 3.796875 -23.246094 3.84375 -22.820312 3.84375 -22.441406 C 3.84375 -22.011719 3.84375 -21.585938 3.84375 -21.160156 C 3.84375 -20.730469 3.699219 -20.304688 3.699219 -19.878906 C 3.699219 -19.5 3.796875 -19.070312 3.796875 -18.644531 C 3.796875 -18.21875 3.746094 -17.789062 3.746094 -17.363281 C 3.746094 -16.984375 3.84375 -16.558594 3.796875 -16.128906 C 3.796875 -15.703125 3.652344 -15.277344 3.605469 -14.847656 C 3.605469 -14.46875 3.746094 -14.042969 3.699219 -13.617188 C 3.699219 -13.1875 3.652344 -12.761719 3.605469 -12.382812 C 3.605469 -11.957031 3.652344 -11.527344 3.652344 -11.101562 C 3.652344 -10.675781 3.652344 -10.246094 3.652344 -9.867188 C 3.652344 -9.441406 3.652344 -9.015625 3.652344 -8.585938 C 3.652344 -8.207031 3.605469 -7.78125 3.605469 -7.355469 C 3.558594 -6.925781 3.746094 -6.5 3.746094 -6.074219 C 3.746094 -5.691406 3.605469 -5.265625 3.605469 -4.839844 C 3.605469 -4.414062 3.699219 -3.984375 3.699219 -3.605469 C 3.699219 -3.179688 3.605469 -2.75 3.605469 -2.324219 C 3.605469 -1.992188 3.9375 -1.472656 4.363281 -1.042969 C 4.792969 -0.617188 5.3125 -0.332031 5.691406 -0.285156 C 6.074219 -0.285156 6.5 -0.238281 6.925781 -0.238281 C 7.304688 -0.191406 7.734375 -0.238281 8.160156 -0.191406 C 8.539062 -0.191406 8.964844 -0.046875 9.394531 0 C 9.773438 0 10.199219 -0.140625 10.628906 -0.140625 C 11.054688 -0.140625 11.433594 -0.09375 11.859375 -0.09375 C 12.289062 -0.09375 12.714844 0.046875 13.09375 0.09375 C 13.519531 0.09375 13.949219 -0.046875 14.328125 -0.046875 C 14.753906 0 15.179688 0.046875 15.609375 0.046875 C 15.988281 0.046875 16.414062 0.09375 16.84375 0.09375 C 17.222656 0.09375 17.648438 0.046875 18.074219 0.046875 C 18.503906 0.046875 18.882812 -0.046875 19.308594 -0.046875 C 19.734375 -0.046875 20.117188 0.046875 20.542969 0.046875 C 21.015625 0.046875 21.398438 -0.09375 21.632812 -0.332031 C 21.964844 -0.570312 22.0625 -0.902344 22.15625 -1.328125 C 22.203125 -1.660156 22.15625 -2.039062 22.011719 -2.417969 C 21.917969 -2.800781 21.824219 -3.179688 21.632812 -3.511719 C 21.398438 -3.890625 21.113281 -4.222656 20.875 -4.507812 C 20.589844 -4.792969 20.257812 -4.980469 19.734375 -5.027344 C 19.308594 -5.078125 18.835938 -5.027344 18.359375 -5.027344 C 17.886719 -5.027344 17.410156 -5.125 16.9375 -5.125 C 16.460938 -5.125 15.988281 -5.171875 15.515625 -5.171875 C 15.039062 -5.171875 14.613281 -5.078125 14.136719 -5.078125 C 13.664062 -5.078125 13.1875 -4.980469 12.714844 -5.027344 C 12.238281 -5.027344 11.8125 -5.027344 11.339844 -5.027344 C 10.863281 -5.027344 10.390625 -4.980469 9.964844 -4.980469 C 9.15625 -4.980469 9.203125 -4.695312 8.683594 -5.125 C 8.207031 -5.457031 8.492188 -5.503906 8.445312 -6.214844 C 8.445312 -6.546875 8.492188 -6.972656 8.492188 -7.402344 C 8.492188 -7.734375 8.445312 -8.160156 8.445312 -8.539062 C 8.445312 -8.917969 8.445312 -9.347656 8.492188 -9.679688 C 8.492188 -10.105469 8.445312 -10.53125 8.492188 -10.960938 C 8.539062 -11.339844 8.585938 -11.71875 8.730469 -12.191406 C 9.109375 -12.191406 9.535156 -12.144531 9.964844 -12.144531 C 10.390625 -12.097656 10.816406 -12.144531 11.195312 -12.144531 C 11.625 -12.144531 12.050781 -12.097656 12.476562 -12.097656 C 12.90625 -12.097656 13.285156 -12.097656 13.710938 -12.097656 C 14.136719 -12.097656 14.515625 -12.144531 14.945312 -12.191406 C 15.371094 -12.191406 15.75 -12.144531 16.179688 -12.144531 C 16.652344 -12.144531 17.03125 -12.289062 17.363281 -12.289062 C 17.839844 -12.335938 18.265625 -12.289062 18.550781 -12.429688 C 18.976562 -12.570312 19.261719 -12.855469 19.402344 -13.285156 C 19.5 -13.570312 19.355469 -13.996094 19.308594 -14.46875 C 19.308594 -14.800781 19.355469 -15.230469 19.261719 -15.65625 C 19.214844 -16.035156 19.121094 -16.460938 19.023438 -16.890625 C 18.597656 -16.9375 18.074219 -16.84375 17.648438 -16.84375 C 17.175781 -16.890625 16.746094 -16.984375 16.273438 -16.984375 C 15.796875 -16.984375 15.371094 -17.078125 14.898438 -17.078125 C 14.421875 -17.125 13.996094 -16.984375 13.519531 -17.03125 C 13.046875 -17.078125 12.621094 -17.269531 12.144531 -17.316406 C 11.8125 -17.316406 11.386719 -17.222656 11.007812 -17.222656 C 10.628906 -17.222656 10.246094 -17.269531 9.867188 -17.269531 C 9.203125 -17.269531 9.0625 -16.792969 8.683594 -17.222656 C 8.253906 -17.695312 8.730469 -17.839844 8.683594 -18.550781 C 8.683594 -18.929688 8.585938 -19.402344 8.585938 -19.832031 C 8.585938 -20.257812 8.683594 -20.730469 8.683594 -21.113281 C 8.683594 -21.492188 8.730469 -21.824219 8.777344 -22.25 C 8.824219 -22.582031 8.777344 -22.960938 8.824219 -23.390625 C 8.871094 -23.769531 9.015625 -24.101562 9.0625 -24.527344 C 9.535156 -24.527344 9.964844 -24.574219 10.390625 -24.574219 Z M 10.390625 -24.574219 "/></g></g></g><g fill="#000000" fill-opacity="1"><g transform="translate(90.112082, 196.031117)"><g><path d="M 5.949219 -11.117188 C 5.851562 -11.3125 5.777344 -11.53125 5.679688 -11.703125 C 5.535156 -11.945312 5.363281 -12.09375 5.265625 -12.214844 C 5.121094 -12.359375 4.972656 -12.53125 4.851562 -12.703125 C 4.707031 -12.871094 4.632812 -13.066406 4.535156 -13.261719 C 4.414062 -13.433594 4.289062 -13.605469 4.21875 -13.796875 C 4.121094 -14.042969 4.023438 -14.238281 3.949219 -14.40625 C 3.828125 -14.628906 3.753906 -14.824219 3.65625 -14.945312 C 3.484375 -15.164062 3.339844 -15.285156 3.144531 -15.335938 C 2.972656 -15.40625 2.753906 -15.382812 2.511719 -15.382812 C 2.316406 -15.382812 2.121094 -15.457031 1.878906 -15.457031 C 1.632812 -15.457031 1.4375 -15.40625 1.242188 -15.40625 C 0.976562 -15.40625 0.730469 -15.382812 0.609375 -15.308594 C 0.464844 -15.1875 0.414062 -14.992188 0.488281 -14.675781 C 0.535156 -14.554688 0.707031 -14.335938 0.878906 -14.066406 C 0.976562 -13.871094 1.121094 -13.652344 1.269531 -13.457031 C 1.390625 -13.238281 1.535156 -13.019531 1.65625 -12.847656 C 1.828125 -12.578125 2.023438 -12.382812 2.097656 -12.261719 C 2.21875 -12.117188 2.292969 -11.921875 2.414062 -11.726562 C 2.535156 -11.582031 2.65625 -11.410156 2.777344 -11.214844 C 2.875 -11.042969 2.972656 -10.847656 3.097656 -10.679688 C 3.195312 -10.507812 3.316406 -10.335938 3.4375 -10.167969 C 3.558594 -9.972656 3.65625 -9.800781 3.777344 -9.628906 C 3.902344 -9.460938 4.023438 -9.289062 4.144531 -9.117188 C 4.265625 -8.945312 4.339844 -8.753906 4.460938 -8.582031 C 4.558594 -8.460938 4.730469 -8.3125 4.828125 -8.117188 C 4.898438 -7.972656 4.972656 -7.777344 5.046875 -7.605469 C 5.144531 -7.386719 5.21875 -7.167969 5.21875 -7.046875 C 5.21875 -6.730469 5.167969 -6.535156 5.167969 -6.363281 C 5.167969 -6.121094 5.21875 -5.949219 5.191406 -5.703125 C 5.191406 -5.507812 5.191406 -5.316406 5.191406 -4.996094 C 5.167969 -4.777344 5.121094 -4.558594 5.121094 -4.316406 C 5.09375 -4.070312 5.121094 -3.828125 5.09375 -3.609375 C 5.09375 -3.363281 5.070312 -3.121094 5.046875 -2.875 C 5.046875 -2.65625 4.996094 -2.414062 4.972656 -2.167969 C 4.972656 -1.949219 4.996094 -1.707031 4.996094 -1.460938 C 4.996094 -1.21875 5.023438 -1 5.046875 -0.78125 C 5.046875 -0.511719 5.09375 -0.339844 5.21875 -0.21875 C 5.339844 -0.0976562 5.535156 -0.0234375 5.753906 0 C 5.925781 0.0234375 6.144531 0.0234375 6.363281 0.0234375 C 6.582031 0.0234375 6.824219 -0.0234375 7.070312 -0.0742188 C 7.3125 -0.0976562 7.558594 -0.121094 7.726562 -0.242188 C 7.949219 -0.367188 8.09375 -0.5625 8.09375 -0.828125 C 8.070312 -1.046875 8.046875 -1.242188 8.019531 -1.4375 C 8.019531 -1.609375 8.019531 -1.804688 8.019531 -2.046875 C 8.019531 -2.21875 7.972656 -2.414062 7.972656 -2.65625 C 7.972656 -2.851562 8.019531 -3.046875 8.019531 -3.265625 C 8.046875 -3.460938 8.019531 -3.65625 8.019531 -3.902344 C 8.046875 -4.121094 8.070312 -4.363281 8.070312 -4.632812 C 8.046875 -4.875 8.019531 -5.121094 7.996094 -5.363281 C 7.972656 -5.632812 7.949219 -5.875 7.921875 -6.09375 C 7.898438 -6.386719 7.898438 -6.65625 7.898438 -6.824219 C 7.898438 -7.046875 7.949219 -7.265625 8.046875 -7.507812 C 8.144531 -7.726562 8.214844 -7.949219 8.335938 -8.191406 C 8.460938 -8.386719 8.582031 -8.582031 8.726562 -8.800781 C 8.875 -8.996094 9.019531 -9.167969 9.191406 -9.363281 C 9.3125 -9.554688 9.507812 -9.726562 9.652344 -9.921875 C 9.75 -10.019531 9.875 -10.238281 10.070312 -10.484375 C 10.191406 -10.652344 10.3125 -10.847656 10.457031 -11.042969 C 10.605469 -11.214844 10.679688 -11.433594 10.824219 -11.628906 C 10.945312 -11.824219 11.117188 -11.996094 11.261719 -12.191406 C 11.386719 -12.382812 11.53125 -12.554688 11.652344 -12.75 C 11.800781 -12.945312 11.921875 -13.140625 12.042969 -13.3125 C 12.191406 -13.53125 12.261719 -13.75 12.359375 -13.921875 C 12.554688 -14.1875 12.675781 -14.382812 12.75 -14.503906 C 12.96875 -14.824219 13.066406 -15.015625 12.992188 -15.140625 C 12.921875 -15.285156 12.703125 -15.382812 12.335938 -15.40625 C 12.140625 -15.433594 11.898438 -15.382812 11.605469 -15.382812 C 11.335938 -15.382812 11.117188 -15.480469 10.945312 -15.480469 C 10.652344 -15.480469 10.484375 -15.40625 10.3125 -15.261719 C 10.191406 -15.164062 10.070312 -14.992188 9.875 -14.75 C 9.777344 -14.601562 9.582031 -14.457031 9.433594 -14.238281 C 9.3125 -14.089844 9.214844 -13.894531 9.09375 -13.699219 C 8.996094 -13.53125 8.921875 -13.335938 8.800781 -13.164062 C 8.703125 -12.992188 8.605469 -12.800781 8.507812 -12.605469 C 8.410156 -12.433594 8.265625 -12.285156 8.167969 -12.09375 C 8.070312 -11.921875 7.949219 -11.75 7.851562 -11.554688 C 7.726562 -11.386719 7.679688 -11.164062 7.558594 -10.996094 C 7.4375 -10.824219 7.3125 -10.679688 7.191406 -10.507812 C 7.070312 -10.335938 6.898438 -10.289062 6.730469 -10.3125 C 6.535156 -10.3125 6.363281 -10.359375 6.265625 -10.53125 C 6.144531 -10.726562 6.046875 -10.921875 5.949219 -11.117188 Z M 5.949219 -11.117188 "/></g></g></g><g fill="#000000" fill-opacity="1"><g transform="translate(109.859579, 196.031117)"><g><path d="M 12.96875 -7.507812 C 12.945312 -7.753906 12.898438 -7.972656 12.871094 -8.191406 C 12.824219 -8.410156 12.824219 -8.65625 12.75 -8.875 C 12.675781 -9.09375 12.554688 -9.3125 12.480469 -9.53125 C 12.410156 -9.777344 12.335938 -9.996094 12.238281 -10.214844 C 12.164062 -10.433594 12.042969 -10.652344 11.945312 -10.847656 C 11.824219 -11.066406 11.675781 -11.261719 11.53125 -11.457031 C 11.386719 -11.628906 11.214844 -11.800781 11.019531 -11.96875 C 10.847656 -12.09375 10.652344 -12.238281 10.433594 -12.359375 C 10.214844 -12.457031 10.042969 -12.605469 9.800781 -12.703125 C 9.582031 -12.773438 9.335938 -12.800781 9.117188 -12.871094 C 8.875 -12.921875 8.65625 -12.96875 8.410156 -12.992188 C 8.167969 -13.042969 7.949219 -13.140625 7.703125 -13.140625 C 7.460938 -13.164062 7.214844 -13.140625 6.972656 -13.140625 C 6.753906 -13.117188 6.507812 -13.117188 6.265625 -13.089844 C 6.023438 -13.042969 5.800781 -12.96875 5.558594 -12.921875 C 5.339844 -12.871094 5.121094 -12.800781 4.875 -12.726562 C 4.65625 -12.652344 4.4375 -12.578125 4.21875 -12.480469 C 4 -12.382812 3.777344 -12.285156 3.582031 -12.164062 C 3.363281 -12.019531 3.21875 -11.824219 3.046875 -11.675781 C 2.851562 -11.507812 2.707031 -11.335938 2.558594 -11.140625 C 2.414062 -10.96875 2.265625 -10.777344 2.144531 -10.554688 C 2.046875 -10.359375 1.949219 -10.140625 1.878906 -9.898438 C 1.804688 -9.679688 1.753906 -9.433594 1.683594 -9.191406 C 1.609375 -8.945312 1.535156 -8.703125 1.488281 -8.484375 C 1.4375 -8.238281 1.414062 -7.996094 1.390625 -7.753906 C 1.339844 -7.484375 1.269531 -7.265625 1.269531 -6.996094 C 1.242188 -6.753906 1.292969 -6.507812 1.292969 -6.265625 C 1.292969 -6.023438 1.292969 -5.777344 1.316406 -5.507812 C 1.339844 -5.265625 1.390625 -5.023438 1.4375 -4.777344 C 1.488281 -4.535156 1.535156 -4.289062 1.585938 -4.070312 C 1.65625 -3.828125 1.753906 -3.609375 1.851562 -3.390625 C 1.925781 -3.167969 2.023438 -2.925781 2.144531 -2.730469 C 2.242188 -2.511719 2.363281 -2.292969 2.488281 -2.097656 C 2.632812 -1.902344 2.804688 -1.707031 2.949219 -1.535156 C 3.121094 -1.339844 3.292969 -1.171875 3.460938 -1.023438 C 3.65625 -0.851562 3.851562 -0.730469 4.070312 -0.609375 C 4.265625 -0.464844 4.484375 -0.367188 4.707031 -0.269531 C 4.925781 -0.144531 5.144531 -0.0742188 5.363281 0 C 5.605469 0.0742188 5.851562 0.121094 6.070312 0.171875 C 6.3125 0.21875 6.558594 0.242188 6.800781 0.269531 C 7.046875 0.269531 7.289062 0.269531 7.507812 0.242188 C 7.753906 0.242188 7.996094 0.195312 8.238281 0.144531 C 8.484375 0.0976562 8.703125 0.0742188 8.945312 0 C 9.167969 -0.0742188 9.410156 -0.121094 9.628906 -0.242188 C 9.847656 -0.339844 10.042969 -0.488281 10.261719 -0.632812 C 10.457031 -0.753906 10.652344 -0.902344 10.824219 -1.074219 C 10.996094 -1.242188 11.164062 -1.414062 11.335938 -1.609375 C 11.484375 -1.78125 11.605469 -1.976562 11.75 -2.167969 C 11.871094 -2.363281 11.996094 -2.585938 12.09375 -2.777344 C 12.214844 -2.972656 12.335938 -3.195312 12.433594 -3.390625 C 12.507812 -3.609375 12.605469 -3.828125 12.675781 -4.046875 C 12.75 -4.265625 12.800781 -4.511719 12.824219 -4.730469 C 12.871094 -4.972656 12.921875 -5.191406 12.945312 -5.4375 C 12.992188 -5.65625 12.992188 -5.898438 12.992188 -6.144531 C 12.992188 -6.363281 12.992188 -6.605469 12.992188 -6.824219 C 12.96875 -7.070312 12.96875 -7.289062 12.96875 -7.507812 Z M 4.167969 -7.191406 C 4.191406 -7.484375 4.21875 -7.753906 4.265625 -8.019531 C 4.289062 -8.3125 4.386719 -8.582031 4.460938 -8.851562 C 4.535156 -9.070312 4.582031 -9.289062 4.707031 -9.484375 C 4.851562 -9.679688 5.023438 -9.847656 5.191406 -9.996094 C 5.363281 -10.140625 5.558594 -10.289062 5.753906 -10.410156 C 5.972656 -10.507812 6.191406 -10.582031 6.410156 -10.652344 C 6.632812 -10.703125 6.851562 -10.75 7.09375 -10.777344 C 7.3125 -10.777344 7.53125 -10.726562 7.753906 -10.679688 C 7.972656 -10.605469 8.167969 -10.507812 8.386719 -10.410156 C 8.582031 -10.289062 8.777344 -10.167969 8.921875 -10.019531 C 9.09375 -9.875 9.238281 -9.679688 9.363281 -9.484375 C 9.484375 -9.3125 9.605469 -9.117188 9.679688 -8.898438 C 9.75 -8.679688 9.847656 -8.433594 9.898438 -8.214844 C 9.972656 -7.972656 10.019531 -7.753906 10.042969 -7.507812 C 10.09375 -7.289062 10.117188 -7.046875 10.117188 -6.800781 C 10.140625 -6.558594 10.140625 -6.3125 10.117188 -6.09375 C 10.09375 -5.851562 10.09375 -5.605469 10.042969 -5.363281 C 9.996094 -5.144531 9.945312 -4.898438 9.875 -4.679688 C 9.800781 -4.460938 9.703125 -4.242188 9.605469 -4.023438 C 9.484375 -3.730469 9.3125 -3.535156 9.167969 -3.316406 C 8.972656 -3.097656 8.800781 -2.875 8.582031 -2.730469 C 8.363281 -2.585938 8.09375 -2.460938 7.824219 -2.390625 C 7.582031 -2.339844 7.3125 -2.316406 7.019531 -2.316406 C 6.777344 -2.339844 6.558594 -2.390625 6.363281 -2.4375 C 6.121094 -2.511719 5.925781 -2.585938 5.730469 -2.707031 C 5.535156 -2.828125 5.386719 -2.972656 5.242188 -3.144531 C 5.09375 -3.316406 4.972656 -3.511719 4.875 -3.707031 C 4.753906 -3.902344 4.65625 -4.09375 4.582031 -4.316406 C 4.511719 -4.535156 4.460938 -4.753906 4.386719 -4.996094 C 4.339844 -5.21875 4.289062 -5.460938 4.242188 -5.679688 C 4.191406 -5.925781 4.167969 -6.144531 4.121094 -6.363281 C 4.144531 -6.65625 4.144531 -6.921875 4.167969 -7.191406 Z M 4.167969 -7.191406 "/></g></g></g><g fill="#000000" fill-opacity="1"><g transform="translate(130.435826, 196.031117)"><g><path d="M 1.683594 -9.996094 C 1.683594 -9.777344 1.632812 -9.554688 1.632812 -9.3125 C 1.632812 -9.09375 1.65625 -8.875 1.65625 -8.65625 C 1.65625 -8.433594 1.65625 -8.191406 1.65625 -7.972656 C 1.65625 -7.753906 1.65625 -7.53125 1.65625 -7.289062 C 1.65625 -7.070312 1.65625 -6.851562 1.65625 -6.632812 C 1.65625 -6.386719 1.683594 -6.167969 1.683594 -5.972656 C 1.683594 -5.730469 1.632812 -5.484375 1.632812 -5.289062 C 1.632812 -5.023438 1.632812 -4.800781 1.632812 -4.632812 C 1.609375 -4.386719 1.632812 -4.167969 1.65625 -3.949219 C 1.683594 -3.730469 1.707031 -3.484375 1.730469 -3.265625 C 1.78125 -3.046875 1.851562 -2.828125 1.925781 -2.632812 C 2 -2.414062 2.070312 -2.195312 2.167969 -2 C 2.265625 -1.78125 2.414062 -1.609375 2.558594 -1.4375 C 2.683594 -1.269531 2.828125 -1.074219 3 -0.925781 C 3.144531 -0.753906 3.339844 -0.660156 3.535156 -0.535156 C 3.730469 -0.414062 3.902344 -0.269531 4.121094 -0.171875 C 4.316406 -0.0742188 4.535156 -0.046875 4.753906 0.0234375 C 4.949219 0.0976562 5.167969 0.144531 5.363281 0.195312 C 5.582031 0.242188 5.800781 0.292969 6.023438 0.316406 C 6.242188 0.339844 6.460938 0.390625 6.65625 0.390625 C 6.875 0.390625 7.09375 0.367188 7.3125 0.339844 C 7.53125 0.339844 7.753906 0.316406 7.972656 0.269531 C 8.191406 0.21875 8.410156 0.171875 8.605469 0.0976562 C 8.800781 0.0234375 8.996094 -0.0976562 9.191406 -0.195312 C 9.386719 -0.292969 9.582031 -0.390625 9.75 -0.511719 C 9.945312 -0.632812 10.070312 -0.828125 10.238281 -0.976562 C 10.386719 -1.121094 10.582031 -1.242188 10.726562 -1.414062 C 10.847656 -1.585938 10.921875 -1.804688 11.042969 -2 C 11.140625 -2.167969 11.289062 -2.363281 11.359375 -2.558594 C 11.433594 -2.753906 11.484375 -2.972656 11.53125 -3.195312 C 11.582031 -3.414062 11.605469 -3.632812 11.628906 -3.851562 C 11.652344 -4.070312 11.652344 -4.289062 11.652344 -4.511719 C 11.652344 -4.730469 11.652344 -4.949219 11.652344 -5.144531 C 11.652344 -5.386719 11.652344 -5.605469 11.652344 -5.800781 C 11.652344 -6.023438 11.675781 -6.242188 11.675781 -6.4375 C 11.675781 -6.679688 11.628906 -6.875 11.652344 -7.070312 C 11.652344 -7.3125 11.703125 -7.53125 11.703125 -7.703125 C 11.703125 -7.949219 11.675781 -8.167969 11.675781 -8.363281 C 11.703125 -8.582031 11.726562 -8.777344 11.726562 -8.996094 C 11.726562 -9.191406 11.75 -9.386719 11.75 -9.628906 C 11.75 -9.824219 11.726562 -10.019531 11.726562 -10.261719 C 11.726562 -10.457031 11.726562 -10.679688 11.726562 -10.921875 C 11.726562 -11.09375 11.703125 -11.3125 11.703125 -11.554688 C 11.726562 -11.773438 11.703125 -12.019531 11.652344 -12.191406 C 11.605469 -12.433594 11.484375 -12.605469 11.3125 -12.703125 C 11.117188 -12.800781 10.898438 -12.824219 10.652344 -12.847656 C 10.433594 -12.871094 10.214844 -12.824219 9.996094 -12.824219 C 9.679688 -12.824219 9.433594 -12.847656 9.238281 -12.773438 C 9.019531 -12.703125 8.875 -12.53125 8.851562 -12.191406 C 8.824219 -12.042969 8.851562 -11.824219 8.851562 -11.628906 C 8.875 -11.433594 8.875 -11.238281 8.875 -11.042969 C 8.898438 -10.824219 8.875 -10.628906 8.875 -10.457031 C 8.898438 -10.238281 8.898438 -10.019531 8.898438 -9.824219 C 8.921875 -9.605469 8.972656 -9.410156 8.972656 -9.214844 C 8.972656 -8.996094 9.019531 -8.800781 9.019531 -8.605469 C 9.042969 -8.386719 9.019531 -8.167969 9.019531 -7.972656 C 9.042969 -7.753906 9.042969 -7.558594 9.070312 -7.363281 C 9.070312 -7.144531 9.070312 -6.949219 9.070312 -6.730469 C 9.070312 -6.535156 9.117188 -6.3125 9.117188 -6.09375 C 9.117188 -5.898438 9.09375 -5.703125 9.09375 -5.484375 C 9.09375 -5.289062 9.117188 -5.070312 9.117188 -4.851562 C 9.117188 -4.609375 9.019531 -4.414062 8.996094 -4.191406 C 8.972656 -3.972656 8.898438 -3.753906 8.824219 -3.558594 C 8.753906 -3.339844 8.679688 -3.144531 8.53125 -2.972656 C 8.410156 -2.804688 8.238281 -2.65625 8.046875 -2.558594 C 7.875 -2.4375 7.679688 -2.316406 7.460938 -2.265625 C 7.265625 -2.21875 7.019531 -2.167969 6.800781 -2.195312 C 6.558594 -2.167969 6.3125 -2.195312 6.09375 -2.242188 C 5.875 -2.316406 5.65625 -2.414062 5.484375 -2.535156 C 5.289062 -2.65625 5.121094 -2.828125 4.972656 -3 C 4.851562 -3.167969 4.777344 -3.390625 4.679688 -3.609375 C 4.582031 -3.828125 4.511719 -4.023438 4.460938 -4.242188 C 4.414062 -4.460938 4.4375 -4.707031 4.4375 -4.925781 C 4.414062 -5.167969 4.363281 -5.363281 4.363281 -5.558594 C 4.363281 -5.777344 4.363281 -5.996094 4.363281 -6.167969 C 4.363281 -6.410156 4.414062 -6.605469 4.414062 -6.800781 C 4.4375 -6.996094 4.414062 -7.191406 4.414062 -7.410156 C 4.414062 -7.605469 4.414062 -7.800781 4.414062 -8.046875 C 4.414062 -8.238281 4.4375 -8.433594 4.4375 -8.679688 C 4.4375 -8.875 4.460938 -9.09375 4.460938 -9.335938 C 4.4375 -9.554688 4.414062 -9.777344 4.414062 -9.996094 C 4.414062 -10.214844 4.460938 -10.457031 4.460938 -10.679688 C 4.460938 -10.898438 4.4375 -11.117188 4.414062 -11.335938 C 4.414062 -11.554688 4.4375 -11.800781 4.4375 -11.996094 C 4.4375 -12.261719 4.386719 -12.457031 4.316406 -12.578125 C 4.191406 -12.75 4.023438 -12.800781 3.777344 -12.824219 C 3.609375 -12.847656 3.414062 -12.871094 3.167969 -12.847656 C 2.949219 -12.847656 2.730469 -12.898438 2.558594 -12.898438 C 2.316406 -12.898438 2.144531 -12.824219 1.976562 -12.726562 C 1.851562 -12.628906 1.730469 -12.507812 1.683594 -12.238281 C 1.65625 -12.066406 1.65625 -11.75 1.683594 -11.457031 C 1.683594 -11.140625 1.65625 -10.824219 1.65625 -10.652344 C 1.65625 -10.457031 1.683594 -10.238281 1.683594 -9.996094 Z M 1.683594 -9.996094 "/></g></g></g><g fill="#000000" fill-opacity="1"><g transform="translate(150.085827, 196.031117)"><g><path d="M 4.996094 -5.046875 C 5.242188 -5.09375 5.4375 -5.121094 5.632812 -5.144531 C 5.875 -5.167969 6.070312 -5.144531 6.242188 -5.144531 C 6.507812 -5.144531 6.703125 -5.144531 6.875 -5.070312 C 7.070312 -4.996094 7.214844 -4.851562 7.363281 -4.679688 C 7.460938 -4.535156 7.558594 -4.339844 7.679688 -4.121094 C 7.753906 -3.949219 7.824219 -3.753906 7.949219 -3.558594 C 8.046875 -3.339844 8.144531 -3.121094 8.265625 -2.902344 C 8.386719 -2.683594 8.460938 -2.4375 8.582031 -2.21875 C 8.679688 -2 8.851562 -1.804688 8.945312 -1.585938 C 9.070312 -1.363281 9.167969 -1.144531 9.265625 -0.925781 C 9.386719 -0.730469 9.507812 -0.585938 9.582031 -0.4375 C 9.726562 -0.21875 9.847656 -0.121094 9.996094 -0.046875 C 10.167969 0.0234375 10.3125 0.0234375 10.554688 0 C 10.726562 0 10.921875 0 11.164062 0 C 11.484375 0 11.726562 -0.0234375 11.871094 -0.0742188 C 12.117188 -0.144531 12.117188 -0.292969 11.996094 -0.660156 C 11.945312 -0.828125 11.898438 -1.074219 11.75 -1.339844 C 11.675781 -1.535156 11.53125 -1.730469 11.433594 -1.976562 C 11.335938 -2.167969 11.238281 -2.390625 11.140625 -2.609375 C 11.042969 -2.828125 11.019531 -3.070312 10.921875 -3.292969 C 10.824219 -3.511719 10.703125 -3.730469 10.628906 -3.925781 C 10.53125 -4.144531 10.433594 -4.363281 10.359375 -4.582031 C 10.261719 -4.800781 10.117188 -4.996094 10.019531 -5.21875 C 9.945312 -5.386719 9.945312 -5.582031 9.996094 -5.753906 C 10.042969 -5.925781 10.167969 -6.070312 10.3125 -6.167969 C 10.53125 -6.3125 10.75 -6.410156 10.96875 -6.605469 C 11.117188 -6.777344 11.214844 -6.972656 11.335938 -7.144531 C 11.484375 -7.339844 11.582031 -7.507812 11.675781 -7.703125 C 11.75 -7.898438 11.847656 -8.09375 11.898438 -8.3125 C 11.945312 -8.53125 11.96875 -8.726562 11.996094 -8.945312 C 11.996094 -9.167969 11.96875 -9.386719 11.945312 -9.605469 C 11.898438 -9.800781 11.871094 -10.019531 11.800781 -10.238281 C 11.726562 -10.433594 11.628906 -10.628906 11.53125 -10.824219 C 11.410156 -10.996094 11.335938 -11.214844 11.191406 -11.386719 C 11.042969 -11.53125 10.847656 -11.652344 10.679688 -11.800781 C 10.53125 -11.921875 10.359375 -12.066406 10.167969 -12.191406 C 9.972656 -12.285156 9.777344 -12.359375 9.554688 -12.433594 C 9.363281 -12.507812 9.140625 -12.554688 8.921875 -12.605469 C 8.726562 -12.628906 8.507812 -12.652344 8.289062 -12.675781 C 8.070312 -12.703125 7.875 -12.726562 7.65625 -12.75 C 7.4375 -12.773438 7.214844 -12.800781 6.996094 -12.800781 C 6.800781 -12.800781 6.582031 -12.800781 6.363281 -12.800781 C 6.144531 -12.800781 5.925781 -12.824219 5.730469 -12.824219 C 5.507812 -12.824219 5.289062 -12.800781 5.070312 -12.800781 C 4.851562 -12.800781 4.632812 -12.800781 4.4375 -12.800781 C 4.21875 -12.800781 4 -12.800781 3.777344 -12.800781 C 3.535156 -12.800781 3.316406 -12.800781 3.121094 -12.800781 C 2.851562 -12.773438 2.632812 -12.773438 2.4375 -12.726562 C 2.21875 -12.652344 2.070312 -12.554688 1.976562 -12.335938 C 1.902344 -12.164062 1.878906 -11.945312 1.878906 -11.675781 C 1.851562 -11.457031 1.828125 -11.238281 1.828125 -11.019531 C 1.828125 -10.800781 1.78125 -10.582031 1.78125 -10.359375 C 1.78125 -10.167969 1.804688 -9.945312 1.804688 -9.703125 C 1.804688 -9.484375 1.804688 -9.265625 1.804688 -9.042969 C 1.804688 -8.824219 1.78125 -8.605469 1.78125 -8.386719 C 1.78125 -8.191406 1.78125 -7.972656 1.78125 -7.753906 C 1.78125 -7.53125 1.804688 -7.3125 1.804688 -7.09375 C 1.804688 -6.875 1.753906 -6.65625 1.753906 -6.4375 C 1.753906 -6.214844 1.753906 -5.996094 1.753906 -5.777344 C 1.753906 -5.558594 1.78125 -5.339844 1.78125 -5.121094 C 1.78125 -4.898438 1.753906 -4.679688 1.753906 -4.460938 C 1.753906 -4.265625 1.78125 -4.046875 1.78125 -3.828125 C 1.78125 -3.609375 1.78125 -3.390625 1.78125 -3.167969 C 1.78125 -2.949219 1.804688 -2.730469 1.804688 -2.535156 C 1.804688 -2.292969 1.78125 -2.097656 1.78125 -1.878906 C 1.78125 -1.707031 1.804688 -1.511719 1.78125 -1.316406 C 1.78125 -1.121094 1.707031 -0.925781 1.730469 -0.730469 C 1.730469 -0.535156 1.804688 -0.339844 1.878906 -0.195312 C 1.949219 -0.0742188 2.195312 0 2.4375 0.0234375 C 2.683594 0.0742188 2.949219 0.0742188 3.097656 0.046875 C 3.265625 0.0234375 3.511719 0.046875 3.730469 0.0234375 C 4 0 4.21875 -0.0742188 4.289062 -0.242188 C 4.363281 -0.390625 4.414062 -0.609375 4.414062 -0.851562 C 4.4375 -1.046875 4.4375 -1.269531 4.4375 -1.488281 C 4.414062 -1.707031 4.386719 -1.925781 4.386719 -2.097656 C 4.386719 -2.339844 4.386719 -2.585938 4.386719 -2.804688 C 4.414062 -3.046875 4.363281 -3.292969 4.363281 -3.535156 C 4.363281 -3.753906 4.414062 -4 4.414062 -4.242188 C 4.414062 -4.460938 4.363281 -4.730469 4.363281 -4.949219 C 4.582031 -4.996094 4.800781 -5.023438 4.996094 -5.046875 Z M 4.511719 -8.046875 C 4.511719 -8.238281 4.484375 -8.460938 4.484375 -8.65625 C 4.484375 -8.851562 4.511719 -9.042969 4.511719 -9.265625 C 4.511719 -9.460938 4.484375 -9.652344 4.484375 -9.875 C 4.484375 -10.070312 4.484375 -10.261719 4.484375 -10.457031 C 4.730469 -10.457031 4.972656 -10.484375 5.21875 -10.507812 C 5.460938 -10.507812 5.730469 -10.484375 5.972656 -10.484375 C 6.214844 -10.484375 6.460938 -10.53125 6.703125 -10.53125 C 6.949219 -10.53125 7.191406 -10.484375 7.4375 -10.457031 C 7.65625 -10.457031 7.875 -10.457031 8.070312 -10.410156 C 8.289062 -10.359375 8.507812 -10.261719 8.679688 -10.167969 C 8.875 -10.070312 9.019531 -9.921875 9.140625 -9.75 C 9.289062 -9.582031 9.335938 -9.363281 9.335938 -9.167969 C 9.363281 -8.921875 9.289062 -8.703125 9.167969 -8.484375 C 9.042969 -8.289062 8.875 -8.117188 8.679688 -7.972656 C 8.484375 -7.824219 8.289062 -7.703125 8.046875 -7.628906 C 7.824219 -7.53125 7.605469 -7.460938 7.363281 -7.4375 C 7.144531 -7.4375 6.898438 -7.4375 6.65625 -7.410156 C 6.410156 -7.410156 6.167969 -7.363281 5.925781 -7.363281 C 5.679688 -7.386719 5.460938 -7.4375 5.191406 -7.4375 C 4.972656 -7.460938 4.707031 -7.410156 4.460938 -7.410156 C 4.460938 -7.628906 4.511719 -7.851562 4.511719 -8.046875 Z M 4.511719 -8.046875 "/></g></g></g><g fill="#000000" fill-opacity="1"><g transform="translate(169.687078, 196.031117)"><g/></g></g><g fill="#000000" fill-opacity="1"><g transform="translate(182.804546, 196.031117)"><g><path d="M 5.242188 -6.023438 C 5.484375 -6.070312 5.703125 -6.191406 5.898438 -6.214844 C 6.167969 -6.242188 6.410156 -6.214844 6.605469 -6.191406 C 6.875 -6.191406 7.070312 -6.144531 7.265625 -6.023438 C 7.4375 -5.925781 7.605469 -5.777344 7.753906 -5.558594 C 7.851562 -5.386719 7.949219 -5.167969 8.070312 -4.925781 C 8.144531 -4.730469 8.214844 -4.511719 8.335938 -4.289062 C 8.410156 -4.09375 8.558594 -3.902344 8.65625 -3.679688 C 8.753906 -3.460938 8.800781 -3.242188 8.898438 -3.023438 C 8.996094 -2.804688 9.09375 -2.609375 9.191406 -2.390625 C 9.289062 -2.167969 9.433594 -2 9.53125 -1.78125 C 9.628906 -1.585938 9.75 -1.363281 9.824219 -1.171875 C 9.945312 -0.925781 9.996094 -0.707031 10.09375 -0.535156 C 10.238281 -0.292969 10.433594 -0.195312 10.582031 -0.0976562 C 10.777344 0 10.945312 0 11.214844 0 C 11.410156 -0.0234375 11.628906 -0.0234375 11.898438 -0.0234375 C 12.140625 -0.0234375 12.359375 0 12.507812 -0.0234375 C 12.773438 -0.0742188 12.898438 -0.171875 12.871094 -0.414062 C 12.847656 -0.5625 12.824219 -0.78125 12.726562 -1.023438 C 12.675781 -1.195312 12.53125 -1.363281 12.433594 -1.585938 C 12.359375 -1.78125 12.285156 -1.976562 12.191406 -2.195312 C 12.117188 -2.390625 11.96875 -2.585938 11.871094 -2.804688 C 11.800781 -3 11.703125 -3.195312 11.628906 -3.414062 C 11.53125 -3.609375 11.433594 -3.804688 11.335938 -4 C 11.238281 -4.21875 11.164062 -4.414062 11.066406 -4.609375 C 10.96875 -4.828125 10.898438 -5.023438 10.800781 -5.21875 C 10.703125 -5.4375 10.605469 -5.632812 10.53125 -5.828125 C 10.433594 -6.023438 10.386719 -6.265625 10.3125 -6.460938 C 10.238281 -6.605469 10.238281 -6.800781 10.386719 -6.921875 C 10.605469 -7.117188 10.800781 -7.3125 10.96875 -7.460938 C 11.191406 -7.65625 11.433594 -7.777344 11.628906 -7.972656 C 11.773438 -8.144531 11.871094 -8.335938 11.996094 -8.507812 C 12.117188 -8.679688 12.238281 -8.875 12.335938 -9.070312 C 12.410156 -9.265625 12.457031 -9.484375 12.53125 -9.679688 C 12.578125 -9.898438 12.628906 -10.09375 12.652344 -10.3125 C 12.675781 -10.507812 12.726562 -10.726562 12.726562 -10.945312 C 12.726562 -11.164062 12.75 -11.386719 12.726562 -11.605469 C 12.703125 -11.800781 12.605469 -12.019531 12.53125 -12.214844 C 12.480469 -12.433594 12.382812 -12.628906 12.3125 -12.824219 C 12.214844 -13.019531 12.140625 -13.214844 12.019531 -13.382812 C 11.898438 -13.554688 11.773438 -13.726562 11.628906 -13.894531 C 11.484375 -14.042969 11.3125 -14.1875 11.140625 -14.3125 C 10.96875 -14.457031 10.824219 -14.578125 10.628906 -14.699219 C 10.433594 -14.796875 10.238281 -14.871094 10.042969 -14.945312 C 9.847656 -15.015625 9.652344 -15.140625 9.433594 -15.164062 C 9.191406 -15.210938 8.972656 -15.1875 8.726562 -15.238281 C 8.507812 -15.261719 8.289062 -15.308594 8.046875 -15.335938 C 7.824219 -15.359375 7.582031 -15.359375 7.363281 -15.382812 C 7.117188 -15.382812 6.898438 -15.40625 6.65625 -15.433594 C 6.4375 -15.433594 6.191406 -15.40625 5.972656 -15.433594 C 5.753906 -15.433594 5.507812 -15.433594 5.289062 -15.433594 C 5.046875 -15.433594 4.828125 -15.457031 4.582031 -15.457031 C 4.363281 -15.433594 4.121094 -15.40625 3.902344 -15.40625 C 3.632812 -15.40625 3.390625 -15.433594 3.167969 -15.433594 C 2.875 -15.433594 2.65625 -15.382812 2.460938 -15.308594 C 2.242188 -15.210938 2.121094 -15.066406 2.046875 -14.773438 C 2.023438 -14.578125 2 -14.335938 2 -14.042969 C 1.976562 -13.824219 1.976562 -13.605469 1.976562 -13.382812 C 1.976562 -13.1875 1.976562 -12.96875 1.976562 -12.75 C 1.976562 -12.53125 1.976562 -12.3125 1.976562 -12.09375 C 1.976562 -11.871094 1.976562 -11.652344 1.976562 -11.433594 C 1.976562 -11.214844 1.949219 -10.996094 1.925781 -10.777344 C 1.925781 -10.554688 1.878906 -10.335938 1.878906 -10.117188 C 1.878906 -9.898438 1.925781 -9.679688 1.925781 -9.460938 C 1.925781 -9.238281 1.902344 -9.019531 1.902344 -8.800781 C 1.902344 -8.582031 1.902344 -8.363281 1.902344 -8.144531 C 1.902344 -7.921875 1.902344 -7.703125 1.902344 -7.484375 C 1.902344 -7.265625 1.925781 -7.046875 1.925781 -6.824219 C 1.925781 -6.605469 1.878906 -6.410156 1.878906 -6.191406 C 1.878906 -5.972656 1.878906 -5.753906 1.878906 -5.535156 C 1.878906 -5.316406 1.902344 -5.09375 1.902344 -4.875 C 1.902344 -4.65625 1.878906 -4.4375 1.878906 -4.242188 C 1.902344 -4.023438 1.902344 -3.804688 1.902344 -3.582031 C 1.902344 -3.363281 1.902344 -3.144531 1.902344 -2.925781 C 1.902344 -2.707031 1.949219 -2.488281 1.949219 -2.265625 C 1.949219 -2.070312 1.902344 -1.851562 1.878906 -1.609375 C 1.851562 -1.363281 1.878906 -1.144531 1.878906 -0.925781 C 1.902344 -0.660156 1.878906 -0.414062 1.976562 -0.242188 C 2.046875 -0.0742188 2.339844 -0.046875 2.609375 0 C 2.875 0.046875 3.167969 0.046875 3.316406 0.0234375 C 3.511719 -0.0234375 3.730469 0 3.925781 -0.0234375 C 4.167969 -0.0742188 4.386719 -0.121094 4.460938 -0.316406 C 4.535156 -0.511719 4.558594 -0.78125 4.558594 -1.046875 C 4.582031 -1.292969 4.582031 -1.558594 4.582031 -1.804688 C 4.558594 -2.097656 4.558594 -2.339844 4.558594 -2.558594 C 4.558594 -2.777344 4.558594 -3.023438 4.558594 -3.242188 C 4.558594 -3.460938 4.558594 -3.707031 4.558594 -3.925781 C 4.558594 -4.144531 4.511719 -4.386719 4.511719 -4.609375 C 4.511719 -4.828125 4.582031 -5.070312 4.582031 -5.289062 C 4.582031 -5.507812 4.511719 -5.753906 4.511719 -5.972656 C 4.777344 -6.023438 5.023438 -5.996094 5.242188 -6.023438 Z M 4.632812 -9.410156 C 4.632812 -9.652344 4.65625 -9.875 4.65625 -10.09375 C 4.65625 -10.335938 4.65625 -10.554688 4.65625 -10.777344 C 4.65625 -10.996094 4.632812 -11.238281 4.632812 -11.457031 C 4.632812 -11.675781 4.65625 -11.921875 4.65625 -12.140625 C 4.65625 -12.359375 4.65625 -12.554688 4.65625 -12.800781 C 4.898438 -12.800781 5.09375 -12.824219 5.316406 -12.824219 C 5.535156 -12.824219 5.753906 -12.824219 5.972656 -12.824219 C 6.214844 -12.824219 6.4375 -12.847656 6.65625 -12.847656 C 6.875 -12.847656 7.09375 -12.847656 7.3125 -12.847656 C 7.53125 -12.824219 7.777344 -12.847656 7.996094 -12.847656 C 8.214844 -12.824219 8.410156 -12.773438 8.582031 -12.703125 C 8.800781 -12.652344 9.019531 -12.628906 9.191406 -12.53125 C 9.363281 -12.433594 9.507812 -12.261719 9.652344 -12.140625 C 9.800781 -11.996094 9.972656 -11.847656 10.042969 -11.675781 C 10.140625 -11.484375 10.191406 -11.261719 10.191406 -11.066406 C 10.214844 -10.824219 10.140625 -10.605469 10.070312 -10.359375 C 9.996094 -10.140625 9.824219 -9.972656 9.679688 -9.777344 C 9.53125 -9.605469 9.386719 -9.410156 9.191406 -9.265625 C 9.019531 -9.140625 8.800781 -9.019531 8.582031 -8.945312 C 8.363281 -8.851562 8.144531 -8.800781 7.898438 -8.777344 C 7.703125 -8.777344 7.484375 -8.726562 7.265625 -8.726562 C 7.046875 -8.726562 6.824219 -8.726562 6.605469 -8.726562 C 6.386719 -8.726562 6.167969 -8.679688 5.949219 -8.679688 C 5.730469 -8.679688 5.507812 -8.753906 5.289062 -8.753906 C 5.070312 -8.777344 4.851562 -8.703125 4.609375 -8.703125 C 4.609375 -8.945312 4.65625 -9.191406 4.632812 -9.410156 Z M 4.632812 -9.410156 "/></g></g></g><g fill="#000000" fill-opacity="1"><g transform="translate(203.234549, 196.031117)"><g><path d="M 5.09375 -10.214844 C 5.316406 -10.214844 5.535156 -10.214844 5.753906 -10.214844 C 5.996094 -10.214844 6.214844 -10.167969 6.4375 -10.167969 C 6.65625 -10.167969 6.898438 -10.214844 7.117188 -10.214844 C 7.339844 -10.214844 7.558594 -10.214844 7.777344 -10.214844 C 8.019531 -10.214844 8.238281 -10.167969 8.460938 -10.167969 C 8.679688 -10.167969 8.921875 -10.191406 9.117188 -10.191406 C 9.363281 -10.191406 9.582031 -10.214844 9.800781 -10.214844 C 10.070312 -10.214844 10.289062 -10.214844 10.457031 -10.3125 C 10.652344 -10.410156 10.75 -10.582031 10.847656 -10.800781 C 10.921875 -10.996094 10.96875 -11.191406 10.996094 -11.457031 C 10.996094 -11.652344 11.042969 -11.847656 11.042969 -12.042969 C 11.042969 -12.238281 11.019531 -12.433594 10.875 -12.554688 C 10.777344 -12.652344 10.605469 -12.726562 10.359375 -12.773438 C 10.191406 -12.800781 10.019531 -12.847656 9.777344 -12.847656 C 9.582031 -12.847656 9.335938 -12.800781 9.09375 -12.800781 C 8.875 -12.800781 8.628906 -12.824219 8.386719 -12.800781 C 8.167969 -12.800781 7.921875 -12.824219 7.703125 -12.824219 C 7.460938 -12.824219 7.214844 -12.773438 6.996094 -12.75 C 6.753906 -12.75 6.507812 -12.75 6.3125 -12.75 C 6.121094 -12.75 5.898438 -12.726562 5.679688 -12.75 C 5.484375 -12.75 5.265625 -12.726562 5.046875 -12.726562 C 4.851562 -12.75 4.632812 -12.75 4.414062 -12.75 C 4.21875 -12.773438 4 -12.824219 3.777344 -12.847656 C 3.582031 -12.847656 3.363281 -12.800781 3.144531 -12.800781 C 2.949219 -12.824219 2.730469 -12.847656 2.511719 -12.847656 C 2.316406 -12.847656 2.121094 -12.800781 1.925781 -12.800781 C 1.902344 -12.578125 1.851562 -12.382812 1.851562 -12.164062 C 1.828125 -11.945312 1.878906 -11.726562 1.878906 -11.507812 C 1.878906 -11.289062 1.828125 -11.066406 1.828125 -10.847656 C 1.828125 -10.628906 1.851562 -10.410156 1.828125 -10.191406 C 1.828125 -9.945312 1.828125 -9.726562 1.828125 -9.507812 C 1.828125 -9.289062 1.828125 -9.070312 1.828125 -8.851562 C 1.828125 -8.628906 1.804688 -8.410156 1.78125 -8.191406 C 1.78125 -7.972656 1.851562 -7.753906 1.851562 -7.53125 C 1.851562 -7.3125 1.78125 -7.09375 1.78125 -6.875 C 1.78125 -6.65625 1.828125 -6.4375 1.804688 -6.214844 C 1.804688 -5.996094 1.78125 -5.800781 1.78125 -5.582031 C 1.78125 -5.363281 1.78125 -5.144531 1.78125 -4.925781 C 1.78125 -4.707031 1.78125 -4.484375 1.78125 -4.265625 C 1.78125 -4.046875 1.78125 -3.828125 1.78125 -3.609375 C 1.78125 -3.390625 1.78125 -3.167969 1.78125 -2.949219 C 1.78125 -2.730469 1.730469 -2.511719 1.730469 -2.292969 C 1.707031 -2.070312 1.78125 -1.851562 1.78125 -1.632812 C 1.78125 -1.414062 1.78125 -1.195312 1.78125 -0.976562 C 1.78125 -0.828125 1.878906 -0.585938 2.046875 -0.414062 C 2.242188 -0.21875 2.460938 -0.121094 2.632812 -0.121094 C 2.851562 -0.121094 3.070312 -0.0742188 3.316406 -0.0742188 C 3.535156 -0.0742188 3.753906 -0.0234375 4 -0.0234375 C 4.21875 -0.0234375 4.4375 -0.0234375 4.679688 -0.0234375 C 4.898438 0 5.121094 -0.0234375 5.363281 -0.0234375 C 5.582031 -0.0234375 5.828125 0.0234375 6.046875 0.0234375 C 6.265625 0.046875 6.507812 0.0234375 6.730469 0.0234375 C 6.972656 0.046875 7.191406 0 7.410156 0 C 7.65625 0 7.875 0 8.09375 0 C 8.335938 0 8.558594 0.046875 8.777344 0.046875 C 9.019531 0.046875 9.238281 0.0234375 9.460938 0.0234375 C 9.703125 0.0234375 9.921875 0.0234375 10.140625 0 C 10.410156 0 10.582031 -0.0976562 10.703125 -0.269531 C 10.824219 -0.414062 10.875 -0.632812 10.847656 -0.878906 C 10.800781 -1.074219 10.75 -1.316406 10.628906 -1.511719 C 10.507812 -1.65625 10.410156 -1.902344 10.289062 -2.121094 C 10.167969 -2.363281 10.019531 -2.535156 9.800781 -2.558594 C 9.605469 -2.585938 9.410156 -2.585938 9.167969 -2.585938 C 8.972656 -2.585938 8.753906 -2.585938 8.53125 -2.585938 C 8.3125 -2.585938 8.09375 -2.632812 7.898438 -2.632812 C 7.679688 -2.632812 7.460938 -2.585938 7.265625 -2.558594 C 7.046875 -2.558594 6.824219 -2.609375 6.605469 -2.609375 C 6.386719 -2.609375 6.167969 -2.585938 5.996094 -2.585938 C 5.777344 -2.609375 5.582031 -2.609375 5.414062 -2.609375 C 5.191406 -2.609375 4.996094 -2.585938 4.828125 -2.585938 C 4.460938 -2.585938 4.4375 -2.390625 4.21875 -2.585938 C 3.949219 -2.875 4.191406 -2.902344 4.167969 -3.363281 C 4.167969 -3.582031 4.144531 -3.851562 4.144531 -4.144531 C 4.167969 -4.460938 4.070312 -4.558594 4.167969 -4.972656 C 4.363281 -4.972656 4.582031 -4.949219 4.828125 -4.949219 C 5.046875 -4.949219 5.265625 -4.972656 5.484375 -4.972656 C 5.703125 -4.972656 5.949219 -4.949219 6.167969 -4.949219 C 6.386719 -4.949219 6.605469 -4.996094 6.824219 -4.996094 C 7.070312 -4.996094 7.289062 -4.949219 7.484375 -4.949219 C 7.753906 -4.949219 7.972656 -4.949219 8.167969 -4.949219 C 8.433594 -4.949219 8.65625 -5.023438 8.824219 -5.070312 C 9.09375 -5.121094 9.3125 -5.191406 9.433594 -5.339844 C 9.554688 -5.507812 9.628906 -5.730469 9.652344 -5.996094 C 9.652344 -6.191406 9.582031 -6.410156 9.554688 -6.65625 C 9.53125 -6.875 9.53125 -7.09375 9.484375 -7.339844 C 9.3125 -7.363281 9.09375 -7.386719 8.851562 -7.386719 C 8.65625 -7.386719 8.460938 -7.339844 8.238281 -7.363281 C 8.019531 -7.363281 7.824219 -7.4375 7.605469 -7.4375 C 7.386719 -7.4375 7.191406 -7.386719 6.972656 -7.410156 C 6.777344 -7.410156 6.558594 -7.4375 6.363281 -7.4375 C 6.144531 -7.460938 5.925781 -7.460938 5.753906 -7.460938 C 5.507812 -7.484375 5.242188 -7.53125 5.023438 -7.53125 C 4.609375 -7.53125 4.535156 -7.242188 4.265625 -7.507812 C 4 -7.753906 4.289062 -7.875 4.265625 -8.265625 C 4.265625 -8.507812 4.265625 -8.777344 4.265625 -9.019531 C 4.265625 -9.265625 4.265625 -9.386719 4.289062 -9.605469 C 4.339844 -9.75 4.386719 -9.921875 4.4375 -10.191406 C 4.65625 -10.191406 4.851562 -10.214844 5.09375 -10.214844 Z M 5.09375 -10.214844 "/></g></g></g><g fill="#000000" fill-opacity="1"><g transform="translate(221.690162, 196.031117)"><g><path d="M 8.582031 0.046875 C 8.777344 0.0234375 8.996094 0 9.214844 -0.046875 C 9.410156 -0.121094 9.605469 -0.171875 9.800781 -0.242188 C 9.996094 -0.339844 10.167969 -0.488281 10.359375 -0.585938 C 10.53125 -0.683594 10.75 -0.753906 10.921875 -0.878906 C 11.164062 -1.046875 11.3125 -1.242188 11.457031 -1.363281 C 11.703125 -1.585938 11.847656 -1.753906 11.921875 -1.902344 C 12.019531 -2.144531 11.898438 -2.292969 11.703125 -2.535156 C 11.582031 -2.683594 11.410156 -2.851562 11.238281 -3.070312 C 11.066406 -3.292969 10.921875 -3.4375 10.800781 -3.511719 C 10.628906 -3.632812 10.457031 -3.679688 10.214844 -3.582031 C 10.042969 -3.511719 9.875 -3.4375 9.628906 -3.292969 C 9.484375 -3.195312 9.335938 -3.070312 9.117188 -2.925781 C 8.945312 -2.828125 8.753906 -2.753906 8.558594 -2.632812 C 8.363281 -2.511719 8.144531 -2.414062 7.921875 -2.363281 C 7.703125 -2.339844 7.460938 -2.316406 7.242188 -2.339844 C 6.996094 -2.390625 6.777344 -2.4375 6.558594 -2.488281 C 6.339844 -2.558594 6.09375 -2.65625 5.898438 -2.753906 C 5.679688 -2.851562 5.507812 -3.023438 5.339844 -3.167969 C 5.144531 -3.316406 4.996094 -3.511719 4.875 -3.707031 C 4.730469 -3.875 4.582031 -4.070312 4.484375 -4.289062 C 4.386719 -4.484375 4.265625 -4.707031 4.191406 -4.925781 C 4.121094 -5.167969 4.121094 -5.386719 4.070312 -5.632812 C 4.046875 -5.875 4 -6.09375 3.972656 -6.339844 C 3.972656 -6.582031 4.023438 -6.800781 4.046875 -7.046875 C 4.046875 -7.265625 4.070312 -7.460938 4.09375 -7.679688 C 4.144531 -7.875 4.144531 -8.09375 4.191406 -8.3125 C 4.265625 -8.507812 4.386719 -8.703125 4.484375 -8.875 C 4.582031 -9.070312 4.679688 -9.265625 4.828125 -9.433594 C 4.949219 -9.582031 5.144531 -9.679688 5.316406 -9.824219 C 5.484375 -9.945312 5.679688 -10.042969 5.875 -10.117188 C 6.070312 -10.214844 6.242188 -10.261719 6.460938 -10.289062 C 6.703125 -10.3125 6.921875 -10.359375 7.144531 -10.359375 C 7.363281 -10.359375 7.582031 -10.335938 7.800781 -10.3125 C 8.019531 -10.261719 8.238281 -10.214844 8.460938 -10.117188 C 8.65625 -10.042969 8.851562 -9.898438 9.019531 -9.777344 C 9.238281 -9.628906 9.460938 -9.53125 9.628906 -9.410156 C 9.847656 -9.265625 10.042969 -9.140625 10.214844 -9.042969 C 10.457031 -8.921875 10.679688 -8.824219 10.875 -8.898438 C 11.042969 -8.945312 11.191406 -9.140625 11.386719 -9.386719 C 11.53125 -9.582031 11.703125 -9.824219 11.800781 -10.09375 C 11.898438 -10.359375 11.96875 -10.652344 11.898438 -10.898438 C 11.824219 -11.066406 11.675781 -11.191406 11.53125 -11.3125 C 11.386719 -11.433594 11.261719 -11.605469 11.140625 -11.726562 C 10.96875 -11.847656 10.800781 -11.96875 10.628906 -12.09375 C 10.433594 -12.214844 10.238281 -12.285156 10.070312 -12.382812 C 9.875 -12.480469 9.703125 -12.605469 9.507812 -12.675781 C 9.3125 -12.773438 9.09375 -12.800781 8.898438 -12.847656 C 8.679688 -12.898438 8.484375 -12.96875 8.265625 -12.992188 C 8.046875 -13.019531 7.824219 -13.066406 7.605469 -13.066406 C 7.386719 -13.066406 7.167969 -13.019531 6.921875 -12.992188 C 6.730469 -12.96875 6.507812 -12.945312 6.265625 -12.921875 C 6.070312 -12.871094 5.828125 -12.847656 5.632812 -12.800781 C 5.414062 -12.726562 5.21875 -12.605469 5.023438 -12.53125 C 4.800781 -12.457031 4.609375 -12.359375 4.414062 -12.285156 C 4.191406 -12.191406 4 -12.09375 3.828125 -11.996094 C 3.632812 -11.871094 3.4375 -11.75 3.292969 -11.605469 C 3.097656 -11.457031 2.925781 -11.335938 2.777344 -11.164062 C 2.65625 -11.019531 2.535156 -10.824219 2.414062 -10.628906 C 2.316406 -10.457031 2.167969 -10.289062 2.070312 -10.09375 C 1.976562 -9.898438 1.878906 -9.679688 1.804688 -9.484375 C 1.730469 -9.289062 1.65625 -9.070312 1.585938 -8.851562 C 1.535156 -8.65625 1.511719 -8.433594 1.460938 -8.214844 C 1.414062 -7.996094 1.363281 -7.800781 1.339844 -7.582031 C 1.316406 -7.363281 1.292969 -7.144531 1.292969 -6.921875 C 1.269531 -6.703125 1.242188 -6.484375 1.269531 -6.265625 C 1.269531 -6.070312 1.292969 -5.851562 1.292969 -5.632812 C 1.316406 -5.414062 1.316406 -5.191406 1.339844 -4.972656 C 1.390625 -4.753906 1.460938 -4.558594 1.511719 -4.339844 C 1.585938 -4.121094 1.632812 -3.925781 1.707031 -3.707031 C 1.78125 -3.511719 1.828125 -3.292969 1.902344 -3.097656 C 2 -2.875 2.121094 -2.707031 2.21875 -2.511719 C 2.316406 -2.316406 2.390625 -2.121094 2.511719 -1.925781 C 2.632812 -1.730469 2.730469 -1.558594 2.875 -1.390625 C 3 -1.195312 3.195312 -1.074219 3.390625 -0.925781 C 3.558594 -0.804688 3.730469 -0.632812 3.949219 -0.535156 C 4.144531 -0.414062 4.363281 -0.339844 4.582031 -0.242188 C 4.777344 -0.171875 5.023438 -0.144531 5.242188 -0.0976562 C 5.460938 -0.0234375 5.679688 0 5.925781 0.046875 C 6.144531 0.0742188 6.363281 0.144531 6.582031 0.144531 C 6.824219 0.171875 7.046875 0.21875 7.265625 0.21875 C 7.507812 0.21875 7.753906 0.144531 7.949219 0.144531 C 8.167969 0.121094 8.363281 0.0976562 8.582031 0.046875 Z M 8.582031 0.046875 "/></g></g></g><g fill="#000000" fill-opacity="1"><g transform="translate(241.047657, 196.031117)"><g><path d="M 4.484375 -5.828125 C 4.484375 -6.046875 4.535156 -6.265625 4.535156 -6.484375 C 4.535156 -6.703125 4.535156 -6.921875 4.535156 -7.167969 C 4.535156 -7.386719 4.484375 -7.605469 4.484375 -7.824219 C 4.484375 -8.046875 4.511719 -8.265625 4.511719 -8.507812 C 4.511719 -8.726562 4.484375 -8.945312 4.484375 -9.167969 C 4.484375 -9.386719 4.535156 -9.605469 4.535156 -9.824219 C 4.535156 -10.042969 4.558594 -10.289062 4.558594 -10.484375 C 4.558594 -10.726562 4.535156 -10.945312 4.535156 -11.164062 C 4.535156 -11.410156 4.484375 -11.628906 4.484375 -11.824219 C 4.4375 -12.09375 4.414062 -12.285156 4.339844 -12.457031 C 4.21875 -12.675781 4.070312 -12.773438 3.828125 -12.824219 C 3.65625 -12.847656 3.4375 -12.898438 3.167969 -12.898438 C 2.925781 -12.921875 2.707031 -12.871094 2.535156 -12.847656 C 2.292969 -12.824219 2.144531 -12.726562 2.046875 -12.480469 C 1.976562 -12.335938 1.878906 -12.140625 1.851562 -11.871094 C 1.828125 -11.675781 1.902344 -11.457031 1.902344 -11.214844 C 1.902344 -10.996094 1.878906 -10.777344 1.878906 -10.554688 C 1.878906 -10.335938 1.828125 -10.117188 1.828125 -9.898438 C 1.828125 -9.679688 1.878906 -9.460938 1.878906 -9.238281 C 1.878906 -9.019531 1.804688 -8.800781 1.804688 -8.582031 C 1.804688 -8.363281 1.804688 -8.144531 1.804688 -7.921875 C 1.804688 -7.703125 1.828125 -7.484375 1.828125 -7.289062 C 1.828125 -7.070312 1.804688 -6.851562 1.804688 -6.632812 C 1.804688 -6.410156 1.828125 -6.191406 1.828125 -5.972656 C 1.828125 -5.753906 1.804688 -5.535156 1.804688 -5.316406 C 1.804688 -5.09375 1.753906 -4.875 1.753906 -4.65625 C 1.753906 -4.460938 1.78125 -4.242188 1.78125 -4 C 1.78125 -3.804688 1.753906 -3.582031 1.753906 -3.339844 C 1.753906 -3.144531 1.730469 -2.925781 1.730469 -2.683594 C 1.730469 -2.488281 1.78125 -2.265625 1.78125 -2.046875 C 1.78125 -1.828125 1.753906 -1.609375 1.730469 -1.339844 C 1.730469 -1.144531 1.707031 -0.925781 1.707031 -0.660156 C 1.683594 -0.367188 1.828125 -0.195312 2.046875 -0.0742188 C 2.292969 0.046875 2.585938 0.121094 2.753906 0.0976562 C 2.972656 0.0976562 3.21875 0.0742188 3.4375 0.046875 C 3.679688 0.0234375 3.925781 0.046875 4.121094 -0.0234375 C 4.386719 -0.121094 4.535156 -0.292969 4.511719 -0.535156 C 4.511719 -0.730469 4.511719 -0.925781 4.511719 -1.097656 C 4.484375 -1.292969 4.484375 -1.488281 4.484375 -1.683594 C 4.484375 -1.878906 4.511719 -2.070312 4.511719 -2.242188 C 4.511719 -2.558594 4.484375 -2.777344 4.511719 -2.972656 C 4.511719 -3.339844 4.511719 -3.511719 4.511719 -3.707031 C 4.511719 -3.875 4.511719 -4.070312 4.511719 -4.414062 C 4.511719 -4.609375 4.535156 -4.851562 4.535156 -5.167969 C 4.535156 -5.363281 4.484375 -5.582031 4.484375 -5.828125 Z M 4.484375 -5.828125 "/></g></g></g><g fill="#000000" fill-opacity="1"><g transform="translate(253.677619, 196.031117)"><g><path d="M 5.046875 -4.875 C 5.265625 -4.898438 5.507812 -4.875 5.753906 -4.898438 C 5.996094 -4.898438 6.242188 -4.925781 6.460938 -4.949219 C 6.703125 -4.949219 6.949219 -4.898438 7.191406 -4.925781 C 7.4375 -4.925781 7.679688 -4.996094 7.898438 -4.996094 C 8.144531 -5.023438 8.386719 -4.996094 8.605469 -5.023438 C 8.824219 -5.046875 9.042969 -5.09375 9.238281 -5.167969 C 9.460938 -5.242188 9.652344 -5.316406 9.847656 -5.4375 C 10.042969 -5.535156 10.214844 -5.679688 10.359375 -5.828125 C 10.53125 -5.972656 10.703125 -6.144531 10.824219 -6.3125 C 10.96875 -6.484375 11.09375 -6.65625 11.191406 -6.851562 C 11.3125 -7.046875 11.386719 -7.265625 11.457031 -7.460938 C 11.53125 -7.679688 11.605469 -7.875 11.652344 -8.09375 C 11.703125 -8.3125 11.703125 -8.53125 11.726562 -8.753906 C 11.726562 -8.972656 11.726562 -9.191406 11.726562 -9.410156 C 11.703125 -9.652344 11.675781 -9.875 11.628906 -10.070312 C 11.582031 -10.289062 11.53125 -10.507812 11.457031 -10.703125 C 11.386719 -10.921875 11.289062 -11.117188 11.164062 -11.3125 C 11.042969 -11.484375 10.898438 -11.652344 10.726562 -11.800781 C 10.582031 -11.945312 10.410156 -12.09375 10.214844 -12.191406 C 10.019531 -12.3125 9.824219 -12.433594 9.605469 -12.507812 C 9.410156 -12.554688 9.214844 -12.675781 8.972656 -12.703125 C 8.777344 -12.75 8.558594 -12.726562 8.335938 -12.75 C 8.117188 -12.800781 7.898438 -12.824219 7.679688 -12.824219 C 7.460938 -12.847656 7.242188 -12.871094 7.019531 -12.871094 C 6.824219 -12.898438 6.605469 -12.898438 6.386719 -12.898438 C 6.167969 -12.921875 5.949219 -12.898438 5.730469 -12.898438 C 5.507812 -12.921875 5.289062 -12.945312 5.09375 -12.945312 C 4.851562 -12.945312 4.632812 -12.945312 4.4375 -12.921875 C 4.21875 -12.921875 4 -12.898438 3.777344 -12.871094 C 3.511719 -12.847656 3.265625 -12.871094 3.070312 -12.871094 C 2.753906 -12.871094 2.511719 -12.871094 2.339844 -12.824219 C 2.070312 -12.800781 1.902344 -12.675781 1.828125 -12.382812 C 1.78125 -12.191406 1.804688 -11.96875 1.804688 -11.652344 C 1.804688 -11.433594 1.78125 -11.191406 1.78125 -10.96875 C 1.78125 -10.75 1.804688 -10.53125 1.804688 -10.3125 C 1.804688 -10.070312 1.78125 -9.847656 1.78125 -9.628906 C 1.78125 -9.410156 1.828125 -9.167969 1.828125 -8.945312 C 1.828125 -8.726562 1.828125 -8.507812 1.828125 -8.265625 C 1.828125 -8.046875 1.804688 -7.824219 1.804688 -7.605469 C 1.828125 -7.363281 1.78125 -7.144531 1.78125 -6.921875 C 1.78125 -6.703125 1.804688 -6.460938 1.804688 -6.242188 C 1.804688 -6.023438 1.804688 -5.800781 1.804688 -5.558594 C 1.804688 -5.339844 1.804688 -5.121094 1.804688 -4.898438 C 1.804688 -4.679688 1.828125 -4.4375 1.828125 -4.21875 C 1.828125 -4 1.828125 -3.777344 1.828125 -3.558594 C 1.828125 -3.316406 1.878906 -3.097656 1.902344 -2.875 C 1.902344 -2.65625 1.828125 -2.4375 1.828125 -2.21875 C 1.828125 -1.976562 1.902344 -1.753906 1.902344 -1.535156 C 1.902344 -1.242188 1.804688 -1.339844 1.851562 -0.632812 C 1.851562 -0.316406 2.046875 -0.144531 2.265625 -0.0742188 C 2.511719 0.046875 2.804688 0.0234375 3 0.0234375 C 3.144531 0.046875 3.460938 0.0234375 3.777344 -0.0234375 C 4.144531 -0.0742188 4.460938 -0.171875 4.460938 -0.339844 C 4.4375 -0.535156 4.4375 -0.730469 4.4375 -0.902344 C 4.414062 -1.097656 4.4375 -1.269531 4.4375 -1.4375 C 4.460938 -1.632812 4.414062 -1.828125 4.414062 -2 C 4.414062 -2.242188 4.4375 -2.488281 4.4375 -2.707031 C 4.4375 -2.925781 4.386719 -3.167969 4.386719 -3.390625 C 4.363281 -3.609375 4.386719 -3.851562 4.363281 -4.121094 C 4.363281 -4.316406 4.363281 -4.535156 4.339844 -4.800781 C 4.582031 -4.800781 4.800781 -4.875 5.046875 -4.875 Z M 4.316406 -7.921875 C 4.316406 -8.117188 4.339844 -8.335938 4.339844 -8.53125 C 4.339844 -8.753906 4.316406 -8.945312 4.316406 -9.140625 C 4.316406 -9.363281 4.316406 -9.554688 4.316406 -9.777344 C 4.316406 -9.972656 4.316406 -10.167969 4.289062 -10.359375 C 4.511719 -10.359375 4.730469 -10.359375 4.972656 -10.359375 C 5.21875 -10.359375 5.4375 -10.359375 5.679688 -10.359375 C 5.925781 -10.359375 6.167969 -10.433594 6.386719 -10.433594 C 6.632812 -10.433594 6.875 -10.359375 7.09375 -10.359375 C 7.339844 -10.335938 7.582031 -10.386719 7.777344 -10.335938 C 7.996094 -10.3125 8.167969 -10.191406 8.335938 -10.140625 C 8.53125 -10.070312 8.703125 -9.996094 8.851562 -9.875 C 8.996094 -9.75 9.117188 -9.605469 9.191406 -9.433594 C 9.265625 -9.265625 9.289062 -9.070312 9.289062 -8.851562 C 9.289062 -8.582031 9.214844 -8.335938 9.09375 -8.117188 C 8.945312 -7.921875 8.753906 -7.753906 8.507812 -7.628906 C 8.3125 -7.558594 8.046875 -7.507812 7.753906 -7.484375 C 7.558594 -7.460938 7.339844 -7.410156 7.09375 -7.386719 C 6.875 -7.386719 6.632812 -7.410156 6.386719 -7.386719 C 6.167969 -7.386719 5.949219 -7.339844 5.703125 -7.339844 C 5.484375 -7.3125 5.242188 -7.339844 5.023438 -7.339844 C 4.777344 -7.339844 4.558594 -7.3125 4.363281 -7.3125 C 4.363281 -7.53125 4.316406 -7.703125 4.316406 -7.921875 Z M 4.316406 -7.921875 "/></g></g></g><g fill="#000000" fill-opacity="1"><g transform="translate(272.693852, 196.031117)"><g><path d="M 5.09375 -10.214844 C 5.316406 -10.214844 5.535156 -10.214844 5.753906 -10.214844 C 5.996094 -10.214844 6.214844 -10.167969 6.4375 -10.167969 C 6.65625 -10.167969 6.898438 -10.214844 7.117188 -10.214844 C 7.339844 -10.214844 7.558594 -10.214844 7.777344 -10.214844 C 8.019531 -10.214844 8.238281 -10.167969 8.460938 -10.167969 C 8.679688 -10.167969 8.921875 -10.191406 9.117188 -10.191406 C 9.363281 -10.191406 9.582031 -10.214844 9.800781 -10.214844 C 10.070312 -10.214844 10.289062 -10.214844 10.457031 -10.3125 C 10.652344 -10.410156 10.75 -10.582031 10.847656 -10.800781 C 10.921875 -10.996094 10.96875 -11.191406 10.996094 -11.457031 C 10.996094 -11.652344 11.042969 -11.847656 11.042969 -12.042969 C 11.042969 -12.238281 11.019531 -12.433594 10.875 -12.554688 C 10.777344 -12.652344 10.605469 -12.726562 10.359375 -12.773438 C 10.191406 -12.800781 10.019531 -12.847656 9.777344 -12.847656 C 9.582031 -12.847656 9.335938 -12.800781 9.09375 -12.800781 C 8.875 -12.800781 8.628906 -12.824219 8.386719 -12.800781 C 8.167969 -12.800781 7.921875 -12.824219 7.703125 -12.824219 C 7.460938 -12.824219 7.214844 -12.773438 6.996094 -12.75 C 6.753906 -12.75 6.507812 -12.75 6.3125 -12.75 C 6.121094 -12.75 5.898438 -12.726562 5.679688 -12.75 C 5.484375 -12.75 5.265625 -12.726562 5.046875 -12.726562 C 4.851562 -12.75 4.632812 -12.75 4.414062 -12.75 C 4.21875 -12.773438 4 -12.824219 3.777344 -12.847656 C 3.582031 -12.847656 3.363281 -12.800781 3.144531 -12.800781 C 2.949219 -12.824219 2.730469 -12.847656 2.511719 -12.847656 C 2.316406 -12.847656 2.121094 -12.800781 1.925781 -12.800781 C 1.902344 -12.578125 1.851562 -12.382812 1.851562 -12.164062 C 1.828125 -11.945312 1.878906 -11.726562 1.878906 -11.507812 C 1.878906 -11.289062 1.828125 -11.066406 1.828125 -10.847656 C 1.828125 -10.628906 1.851562 -10.410156 1.828125 -10.191406 C 1.828125 -9.945312 1.828125 -9.726562 1.828125 -9.507812 C 1.828125 -9.289062 1.828125 -9.070312 1.828125 -8.851562 C 1.828125 -8.628906 1.804688 -8.410156 1.78125 -8.191406 C 1.78125 -7.972656 1.851562 -7.753906 1.851562 -7.53125 C 1.851562 -7.3125 1.78125 -7.09375 1.78125 -6.875 C 1.78125 -6.65625 1.828125 -6.4375 1.804688 -6.214844 C 1.804688 -5.996094 1.78125 -5.800781 1.78125 -5.582031 C 1.78125 -5.363281 1.78125 -5.144531 1.78125 -4.925781 C 1.78125 -4.707031 1.78125 -4.484375 1.78125 -4.265625 C 1.78125 -4.046875 1.78125 -3.828125 1.78125 -3.609375 C 1.78125 -3.390625 1.78125 -3.167969 1.78125 -2.949219 C 1.78125 -2.730469 1.730469 -2.511719 1.730469 -2.292969 C 1.707031 -2.070312 1.78125 -1.851562 1.78125 -1.632812 C 1.78125 -1.414062 1.78125 -1.195312 1.78125 -0.976562 C 1.78125 -0.828125 1.878906 -0.585938 2.046875 -0.414062 C 2.242188 -0.21875 2.460938 -0.121094 2.632812 -0.121094 C 2.851562 -0.121094 3.070312 -0.0742188 3.316406 -0.0742188 C 3.535156 -0.0742188 3.753906 -0.0234375 4 -0.0234375 C 4.21875 -0.0234375 4.4375 -0.0234375 4.679688 -0.0234375 C 4.898438 0 5.121094 -0.0234375 5.363281 -0.0234375 C 5.582031 -0.0234375 5.828125 0.0234375 6.046875 0.0234375 C 6.265625 0.046875 6.507812 0.0234375 6.730469 0.0234375 C 6.972656 0.046875 7.191406 0 7.410156 0 C 7.65625 0 7.875 0 8.09375 0 C 8.335938 0 8.558594 0.046875 8.777344 0.046875 C 9.019531 0.046875 9.238281 0.0234375 9.460938 0.0234375 C 9.703125 0.0234375 9.921875 0.0234375 10.140625 0 C 10.410156 0 10.582031 -0.0976562 10.703125 -0.269531 C 10.824219 -0.414062 10.875 -0.632812 10.847656 -0.878906 C 10.800781 -1.074219 10.75 -1.316406 10.628906 -1.511719 C 10.507812 -1.65625 10.410156 -1.902344 10.289062 -2.121094 C 10.167969 -2.363281 10.019531 -2.535156 9.800781 -2.558594 C 9.605469 -2.585938 9.410156 -2.585938 9.167969 -2.585938 C 8.972656 -2.585938 8.753906 -2.585938 8.53125 -2.585938 C 8.3125 -2.585938 8.09375 -2.632812 7.898438 -2.632812 C 7.679688 -2.632812 7.460938 -2.585938 7.265625 -2.558594 C 7.046875 -2.558594 6.824219 -2.609375 6.605469 -2.609375 C 6.386719 -2.609375 6.167969 -2.585938 5.996094 -2.585938 C 5.777344 -2.609375 5.582031 -2.609375 5.414062 -2.609375 C 5.191406 -2.609375 4.996094 -2.585938 4.828125 -2.585938 C 4.460938 -2.585938 4.4375 -2.390625 4.21875 -2.585938 C 3.949219 -2.875 4.191406 -2.902344 4.167969 -3.363281 C 4.167969 -3.582031 4.144531 -3.851562 4.144531 -4.144531 C 4.167969 -4.460938 4.070312 -4.558594 4.167969 -4.972656 C 4.363281 -4.972656 4.582031 -4.949219 4.828125 -4.949219 C 5.046875 -4.949219 5.265625 -4.972656 5.484375 -4.972656 C 5.703125 -4.972656 5.949219 -4.949219 6.167969 -4.949219 C 6.386719 -4.949219 6.605469 -4.996094 6.824219 -4.996094 C 7.070312 -4.996094 7.289062 -4.949219 7.484375 -4.949219 C 7.753906 -4.949219 7.972656 -4.949219 8.167969 -4.949219 C 8.433594 -4.949219 8.65625 -5.023438 8.824219 -5.070312 C 9.09375 -5.121094 9.3125 -5.191406 9.433594 -5.339844 C 9.554688 -5.507812 9.628906 -5.730469 9.652344 -5.996094 C 9.652344 -6.191406 9.582031 -6.410156 9.554688 -6.65625 C 9.53125 -6.875 9.53125 -7.09375 9.484375 -7.339844 C 9.3125 -7.363281 9.09375 -7.386719 8.851562 -7.386719 C 8.65625 -7.386719 8.460938 -7.339844 8.238281 -7.363281 C 8.019531 -7.363281 7.824219 -7.4375 7.605469 -7.4375 C 7.386719 -7.4375 7.191406 -7.386719 6.972656 -7.410156 C 6.777344 -7.410156 6.558594 -7.4375 6.363281 -7.4375 C 6.144531 -7.460938 5.925781 -7.460938 5.753906 -7.460938 C 5.507812 -7.484375 5.242188 -7.53125 5.023438 -7.53125 C 4.609375 -7.53125 4.535156 -7.242188 4.265625 -7.507812 C 4 -7.753906 4.289062 -7.875 4.265625 -8.265625 C 4.265625 -8.507812 4.265625 -8.777344 4.265625 -9.019531 C 4.265625 -9.265625 4.265625 -9.386719 4.289062 -9.605469 C 4.339844 -9.75 4.386719 -9.921875 4.4375 -10.191406 C 4.65625 -10.191406 4.851562 -10.214844 5.09375 -10.214844 Z M 5.09375 -10.214844 "/></g></g></g></svg>