<svg xmlns="http://www.w3.org/2000/svg" xmlns:xlink="http://www.w3.org/1999/xlink" width="500" zoomAndPan="magnify" viewBox="0 0 375 374.999991" height="500" preserveAspectRatio="xMidYMid meet" version="1.0"><path fill="#ffa000" d="M 354.613281 127.171875 L 220.917969 39.691406 C 219.699219 38.851562 218.449219 38.058594 217.167969 37.3125 C 215.886719 36.570312 214.582031 35.871094 213.25 35.226562 C 211.917969 34.578125 210.5625 33.984375 209.183594 33.441406 C 207.808594 32.894531 206.410156 32.402344 204.996094 31.964844 C 203.582031 31.523438 202.152344 31.140625 200.710938 30.808594 C 199.265625 30.476562 197.8125 30.199219 196.347656 29.976562 C 194.882812 29.753906 193.414062 29.585938 191.9375 29.476562 C 190.460938 29.363281 188.980469 29.308594 187.5 29.308594 C 186.019531 29.308594 184.539062 29.363281 183.0625 29.476562 C 181.585938 29.585938 180.117188 29.753906 178.652344 29.976562 C 177.1875 30.199219 175.734375 30.476562 174.289062 30.808594 C 172.847656 31.140625 171.417969 31.523438 170.003906 31.964844 C 168.589844 32.402344 167.191406 32.894531 165.816406 33.441406 C 164.4375 33.984375 163.082031 34.578125 161.75 35.226562 C 160.417969 35.871094 159.113281 36.570312 157.832031 37.3125 C 156.550781 38.058594 155.300781 38.851562 154.082031 39.691406 L 20.386719 127.171875 C 18.808594 128.378906 17.304688 129.671875 15.875 131.050781 C 14.449219 132.433594 13.101562 133.890625 11.839844 135.421875 C 10.578125 136.957031 9.410156 138.558594 8.332031 140.226562 C 7.253906 141.894531 6.277344 143.621094 5.398438 145.398438 C 4.519531 147.179688 3.742188 149.007812 3.074219 150.875 C 2.40625 152.746094 1.84375 154.648438 1.394531 156.582031 C 0.941406 158.515625 0.605469 160.46875 0.378906 162.445312 C 0.152344 164.417969 0.0390625 166.394531 0.0390625 168.382812 L 0.0390625 322.90625 C 0.0390625 324.609375 0.125 326.308594 0.289062 328.003906 C 0.457031 329.699219 0.707031 331.382812 1.039062 333.054688 C 1.371094 334.726562 1.785156 336.375 2.28125 338.003906 C 2.773438 339.636719 3.347656 341.238281 4 342.8125 C 4.652344 344.386719 5.378906 345.921875 6.183594 347.425781 C 6.984375 348.929688 7.859375 350.386719 8.804688 351.804688 C 9.753906 353.21875 10.765625 354.585938 11.847656 355.902344 C 12.925781 357.21875 14.070312 358.480469 15.273438 359.683594 C 16.480469 360.890625 17.738281 362.03125 19.054688 363.113281 C 20.375 364.195312 21.738281 365.207031 23.15625 366.152344 C 24.574219 367.101562 26.03125 367.976562 27.535156 368.777344 C 29.035156 369.582031 30.574219 370.308594 32.148438 370.960938 C 33.722656 371.613281 35.324219 372.183594 36.953125 372.679688 C 38.585938 373.175781 40.234375 373.585938 41.90625 373.917969 C 43.574219 374.253906 45.257812 374.5 46.953125 374.667969 C 48.648438 374.835938 50.347656 374.917969 52.050781 374.917969 L 322.949219 374.917969 C 324.652344 374.917969 326.351562 374.835938 328.046875 374.667969 C 329.742188 374.5 331.425781 374.253906 333.09375 373.917969 C 334.765625 373.585938 336.414062 373.175781 338.046875 372.679688 C 339.675781 372.183594 341.277344 371.613281 342.851562 370.960938 C 344.425781 370.308594 345.964844 369.582031 347.464844 368.777344 C 348.96875 367.976562 350.425781 367.101562 351.84375 366.152344 C 353.261719 365.207031 354.625 364.195312 355.945312 363.113281 C 357.261719 362.03125 358.519531 360.890625 359.726562 359.683594 C 360.929688 358.480469 362.074219 357.21875 363.152344 355.902344 C 364.234375 354.585938 365.246094 353.21875 366.195312 351.804688 C 367.140625 350.386719 368.015625 348.929688 368.816406 347.425781 C 369.621094 345.921875 370.347656 344.386719 371 342.8125 C 371.652344 341.238281 372.226562 339.636719 372.71875 338.003906 C 373.214844 336.375 373.628906 334.726562 373.960938 333.054688 C 374.292969 331.382812 374.542969 329.699219 374.710938 328.003906 C 374.875 326.308594 374.960938 324.609375 374.960938 322.90625 L 374.960938 168.367188 C 374.960938 166.378906 374.847656 164.402344 374.621094 162.429688 C 374.394531 160.457031 374.054688 158.503906 373.601562 156.570312 C 373.152344 154.636719 372.59375 152.734375 371.921875 150.867188 C 371.253906 148.996094 370.476562 147.171875 369.597656 145.394531 C 368.71875 143.613281 367.742188 141.890625 366.664062 140.222656 C 365.585938 138.554688 364.417969 136.953125 363.15625 135.417969 C 361.894531 133.886719 360.550781 132.429688 359.121094 131.050781 C 357.695312 129.671875 356.191406 128.378906 354.613281 127.171875 Z M 354.613281 127.171875 " fill-opacity="1" fill-rule="nonzero"/><path fill="#f3f5f9" d="M 316.78125 374.917969 L 316.78125 12.929688 C 316.78125 12.078125 316.699219 11.238281 316.535156 10.40625 C 316.367188 9.574219 316.125 8.765625 315.796875 7.980469 C 315.472656 7.195312 315.074219 6.453125 314.605469 5.746094 C 314.132812 5.039062 313.597656 4.386719 312.996094 3.785156 C 312.394531 3.1875 311.742188 2.652344 311.035156 2.179688 C 310.332031 1.707031 309.585938 1.308594 308.800781 0.984375 C 308.015625 0.660156 307.207031 0.414062 306.375 0.25 C 305.542969 0.0820312 304.703125 0 303.855469 0 L 71.144531 0 C 70.296875 0 69.457031 0.0820312 68.625 0.25 C 67.792969 0.414062 66.984375 0.660156 66.199219 0.984375 C 65.414062 1.308594 64.667969 1.707031 63.964844 2.179688 C 63.257812 2.652344 62.605469 3.1875 62.003906 3.785156 C 61.402344 4.386719 60.867188 5.039062 60.394531 5.746094 C 59.925781 6.453125 59.527344 7.195312 59.203125 7.980469 C 58.875 8.765625 58.632812 9.574219 58.464844 10.40625 C 58.300781 11.238281 58.21875 12.078125 58.21875 12.929688 L 58.21875 374.917969 Z M 316.78125 374.917969 " fill-opacity="1" fill-rule="nonzero"/><path fill="#ffc107" d="M 374.960938 168.390625 L 374.960938 322.882812 C 374.960938 324.585938 374.878906 326.289062 374.710938 327.984375 C 374.546875 329.679688 374.296875 331.363281 373.964844 333.035156 C 373.632812 334.707031 373.21875 336.359375 372.726562 337.992188 C 372.230469 339.625 371.660156 341.226562 371.007812 342.800781 C 370.355469 344.375 369.628906 345.914062 368.824219 347.417969 C 368.023438 348.921875 367.148438 350.382812 366.199219 351.800781 C 365.253906 353.21875 364.238281 354.585938 363.15625 355.902344 C 362.078125 357.222656 360.933594 358.480469 359.726562 359.6875 C 358.523438 360.894531 357.261719 362.035156 355.945312 363.117188 C 354.625 364.199219 353.257812 365.210938 351.839844 366.160156 C 350.421875 367.105469 348.964844 367.980469 347.460938 368.785156 C 345.957031 369.585938 344.417969 370.316406 342.839844 370.964844 C 341.265625 371.617188 339.664062 372.191406 338.03125 372.6875 C 336.402344 373.179688 334.75 373.59375 333.078125 373.925781 C 331.40625 374.257812 329.722656 374.503906 328.023438 374.671875 C 326.328125 374.835938 324.628906 374.921875 322.921875 374.917969 L 52.078125 374.917969 C 50.371094 374.921875 48.671875 374.835938 46.976562 374.671875 C 45.277344 374.503906 43.59375 374.257812 41.921875 373.925781 C 40.25 373.59375 38.597656 373.179688 36.96875 372.6875 C 35.335938 372.191406 33.734375 371.617188 32.15625 370.964844 C 30.582031 370.316406 29.042969 369.585938 27.539062 368.785156 C 26.035156 367.980469 24.578125 367.105469 23.160156 366.160156 C 21.742188 365.210938 20.375 364.199219 19.054688 363.117188 C 17.738281 362.035156 16.476562 360.894531 15.273438 359.6875 C 14.066406 358.480469 12.921875 357.222656 11.84375 355.902344 C 10.761719 354.585938 9.746094 353.21875 8.800781 351.800781 C 7.851562 350.382812 6.976562 348.921875 6.175781 347.417969 C 5.371094 345.914062 4.644531 344.375 3.992188 342.800781 C 3.339844 341.226562 2.769531 339.625 2.273438 337.992188 C 1.78125 336.359375 1.367188 334.707031 1.035156 333.035156 C 0.703125 331.363281 0.453125 329.679688 0.289062 327.984375 C 0.121094 326.289062 0.0390625 324.585938 0.0390625 322.882812 L 0.0390625 168.390625 C 0.0351562 164.316406 0.511719 160.296875 1.46875 156.335938 C 2.421875 152.375 3.832031 148.582031 5.695312 144.957031 L 154.082031 277.050781 C 155.234375 278.035156 156.429688 278.960938 157.667969 279.839844 C 158.90625 280.714844 160.175781 281.535156 161.488281 282.300781 C 162.796875 283.0625 164.136719 283.769531 165.507812 284.414062 C 166.878906 285.058594 168.273438 285.644531 169.699219 286.167969 C 171.121094 286.691406 172.5625 287.148438 174.027344 287.542969 C 175.488281 287.941406 176.964844 288.269531 178.457031 288.535156 C 179.949219 288.800781 181.453125 289 182.960938 289.132812 C 184.472656 289.269531 185.984375 289.335938 187.5 289.335938 C 189.015625 289.335938 190.527344 289.269531 192.039062 289.132812 C 193.546875 289 195.050781 288.800781 196.542969 288.535156 C 198.035156 288.269531 199.511719 287.941406 200.972656 287.542969 C 202.4375 287.148438 203.878906 286.691406 205.300781 286.167969 C 206.726562 285.644531 208.121094 285.058594 209.492188 284.414062 C 210.863281 283.769531 212.203125 283.0625 213.511719 282.300781 C 214.824219 281.535156 216.09375 280.714844 217.332031 279.839844 C 218.570312 278.960938 219.765625 278.035156 220.917969 277.050781 L 369.304688 144.925781 C 371.167969 148.554688 372.582031 152.351562 373.535156 156.320312 C 374.492188 160.285156 374.96875 164.308594 374.960938 168.390625 Z M 374.960938 168.390625 " fill-opacity="1" fill-rule="nonzero"/><path fill="#ffd54f" d="M 361.902344 357.335938 C 359.464844 360.105469 356.765625 362.585938 353.800781 364.777344 C 350.835938 366.96875 347.671875 368.820312 344.3125 370.339844 C 340.949219 371.855469 337.46875 373 333.863281 373.769531 C 330.257812 374.542969 326.609375 374.925781 322.921875 374.917969 L 52.078125 374.917969 C 48.648438 374.929688 45.253906 374.601562 41.894531 373.9375 C 38.53125 373.269531 35.269531 372.277344 32.105469 370.957031 C 28.941406 369.640625 25.941406 368.023438 23.101562 366.105469 C 20.257812 364.1875 17.636719 362.007812 15.230469 359.566406 L 154.371094 236.523438 C 155.503906 235.523438 156.675781 234.582031 157.890625 233.691406 C 159.109375 232.796875 160.363281 231.964844 161.652344 231.1875 C 162.945312 230.410156 164.269531 229.691406 165.625 229.03125 C 166.984375 228.375 168.367188 227.777344 169.777344 227.246094 C 171.1875 226.710938 172.621094 226.246094 174.070312 225.839844 C 175.523438 225.4375 176.992188 225.101562 178.476562 224.828125 C 179.960938 224.558594 181.453125 224.355469 182.953125 224.21875 C 184.457031 224.082031 185.960938 224.015625 187.46875 224.015625 C 188.976562 224.015625 190.480469 224.082031 191.980469 224.21875 C 193.484375 224.355469 194.976562 224.558594 196.460938 224.828125 C 197.941406 225.101562 199.410156 225.4375 200.863281 225.839844 C 202.316406 226.246094 203.746094 226.710938 205.15625 227.246094 C 206.570312 227.777344 207.953125 228.375 209.308594 229.03125 C 210.664062 229.691406 211.988281 230.410156 213.28125 231.1875 C 214.574219 231.964844 215.828125 232.796875 217.042969 233.691406 C 218.257812 234.582031 219.433594 235.523438 220.5625 236.523438 Z M 361.902344 357.335938 " fill-opacity="1" fill-rule="nonzero"/><path fill="#ffffff" d="M 64.683594 349.0625 C 64.683594 348.636719 64.722656 348.21875 64.804688 347.800781 C 64.886719 347.386719 65.011719 346.980469 65.171875 346.589844 C 65.335938 346.195312 65.535156 345.824219 65.769531 345.472656 C 66.007812 345.117188 66.273438 344.792969 66.574219 344.492188 C 66.875 344.191406 67.203125 343.921875 67.554688 343.6875 C 67.90625 343.453125 68.28125 343.253906 68.671875 343.089844 C 69.0625 342.929688 69.46875 342.804688 69.882812 342.722656 C 70.300781 342.640625 70.722656 342.597656 71.144531 342.597656 L 97.003906 342.597656 C 97.425781 342.597656 97.847656 342.640625 98.261719 342.722656 C 98.679688 342.804688 99.082031 342.929688 99.476562 343.089844 C 99.867188 343.253906 100.242188 343.453125 100.59375 343.6875 C 100.945312 343.921875 101.273438 344.191406 101.574219 344.492188 C 101.875 344.792969 102.140625 345.117188 102.375 345.472656 C 102.613281 345.824219 102.8125 346.195312 102.972656 346.589844 C 103.136719 346.980469 103.257812 347.386719 103.34375 347.800781 C 103.425781 348.21875 103.464844 348.636719 103.464844 349.0625 C 103.464844 349.488281 103.425781 349.90625 103.34375 350.324219 C 103.257812 350.738281 103.136719 351.144531 102.972656 351.535156 C 102.8125 351.929688 102.613281 352.300781 102.375 352.652344 C 102.140625 353.007812 101.875 353.332031 101.574219 353.632812 C 101.273438 353.933594 100.945312 354.203125 100.59375 354.4375 C 100.242188 354.671875 99.867188 354.871094 99.476562 355.035156 C 99.082031 355.195312 98.679688 355.320312 98.261719 355.402344 C 97.847656 355.484375 97.425781 355.527344 97.003906 355.527344 L 71.144531 355.527344 C 70.722656 355.527344 70.300781 355.484375 69.882812 355.402344 C 69.46875 355.320312 69.0625 355.195312 68.671875 355.035156 C 68.28125 354.871094 67.90625 354.671875 67.554688 354.4375 C 67.203125 354.203125 66.875 353.933594 66.574219 353.632812 C 66.273438 353.332031 66.007812 353.007812 65.769531 352.652344 C 65.535156 352.300781 65.335938 351.929688 65.171875 351.535156 C 65.011719 351.144531 64.886719 350.738281 64.804688 350.324219 C 64.722656 349.90625 64.683594 349.488281 64.683594 349.0625 Z M 64.683594 349.0625 " fill-opacity="1" fill-rule="nonzero"/><path fill="#ffffff" d="M 129.324219 349.0625 C 129.324219 349.488281 129.28125 349.90625 129.199219 350.324219 C 129.117188 350.738281 128.992188 351.144531 128.832031 351.535156 C 128.667969 351.929688 128.46875 352.300781 128.234375 352.652344 C 127.996094 353.007812 127.730469 353.332031 127.429688 353.632812 C 127.128906 353.933594 126.804688 354.203125 126.449219 354.4375 C 126.097656 354.671875 125.722656 354.871094 125.332031 355.035156 C 124.941406 355.195312 124.535156 355.320312 124.121094 355.402344 C 123.703125 355.484375 123.28125 355.527344 122.859375 355.527344 C 122.433594 355.527344 122.015625 355.484375 121.597656 355.402344 C 121.179688 355.320312 120.777344 355.195312 120.386719 355.035156 C 119.992188 354.871094 119.621094 354.671875 119.265625 354.4375 C 118.914062 354.203125 118.589844 353.933594 118.289062 353.632812 C 117.988281 353.332031 117.71875 353.007812 117.484375 352.652344 C 117.25 352.300781 117.050781 351.929688 116.886719 351.535156 C 116.722656 351.144531 116.601562 350.738281 116.519531 350.324219 C 116.4375 349.90625 116.394531 349.488281 116.394531 349.0625 C 116.394531 348.636719 116.4375 348.21875 116.519531 347.800781 C 116.601562 347.386719 116.722656 346.980469 116.886719 346.589844 C 117.050781 346.195312 117.25 345.824219 117.484375 345.472656 C 117.71875 345.117188 117.988281 344.792969 118.289062 344.492188 C 118.589844 344.191406 118.914062 343.921875 119.265625 343.6875 C 119.621094 343.453125 119.992188 343.253906 120.386719 343.089844 C 120.777344 342.929688 121.179688 342.804688 121.597656 342.722656 C 122.015625 342.640625 122.433594 342.597656 122.859375 342.597656 C 123.28125 342.597656 123.703125 342.640625 124.121094 342.722656 C 124.535156 342.804688 124.941406 342.929688 125.332031 343.089844 C 125.722656 343.253906 126.097656 343.453125 126.449219 343.6875 C 126.804688 343.921875 127.128906 344.191406 127.429688 344.492188 C 127.730469 344.792969 127.996094 345.117188 128.234375 345.472656 C 128.46875 345.824219 128.667969 346.195312 128.832031 346.589844 C 128.992188 346.980469 129.117188 347.386719 129.199219 347.800781 C 129.28125 348.21875 129.324219 348.636719 129.324219 349.0625 Z M 129.324219 349.0625 " fill-opacity="1" fill-rule="nonzero"/><path fill="#c02027" d="M 187.5 25.855469 C 186.125 25.855469 184.75 25.890625 183.375 25.957031 C 182.003906 26.023438 180.632812 26.125 179.261719 26.261719 C 177.894531 26.394531 176.53125 26.5625 175.167969 26.765625 C 173.808594 26.96875 172.453125 27.203125 171.105469 27.472656 C 169.757812 27.738281 168.414062 28.039062 167.082031 28.375 C 165.746094 28.710938 164.421875 29.074219 163.105469 29.476562 C 161.789062 29.875 160.484375 30.304688 159.191406 30.769531 C 157.894531 31.230469 156.613281 31.726562 155.339844 32.253906 C 154.070312 32.78125 152.8125 33.335938 151.570312 33.925781 C 150.328125 34.511719 149.101562 35.128906 147.886719 35.777344 C 146.675781 36.425781 145.476562 37.105469 144.296875 37.8125 C 143.117188 38.519531 141.957031 39.253906 140.8125 40.019531 C 139.667969 40.78125 138.546875 41.574219 137.441406 42.394531 C 136.335938 43.214844 135.253906 44.058594 134.191406 44.929688 C 133.125 45.804688 132.085938 46.703125 131.066406 47.625 C 130.046875 48.550781 129.050781 49.496094 128.078125 50.46875 C 127.105469 51.441406 126.160156 52.4375 125.234375 53.457031 C 124.3125 54.476562 123.414062 55.515625 122.542969 56.578125 C 121.667969 57.644531 120.824219 58.726562 120.003906 59.832031 C 119.183594 60.9375 118.394531 62.058594 117.628906 63.203125 C 116.863281 64.347656 116.128906 65.507812 115.421875 66.6875 C 114.714844 67.867188 114.039062 69.0625 113.390625 70.277344 C 112.742188 71.488281 112.121094 72.71875 111.535156 73.960938 C 110.945312 75.203125 110.390625 76.460938 109.863281 77.730469 C 109.335938 79.003906 108.84375 80.285156 108.378906 81.578125 C 107.914062 82.875 107.484375 84.179688 107.085938 85.496094 C 106.6875 86.8125 106.320312 88.136719 105.984375 89.472656 C 105.652344 90.804688 105.347656 92.148438 105.082031 93.496094 C 104.8125 94.84375 104.578125 96.199219 104.375 97.558594 C 104.175781 98.921875 104.003906 100.285156 103.871094 101.652344 C 103.734375 103.023438 103.636719 104.394531 103.566406 105.765625 C 103.5 107.140625 103.464844 108.515625 103.464844 109.890625 C 103.464844 111.265625 103.5 112.640625 103.566406 114.011719 C 103.636719 115.386719 103.734375 116.757812 103.871094 118.125 C 104.003906 119.496094 104.175781 120.859375 104.375 122.21875 C 104.578125 123.582031 104.8125 124.933594 105.082031 126.285156 C 105.347656 127.632812 105.652344 128.972656 105.984375 130.308594 C 106.320312 131.644531 106.6875 132.96875 107.085938 134.285156 C 107.484375 135.601562 107.914062 136.90625 108.378906 138.199219 C 108.84375 139.496094 109.335938 140.777344 109.863281 142.046875 C 110.390625 143.320312 110.945312 144.574219 111.535156 145.820312 C 112.121094 147.0625 112.742188 148.289062 113.390625 149.503906 C 114.039062 150.714844 114.714844 151.914062 115.421875 153.09375 C 116.128906 154.273438 116.863281 155.433594 117.628906 156.578125 C 118.394531 157.71875 119.183594 158.84375 120.003906 159.949219 C 120.824219 161.054688 121.667969 162.136719 122.542969 163.199219 C 123.414062 164.261719 124.3125 165.304688 125.234375 166.324219 C 126.160156 167.34375 127.105469 168.339844 128.078125 169.3125 C 129.050781 170.285156 130.046875 171.230469 131.066406 172.15625 C 132.085938 173.078125 133.125 173.976562 134.191406 174.847656 C 135.253906 175.722656 136.335938 176.566406 137.441406 177.386719 C 138.546875 178.207031 139.667969 178.996094 140.8125 179.761719 C 141.957031 180.527344 143.117188 181.261719 144.296875 181.96875 C 145.476562 182.675781 146.675781 183.351562 147.886719 184 C 149.101562 184.648438 150.328125 185.265625 151.570312 185.855469 C 152.8125 186.445312 154.070312 187 155.339844 187.527344 C 156.613281 188.054688 157.894531 188.546875 159.191406 189.011719 C 160.484375 189.476562 161.789062 189.90625 163.105469 190.304688 C 164.421875 190.703125 165.746094 191.070312 167.082031 191.40625 C 168.414062 191.738281 169.757812 192.039062 171.105469 192.308594 C 172.453125 192.578125 173.808594 192.8125 175.167969 193.015625 C 176.53125 193.214844 177.894531 193.382812 179.261719 193.519531 C 180.632812 193.652344 182.003906 193.753906 183.375 193.824219 C 184.75 193.890625 186.125 193.921875 187.5 193.921875 C 187.925781 193.921875 188.34375 193.882812 188.761719 193.800781 C 189.175781 193.714844 189.582031 193.59375 189.972656 193.429688 C 190.367188 193.269531 190.738281 193.070312 191.089844 192.835938 C 191.445312 192.597656 191.769531 192.332031 192.070312 192.03125 C 192.371094 191.730469 192.640625 191.402344 192.875 191.050781 C 193.109375 190.699219 193.308594 190.324219 193.472656 189.933594 C 193.632812 189.542969 193.757812 189.136719 193.839844 188.71875 C 193.921875 188.304688 193.964844 187.882812 193.964844 187.460938 C 193.964844 187.035156 193.921875 186.613281 193.839844 186.199219 C 193.757812 185.78125 193.632812 185.378906 193.472656 184.984375 C 193.308594 184.59375 193.109375 184.222656 192.875 183.867188 C 192.640625 183.515625 192.371094 183.1875 192.070312 182.890625 C 191.769531 182.589844 191.445312 182.320312 191.089844 182.085938 C 190.738281 181.847656 190.367188 181.648438 189.972656 181.488281 C 189.582031 181.324219 189.175781 181.203125 188.761719 181.121094 C 188.34375 181.035156 187.925781 180.996094 187.5 180.996094 C 186.335938 180.996094 185.171875 180.96875 184.011719 180.910156 C 182.847656 180.851562 181.6875 180.765625 180.53125 180.652344 C 179.371094 180.539062 178.21875 180.398438 177.066406 180.226562 C 175.914062 180.054688 174.769531 179.855469 173.628906 179.628906 C 172.488281 179.402344 171.351562 179.148438 170.222656 178.863281 C 169.09375 178.582031 167.972656 178.269531 166.859375 177.933594 C 165.746094 177.597656 164.640625 177.230469 163.546875 176.839844 C 162.449219 176.445312 161.363281 176.027344 160.289062 175.582031 C 159.214844 175.136719 158.152344 174.667969 157.097656 174.167969 C 156.046875 173.671875 155.007812 173.148438 153.980469 172.597656 C 152.953125 172.050781 151.941406 171.476562 150.945312 170.878906 C 149.945312 170.28125 148.964844 169.660156 147.996094 169.011719 C 147.027344 168.367188 146.078125 167.695312 145.140625 167.003906 C 144.207031 166.308594 143.289062 165.59375 142.390625 164.855469 C 141.492188 164.117188 140.609375 163.355469 139.75 162.574219 C 138.886719 161.792969 138.042969 160.992188 137.222656 160.167969 C 136.398438 159.347656 135.597656 158.503906 134.8125 157.640625 C 134.03125 156.78125 133.273438 155.898438 132.535156 155 C 131.796875 154.097656 131.082031 153.183594 130.386719 152.246094 C 129.695312 151.3125 129.023438 150.363281 128.378906 149.394531 C 127.730469 148.425781 127.109375 147.445312 126.511719 146.445312 C 125.914062 145.449219 125.339844 144.433594 124.789062 143.410156 C 124.242188 142.382812 123.71875 141.34375 123.222656 140.292969 C 122.722656 139.238281 122.253906 138.175781 121.808594 137.101562 C 121.363281 136.027344 120.941406 134.941406 120.550781 133.84375 C 120.160156 132.75 119.792969 131.644531 119.457031 130.53125 C 119.117188 129.417969 118.808594 128.296875 118.527344 127.167969 C 118.242188 126.039062 117.988281 124.902344 117.761719 123.761719 C 117.535156 122.621094 117.335938 121.472656 117.164062 120.324219 C 116.992188 119.171875 116.851562 118.019531 116.738281 116.859375 C 116.621094 115.703125 116.539062 114.542969 116.480469 113.378906 C 116.421875 112.214844 116.394531 111.054688 116.394531 109.890625 C 116.394531 108.726562 116.421875 107.5625 116.480469 106.402344 C 116.539062 105.238281 116.621094 104.078125 116.738281 102.921875 C 116.851562 101.761719 116.992188 100.609375 117.164062 99.457031 C 117.335938 98.304688 117.535156 97.160156 117.761719 96.019531 C 117.988281 94.875 118.242188 93.742188 118.527344 92.613281 C 118.808594 91.484375 119.117188 90.363281 119.457031 89.25 C 119.792969 88.136719 120.160156 87.03125 120.550781 85.933594 C 120.941406 84.839844 121.363281 83.753906 121.808594 82.679688 C 122.253906 81.605469 122.722656 80.539062 123.222656 79.488281 C 123.71875 78.4375 124.242188 77.398438 124.789062 76.371094 C 125.339844 75.34375 125.914062 74.332031 126.511719 73.335938 C 127.109375 72.335938 127.730469 71.355469 128.378906 70.386719 C 129.023438 69.417969 129.695312 68.46875 130.386719 67.53125 C 131.082031 66.597656 131.796875 65.679688 132.535156 64.78125 C 133.273438 63.882812 134.03125 63 134.8125 62.136719 C 135.597656 61.277344 136.398438 60.433594 137.222656 59.609375 C 138.042969 58.789062 138.886719 57.984375 139.75 57.203125 C 140.609375 56.421875 141.492188 55.664062 142.390625 54.925781 C 143.289062 54.1875 144.207031 53.472656 145.140625 52.777344 C 146.078125 52.085938 147.027344 51.414062 147.996094 50.769531 C 148.964844 50.121094 149.945312 49.5 150.945312 48.902344 C 151.941406 48.300781 152.953125 47.730469 153.980469 47.179688 C 155.007812 46.632812 156.046875 46.109375 157.097656 45.613281 C 158.152344 45.113281 159.214844 44.644531 160.289062 44.199219 C 161.363281 43.753906 162.449219 43.332031 163.546875 42.941406 C 164.640625 42.550781 165.746094 42.183594 166.859375 41.847656 C 167.972656 41.507812 169.09375 41.199219 170.222656 40.914062 C 171.351562 40.632812 172.488281 40.378906 173.628906 40.152344 C 174.769531 39.925781 175.914062 39.726562 177.066406 39.554688 C 178.21875 39.382812 179.371094 39.242188 180.53125 39.128906 C 181.6875 39.011719 182.847656 38.925781 184.011719 38.871094 C 185.171875 38.8125 186.335938 38.785156 187.5 38.785156 C 188.664062 38.785156 189.828125 38.8125 190.988281 38.871094 C 192.152344 38.925781 193.3125 39.011719 194.46875 39.128906 C 195.628906 39.242188 196.78125 39.382812 197.933594 39.554688 C 199.085938 39.726562 200.230469 39.925781 201.371094 40.152344 C 202.511719 40.378906 203.648438 40.632812 204.777344 40.914062 C 205.90625 41.199219 207.027344 41.507812 208.140625 41.847656 C 209.253906 42.183594 210.359375 42.550781 211.453125 42.941406 C 212.550781 43.332031 213.636719 43.753906 214.710938 44.199219 C 215.785156 44.644531 216.847656 45.113281 217.902344 45.613281 C 218.953125 46.109375 219.992188 46.632812 221.019531 47.179688 C 222.046875 47.730469 223.058594 48.300781 224.054688 48.902344 C 225.054688 49.5 226.035156 50.121094 227.003906 50.769531 C 227.972656 51.414062 228.921875 52.085938 229.855469 52.777344 C 230.792969 53.472656 231.710938 54.1875 232.609375 54.925781 C 233.507812 55.664062 234.390625 56.421875 235.25 57.203125 C 236.113281 57.984375 236.957031 58.789062 237.777344 59.609375 C 238.601562 60.433594 239.402344 61.277344 240.1875 62.136719 C 240.96875 63 241.726562 63.882812 242.464844 64.78125 C 243.203125 65.679688 243.917969 66.597656 244.613281 67.53125 C 245.304688 68.46875 245.976562 69.417969 246.621094 70.386719 C 247.269531 71.355469 247.890625 72.335938 248.488281 73.335938 C 249.085938 74.332031 249.660156 75.34375 250.210938 76.371094 C 250.757812 77.398438 251.28125 78.4375 251.777344 79.488281 C 252.277344 80.539062 252.746094 81.605469 253.191406 82.679688 C 253.636719 83.753906 254.058594 84.839844 254.449219 85.933594 C 254.839844 87.03125 255.207031 88.136719 255.542969 89.25 C 255.882812 90.363281 256.191406 91.484375 256.472656 92.613281 C 256.757812 93.742188 257.011719 94.875 257.238281 96.019531 C 257.464844 97.160156 257.664062 98.304688 257.835938 99.457031 C 258.007812 100.609375 258.148438 101.761719 258.261719 102.921875 C 258.378906 104.078125 258.460938 105.238281 258.519531 106.402344 C 258.578125 107.5625 258.605469 108.726562 258.605469 109.890625 L 258.605469 129.28125 C 258.605469 130.132812 258.523438 130.972656 258.355469 131.804688 C 258.191406 132.636719 257.945312 133.445312 257.621094 134.230469 C 257.296875 135.015625 256.898438 135.757812 256.425781 136.464844 C 255.953125 137.171875 255.417969 137.824219 254.820312 138.425781 C 254.21875 139.023438 253.566406 139.558594 252.859375 140.03125 C 252.152344 140.503906 251.410156 140.902344 250.625 141.226562 C 249.839844 141.550781 249.03125 141.796875 248.199219 141.960938 C 247.367188 142.128906 246.527344 142.210938 245.675781 142.210938 C 244.828125 142.210938 243.988281 142.128906 243.15625 141.960938 C 242.324219 141.796875 241.515625 141.550781 240.730469 141.226562 C 239.945312 140.902344 239.199219 140.503906 238.496094 140.03125 C 237.789062 139.558594 237.136719 139.023438 236.535156 138.425781 C 235.933594 137.824219 235.398438 137.171875 234.925781 136.464844 C 234.457031 135.757812 234.058594 135.015625 233.734375 134.230469 C 233.40625 133.445312 233.164062 132.636719 232.996094 131.804688 C 232.832031 130.972656 232.75 130.132812 232.75 129.28125 L 232.75 109.890625 C 232.75 109.011719 232.730469 108.132812 232.679688 107.253906 C 232.632812 106.375 232.558594 105.5 232.457031 104.625 C 232.359375 103.753906 232.234375 102.882812 232.085938 102.015625 C 231.933594 101.148438 231.761719 100.289062 231.558594 99.433594 C 231.359375 98.578125 231.136719 97.726562 230.886719 96.882812 C 230.636719 96.039062 230.363281 95.207031 230.066406 94.378906 C 229.769531 93.550781 229.445312 92.734375 229.101562 91.925781 C 228.753906 91.117188 228.386719 90.316406 227.996094 89.53125 C 227.601562 88.742188 227.1875 87.96875 226.753906 87.203125 C 226.316406 86.441406 225.855469 85.691406 225.375 84.957031 C 224.894531 84.21875 224.394531 83.496094 223.871094 82.789062 C 223.351562 82.082031 222.808594 81.390625 222.246094 80.714844 C 221.683594 80.039062 221.101562 79.378906 220.5 78.738281 C 219.898438 78.097656 219.28125 77.472656 218.644531 76.867188 C 218.007812 76.261719 217.351562 75.671875 216.679688 75.105469 C 216.007812 74.539062 215.320312 73.988281 214.621094 73.460938 C 213.917969 72.933594 213.199219 72.425781 212.464844 71.941406 C 211.734375 71.453125 210.988281 70.988281 210.226562 70.546875 C 209.46875 70.101562 208.695312 69.683594 207.914062 69.285156 C 207.128906 68.886719 206.332031 68.511719 205.527344 68.160156 C 204.722656 67.808594 203.90625 67.480469 203.082031 67.175781 C 202.257812 66.871094 201.425781 66.589844 200.582031 66.332031 C 199.742188 66.078125 198.894531 65.847656 198.039062 65.640625 C 197.183594 65.433594 196.324219 65.25 195.460938 65.09375 C 194.59375 64.9375 193.726562 64.804688 192.851562 64.699219 C 191.980469 64.59375 191.105469 64.511719 190.226562 64.457031 C 189.347656 64.402344 188.472656 64.371094 187.589844 64.367188 C 186.710938 64.363281 185.832031 64.382812 184.957031 64.429688 C 184.078125 64.476562 183.203125 64.546875 182.328125 64.644531 C 181.453125 64.742188 180.582031 64.867188 179.71875 65.015625 C 178.851562 65.164062 177.988281 65.335938 177.132812 65.535156 C 176.273438 65.730469 175.425781 65.957031 174.582031 66.203125 C 173.738281 66.449219 172.902344 66.722656 172.074219 67.019531 C 171.246094 67.316406 170.425781 67.636719 169.617188 67.980469 C 168.808594 68.324219 168.011719 68.6875 167.222656 69.078125 C 166.433594 69.46875 165.660156 69.882812 164.894531 70.316406 C 164.128906 70.753906 163.378906 71.210938 162.640625 71.6875 C 161.90625 72.167969 161.183594 72.667969 160.472656 73.1875 C 159.765625 73.710938 159.074219 74.25 158.394531 74.8125 C 157.71875 75.375 157.058594 75.953125 156.414062 76.554688 C 155.773438 77.152344 155.148438 77.769531 154.539062 78.40625 C 153.933594 79.042969 153.34375 79.695312 152.773438 80.363281 C 152.207031 81.035156 151.65625 81.722656 151.128906 82.421875 C 150.597656 83.125 150.089844 83.84375 149.601562 84.574219 C 149.113281 85.304688 148.648438 86.050781 148.203125 86.808594 C 147.757812 87.566406 147.335938 88.339844 146.9375 89.121094 C 146.535156 89.90625 146.160156 90.699219 145.808594 91.503906 C 145.453125 92.308594 145.125 93.125 144.816406 93.949219 C 144.511719 94.773438 144.230469 95.605469 143.972656 96.445312 C 143.714844 97.285156 143.480469 98.132812 143.273438 98.988281 C 143.0625 99.84375 142.878906 100.703125 142.722656 101.566406 C 142.5625 102.429688 142.429688 103.300781 142.320312 104.171875 C 142.210938 105.046875 142.128906 105.921875 142.074219 106.796875 C 142.015625 107.675781 141.984375 108.554688 141.976562 109.433594 C 141.972656 110.3125 141.992188 111.191406 142.035156 112.070312 C 142.082031 112.945312 142.152344 113.824219 142.246094 114.695312 C 142.34375 115.570312 142.464844 116.441406 142.609375 117.308594 C 142.757812 118.175781 142.929688 119.039062 143.125 119.894531 C 143.320312 120.75 143.542969 121.601562 143.789062 122.445312 C 144.035156 123.289062 144.304688 124.128906 144.597656 124.957031 C 144.894531 125.785156 145.210938 126.601562 145.554688 127.414062 C 145.894531 128.222656 146.261719 129.023438 146.648438 129.8125 C 147.039062 130.601562 147.449219 131.375 147.882812 132.140625 C 148.316406 132.90625 148.773438 133.65625 149.25 134.394531 C 149.726562 135.136719 150.226562 135.859375 150.746094 136.566406 C 151.265625 137.277344 151.804688 137.972656 152.363281 138.648438 C 152.925781 139.328125 153.503906 139.988281 154.101562 140.632812 C 154.699219 141.277344 155.316406 141.902344 155.949219 142.511719 C 156.585938 143.121094 157.238281 143.710938 157.90625 144.28125 C 158.574219 144.851562 159.261719 145.402344 159.960938 145.933594 C 160.664062 146.464844 161.378906 146.972656 162.109375 147.464844 C 162.839844 147.953125 163.582031 148.421875 164.339844 148.867188 C 165.097656 149.3125 165.867188 149.734375 166.652344 150.136719 C 167.433594 150.539062 168.226562 150.917969 169.03125 151.273438 C 169.835938 151.628906 170.648438 151.957031 171.472656 152.265625 C 172.296875 152.574219 173.128906 152.859375 173.96875 153.117188 C 174.808594 153.375 175.65625 153.613281 176.511719 153.820312 C 177.363281 154.03125 178.222656 154.21875 179.085938 154.378906 C 179.953125 154.539062 180.820312 154.671875 181.691406 154.78125 C 182.566406 154.894531 183.441406 154.976562 184.316406 155.035156 C 185.195312 155.09375 186.074219 155.128906 186.953125 155.136719 C 187.832031 155.144531 188.710938 155.128906 189.589844 155.082031 C 190.464844 155.039062 191.34375 154.972656 192.21875 154.878906 C 193.089844 154.785156 193.960938 154.664062 194.828125 154.519531 C 195.695312 154.375 196.558594 154.207031 197.417969 154.011719 C 198.273438 153.816406 199.125 153.597656 199.96875 153.351562 C 200.8125 153.109375 201.652344 152.839844 202.480469 152.546875 C 203.308594 152.253906 204.128906 151.9375 204.941406 151.597656 C 205.75 151.257812 206.550781 150.890625 207.339844 150.503906 C 208.128906 150.117188 208.90625 149.707031 209.671875 149.277344 C 210.4375 148.84375 211.191406 148.390625 211.929688 147.914062 C 212.671875 147.4375 213.394531 146.941406 214.105469 146.421875 C 214.816406 145.90625 215.511719 145.367188 216.191406 144.808594 C 216.867188 144.25 217.53125 143.671875 218.175781 143.074219 C 218.824219 142.476562 219.449219 141.863281 220.058594 141.230469 C 220.667969 140.597656 221.261719 139.945312 221.832031 139.277344 C 222.40625 140.644531 223.089844 141.953125 223.890625 143.199219 C 224.6875 144.449219 225.585938 145.621094 226.585938 146.714844 C 227.585938 147.808594 228.671875 148.808594 229.839844 149.71875 C 231.011719 150.625 232.253906 151.425781 233.5625 152.121094 C 234.871094 152.816406 236.230469 153.390625 237.640625 153.851562 C 239.046875 154.3125 240.484375 154.652344 241.953125 154.863281 C 243.417969 155.078125 244.890625 155.164062 246.375 155.125 C 247.855469 155.085938 249.320312 154.917969 250.773438 154.625 C 252.226562 154.335938 253.644531 153.921875 255.027344 153.382812 C 256.410156 152.847656 257.734375 152.199219 259.003906 151.433594 C 260.273438 150.671875 261.46875 149.804688 262.589844 148.835938 C 263.710938 147.867188 264.742188 146.808594 265.679688 145.660156 C 266.621094 144.515625 267.453125 143.296875 268.183594 142.007812 C 268.914062 140.71875 269.527344 139.375 270.027344 137.980469 C 270.523438 136.582031 270.898438 135.15625 271.152344 133.695312 C 271.40625 132.234375 271.535156 130.765625 271.535156 129.28125 L 271.535156 109.890625 C 271.53125 108.515625 271.496094 107.140625 271.425781 105.769531 C 271.359375 104.394531 271.253906 103.023438 271.121094 101.65625 C 270.984375 100.289062 270.8125 98.925781 270.609375 97.566406 C 270.40625 96.207031 270.171875 94.851562 269.902344 93.503906 C 269.632812 92.15625 269.328125 90.8125 268.996094 89.480469 C 268.660156 88.148438 268.292969 86.824219 267.890625 85.507812 C 267.492188 84.191406 267.058594 82.886719 266.59375 81.59375 C 266.132812 80.300781 265.636719 79.019531 265.109375 77.75 C 264.582031 76.476562 264.023438 75.222656 263.4375 73.980469 C 262.847656 72.738281 262.230469 71.511719 261.582031 70.296875 C 260.929688 69.085938 260.253906 67.890625 259.546875 66.710938 C 258.839844 65.53125 258.101562 64.371094 257.339844 63.226562 C 256.574219 62.085938 255.785156 60.960938 254.964844 59.859375 C 254.144531 58.753906 253.300781 57.671875 252.425781 56.609375 C 251.554688 55.546875 250.65625 54.503906 249.734375 53.484375 C 248.808594 52.46875 247.863281 51.472656 246.890625 50.5 C 245.917969 49.527344 244.921875 48.582031 243.902344 47.65625 C 242.886719 46.734375 241.84375 45.835938 240.78125 44.964844 C 239.71875 44.089844 238.636719 43.246094 237.53125 42.425781 C 236.429688 41.605469 235.304688 40.816406 234.160156 40.050781 C 233.019531 39.285156 231.859375 38.550781 230.679688 37.84375 C 229.5 37.136719 228.304688 36.457031 227.09375 35.808594 C 225.878906 35.160156 224.652344 34.542969 223.410156 33.953125 C 222.167969 33.367188 220.910156 32.808594 219.640625 32.28125 C 218.371094 31.753906 217.089844 31.257812 215.796875 30.792969 C 214.5 30.332031 213.195312 29.898438 211.882812 29.5 C 210.566406 29.097656 209.242188 28.730469 207.910156 28.394531 C 206.574219 28.058594 205.234375 27.757812 203.886719 27.488281 C 202.539062 27.21875 201.183594 26.984375 199.824219 26.78125 C 198.464844 26.578125 197.101562 26.40625 195.734375 26.269531 C 194.367188 26.132812 192.996094 26.03125 191.621094 25.960938 C 190.25 25.894531 188.875 25.859375 187.5 25.855469 Z M 187.5 142.210938 C 186.441406 142.210938 185.386719 142.160156 184.332031 142.054688 C 183.277344 141.953125 182.234375 141.796875 181.195312 141.589844 C 180.15625 141.382812 179.128906 141.125 178.117188 140.820312 C 177.105469 140.511719 176.109375 140.15625 175.132812 139.75 C 174.152344 139.34375 173.199219 138.894531 172.265625 138.394531 C 171.332031 137.894531 170.421875 137.351562 169.542969 136.765625 C 168.664062 136.175781 167.8125 135.546875 166.996094 134.875 C 166.175781 134.203125 165.394531 133.492188 164.644531 132.746094 C 163.898438 131.996094 163.1875 131.210938 162.515625 130.394531 C 161.84375 129.574219 161.214844 128.726562 160.625 127.847656 C 160.039062 126.964844 159.496094 126.058594 158.996094 125.125 C 158.496094 124.191406 158.042969 123.238281 157.640625 122.257812 C 157.234375 121.28125 156.878906 120.285156 156.570312 119.273438 C 156.265625 118.257812 156.007812 117.234375 155.800781 116.195312 C 155.59375 115.15625 155.4375 114.113281 155.335938 113.058594 C 155.230469 112.003906 155.179688 110.949219 155.179688 109.890625 C 155.179688 108.832031 155.230469 107.777344 155.335938 106.722656 C 155.4375 105.667969 155.59375 104.621094 155.800781 103.585938 C 156.007812 102.546875 156.265625 101.519531 156.570312 100.507812 C 156.878906 99.496094 157.234375 98.5 157.640625 97.523438 C 158.042969 96.542969 158.496094 95.585938 158.996094 94.652344 C 159.496094 93.71875 160.039062 92.8125 160.625 91.933594 C 161.214844 91.054688 161.84375 90.203125 162.515625 89.386719 C 163.1875 88.566406 163.898438 87.785156 164.644531 87.035156 C 165.394531 86.289062 166.175781 85.578125 166.996094 84.90625 C 167.8125 84.234375 168.664062 83.605469 169.542969 83.015625 C 170.421875 82.429688 171.332031 81.886719 172.265625 81.386719 C 173.199219 80.886719 174.152344 80.433594 175.132812 80.03125 C 176.109375 79.625 177.105469 79.269531 178.117188 78.960938 C 179.128906 78.652344 180.15625 78.398438 181.195312 78.191406 C 182.234375 77.984375 183.277344 77.828125 184.332031 77.726562 C 185.386719 77.621094 186.441406 77.570312 187.5 77.570312 C 188.558594 77.570312 189.613281 77.621094 190.667969 77.726562 C 191.722656 77.828125 192.765625 77.984375 193.804688 78.191406 C 194.84375 78.398438 195.871094 78.652344 196.882812 78.960938 C 197.894531 79.269531 198.890625 79.625 199.867188 80.03125 C 200.847656 80.433594 201.800781 80.886719 202.734375 81.386719 C 203.667969 81.886719 204.578125 82.429688 205.457031 83.015625 C 206.335938 83.605469 207.1875 84.234375 208.003906 84.90625 C 208.820312 85.578125 209.605469 86.289062 210.355469 87.035156 C 211.101562 87.785156 211.8125 88.566406 212.484375 89.386719 C 213.15625 90.203125 213.785156 91.054688 214.375 91.933594 C 214.960938 92.8125 215.503906 93.71875 216.003906 94.652344 C 216.503906 95.585938 216.957031 96.542969 217.359375 97.523438 C 217.765625 98.5 218.121094 99.496094 218.429688 100.507812 C 218.734375 101.519531 218.992188 102.546875 219.199219 103.585938 C 219.40625 104.621094 219.5625 105.667969 219.664062 106.722656 C 219.769531 107.777344 219.820312 108.832031 219.820312 109.890625 C 219.820312 110.949219 219.765625 112.003906 219.660156 113.058594 C 219.554688 114.109375 219.398438 115.15625 219.191406 116.191406 C 218.984375 117.230469 218.726562 118.253906 218.417969 119.269531 C 218.113281 120.28125 217.753906 121.273438 217.347656 122.253906 C 216.945312 123.230469 216.492188 124.183594 215.992188 125.117188 C 215.492188 126.050781 214.949219 126.957031 214.359375 127.835938 C 213.773438 128.714844 213.144531 129.566406 212.472656 130.382812 C 211.800781 131.199219 211.089844 131.984375 210.34375 132.734375 C 209.59375 133.480469 208.8125 134.191406 207.992188 134.863281 C 207.175781 135.535156 206.328125 136.164062 205.445312 136.75 C 204.566406 137.339844 203.660156 137.882812 202.726562 138.382812 C 201.792969 138.882812 200.839844 139.335938 199.863281 139.738281 C 198.886719 140.144531 197.890625 140.503906 196.878906 140.808594 C 195.867188 141.117188 194.839844 141.375 193.800781 141.582031 C 192.765625 141.789062 191.71875 141.945312 190.667969 142.050781 C 189.613281 142.15625 188.558594 142.210938 187.5 142.210938 Z M 187.5 142.210938 " fill-opacity="1" fill-rule="nonzero"/></svg>